<svg xmlns="http://www.w3.org/2000/svg" xmlns:xlink="http://www.w3.org/1999/xlink" xmlns:lucid="lucid" width="2232.5" height="1145.51"><g transform="translate(-129 -120)" lucid:page-tab-id="0_0"><path d="M581.5 506c0-3.3 2.7-6 6-6h408c3.3 0 6 2.7 6 6v288c0 3.3-2.7 6-6 6h-408c-3.3 0-6-2.7-6-6z" stroke="#5e5e5e" stroke-width="3" fill="#fff"/><use xlink:href="#a" transform="matrix(1,0,0,1,586.5,505) translate(126.94444444444446 149.18402777777777)"/><use xlink:href="#b" transform="matrix(1,0,0,1,586.5,505) translate(207.87037037037038 149.18402777777777)"/><use xlink:href="#c" transform="matrix(1,0,0,1,586.5,505) translate(242.37654320987653 149.18402777777777)"/><path d="M588.5 526c0-3.3 2.7-6 6-6h208c3.3 0 6 2.7 6 6v8c0 3.3-2.7 6-6 6h-208c-3.3 0-6-2.7-6-6z" stroke="#5e5e5e" stroke-width="3" fill="#fff"/><path d="M605.5 531.33c0-1.84 1.5-3.33 3.33-3.33h1.34c1.84 0 3.33 1.5 3.33 3.33 0 1.84-1.5 3.34-3.33 3.34h-1.34c-1.84 0-3.33-1.5-3.33-3.34zM625.5 531.33c0-1.84 1.5-3.33 3.33-3.33h1.34c1.84 0 3.33 1.5 3.33 3.33 0 1.84-1.5 3.34-3.33 3.34h-1.34c-1.84 0-3.33-1.5-3.33-3.34zM645.5 531.33c0-1.84 1.5-3.33 3.33-3.33h1.34c1.84 0 3.33 1.5 3.33 3.33 0 1.84-1.5 3.34-3.33 3.34h-1.34c-1.84 0-3.33-1.5-3.33-3.34zM665.5 531.33c0-1.84 1.5-3.33 3.33-3.33h1.34c1.84 0 3.33 1.5 3.33 3.33 0 1.84-1.5 3.34-3.33 3.34h-1.34c-1.84 0-3.33-1.5-3.33-3.34zM685.5 531.33c0-1.84 1.5-3.33 3.33-3.33h1.34c1.84 0 3.33 1.5 3.33 3.33 0 1.84-1.5 3.34-3.33 3.34h-1.34c-1.84 0-3.33-1.5-3.33-3.34zM705.5 531.33c0-1.84 1.5-3.33 3.33-3.33h1.34c1.84 0 3.33 1.5 3.33 3.33 0 1.84-1.5 3.34-3.33 3.34h-1.34c-1.84 0-3.33-1.5-3.33-3.34zM725.5 531.33c0-1.84 1.5-3.33 3.33-3.33h1.34c1.84 0 3.33 1.5 3.33 3.33 0 1.84-1.5 3.34-3.33 3.34h-1.34c-1.84 0-3.33-1.5-3.33-3.34zM745.5 531.33c0-1.84 1.5-3.33 3.33-3.33h1.34c1.84 0 3.33 1.5 3.33 3.33 0 1.84-1.5 3.34-3.33 3.34h-1.34c-1.84 0-3.33-1.5-3.33-3.34zM765.5 531.33c0-1.84 1.5-3.33 3.33-3.33h1.34c1.84 0 3.33 1.5 3.33 3.33 0 1.84-1.5 3.34-3.33 3.34h-1.34c-1.84 0-3.33-1.5-3.33-3.34zM785.5 531.33c0-1.84 1.5-3.33 3.33-3.33h1.34c1.84 0 3.33 1.5 3.33 3.33 0 1.84-1.5 3.34-3.33 3.34h-1.34c-1.84 0-3.33-1.5-3.33-3.34z" stroke="#5e5e5e" stroke-width="3" fill="#fff"/><path d="M602.5 594.33c-3.3 0-6-2.68-6-6V555c0-3.3 2.7-6 6-6s6 2.7 6 6v33.33c0 3.32-2.7 6-6 6z" stroke="#000" stroke-opacity="0" stroke-width="3" fill="#fff" fill-opacity="0"/><use xlink:href="#d" transform="matrix(6.123233995736766e-17,-1,1,6.123233995736766e-17,601.5,589.3333333333333) translate(5.055555555555561 10.666666666666664)"/><path d="M622.5 594.33c-3.3 0-6-2.68-6-6V555c0-3.3 2.7-6 6-6s6 2.7 6 6v33.33c0 3.32-2.7 6-6 6z" stroke="#000" stroke-opacity="0" stroke-width="3" fill="#fff" fill-opacity="0"/><use xlink:href="#e" transform="matrix(6.123233995736766e-17,-1,1,6.123233995736766e-17,621.5,589.3333333333333) translate(4.31481481481482 10.666666666666664)"/><path d="M642.5 594.33c-3.3 0-6-2.68-6-6V555c0-3.3 2.7-6 6-6s6 2.7 6 6v33.33c0 3.32-2.7 6-6 6z" stroke="#000" stroke-opacity="0" stroke-width="3" fill="#fff" fill-opacity="0"/><use xlink:href="#f" transform="matrix(6.123233995736766e-17,-1,1,6.123233995736766e-17,641.5,589.3333333333333) translate(4.7037037037037095 10.666666666666664)"/><path d="M662.5 594.33c-3.3 0-6-2.68-6-6V555c0-3.3 2.7-6 6-6s6 2.7 6 6v33.33c0 3.32-2.7 6-6 6z" stroke="#000" stroke-opacity="0" stroke-width="3" fill="#fff" fill-opacity="0"/><use xlink:href="#g" transform="matrix(6.123233995736766e-17,-1,1,6.123233995736766e-17,661.5,589.3333333333333) translate(3.2222222222222285 10.666666666666664)"/><path d="M682.5 594.33c-3.3 0-6-2.68-6-6V555c0-3.3 2.7-6 6-6s6 2.7 6 6v33.33c0 3.32-2.7 6-6 6z" stroke="#000" stroke-opacity="0" stroke-width="3" fill="#fff" fill-opacity="0"/><use xlink:href="#h" transform="matrix(6.123233995736766e-17,-1,1,6.123233995736766e-17,681.5,589.3333333333333) translate(3.5555555555555607 10.666666666666664)"/><path d="M702.5 594.33c-3.3 0-6-2.68-6-6V555c0-3.3 2.7-6 6-6s6 2.7 6 6v33.33c0 3.32-2.7 6-6 6z" stroke="#000" stroke-opacity="0" stroke-width="3" fill="#fff" fill-opacity="0"/><use xlink:href="#i" transform="matrix(6.123233995736766e-17,-1,1,6.123233995736766e-17,701.5,589.3333333333333) translate(3.5555555555555607 10.666666666666664)"/><path d="M722.5 594.33c-3.3 0-6-2.68-6-6V555c0-3.3 2.7-6 6-6s6 2.7 6 6v33.33c0 3.32-2.7 6-6 6z" stroke="#000" stroke-opacity="0" stroke-width="3" fill="#fff" fill-opacity="0"/><use xlink:href="#j" transform="matrix(6.123233995736766e-17,-1,1,6.123233995736766e-17,721.5,589.3333333333333) translate(3.5555555555555607 10.666666666666664)"/><path d="M742.5 594.33c-3.3 0-6-2.68-6-6V555c0-3.3 2.7-6 6-6s6 2.7 6 6v33.33c0 3.32-2.7 6-6 6z" stroke="#000" stroke-opacity="0" stroke-width="3" fill="#fff" fill-opacity="0"/><use xlink:href="#k" transform="matrix(6.123233995736766e-17,-1,1,6.123233995736766e-17,741.5,589.3333333333333) translate(7.259259259259263 10.666666666666664)"/><path d="M762.5 593.33c-3.3 0-6-2.68-6-6V554c0-3.3 2.7-6 6-6s6 2.7 6 6v33.33c0 3.32-2.7 6-6 6z" stroke="#000" stroke-opacity="0" stroke-width="3" fill="#fff" fill-opacity="0"/><use xlink:href="#l" transform="matrix(6.123233995736766e-17,-1,1,6.123233995736766e-17,761.5,588.3333333333333) translate(3.5555555555555607 10.666666666666664)"/><path d="M782.5 592.33c-3.3 0-6-2.68-6-6V553c0-3.3 2.7-6 6-6s6 2.7 6 6v33.33c0 3.32-2.7 6-6 6z" stroke="#000" stroke-opacity="0" stroke-width="3" fill="#fff" fill-opacity="0"/><use xlink:href="#m" transform="matrix(6.123233995736766e-17,-1,1,6.123233995736766e-17,781.5,587.3333333333333) translate(3.5555555555555607 10.666666666666664)"/><path d="M815.5 526c0-3.3 2.7-6 6-6h156c3.3 0 6 2.7 6 6v8c0 3.3-2.7 6-6 6h-156c-3.3 0-6-2.7-6-6z" stroke="#5e5e5e" stroke-width="3" fill="#fff"/><path d="M822.5 586.33c-3.3 0-6-2.68-6-6V547c0-3.3 2.7-6 6-6s6 2.7 6 6v33.33c0 3.32-2.7 6-6 6z" stroke="#000" stroke-opacity="0" stroke-width="3" fill="#fff" fill-opacity="0"/><use xlink:href="#n" transform="matrix(6.123233995736766e-17,-1,1,6.123233995736766e-17,821.5,581.3333333333333) translate(3.5555555555555607 10.666666666666664)"/><path d="M842.5 586.33c-3.3 0-6-2.68-6-6V547c0-3.3 2.7-6 6-6s6 2.7 6 6v33.33c0 3.32-2.7 6-6 6z" stroke="#000" stroke-opacity="0" stroke-width="3" fill="#fff" fill-opacity="0"/><use xlink:href="#o" transform="matrix(6.123233995736766e-17,-1,1,6.123233995736766e-17,841.5,581.3333333333333) translate(3.5555555555555607 10.666666666666664)"/><path d="M862.5 586.33c-3.3 0-6-2.68-6-6V547c0-3.3 2.7-6 6-6s6 2.7 6 6v33.33c0 3.32-2.7 6-6 6z" stroke="#000" stroke-opacity="0" stroke-width="3" fill="#fff" fill-opacity="0"/><use xlink:href="#p" transform="matrix(6.123233995736766e-17,-1,1,6.123233995736766e-17,861.5,581.3333333333333) translate(3.5555555555555607 10.666666666666664)"/><path d="M882.5 586.33c-3.3 0-6-2.68-6-6V547c0-3.3 2.7-6 6-6s6 2.7 6 6v33.33c0 3.32-2.7 6-6 6z" stroke="#000" stroke-opacity="0" stroke-width="3" fill="#fff" fill-opacity="0"/><use xlink:href="#q" transform="matrix(6.123233995736766e-17,-1,1,6.123233995736766e-17,881.5,581.3333333333333) translate(3.5555555555555607 10.666666666666664)"/><path d="M902.5 587.33c-3.3 0-6-2.68-6-6V548c0-3.3 2.7-6 6-6s6 2.7 6 6v33.33c0 3.32-2.7 6-6 6z" stroke="#000" stroke-opacity="0" stroke-width="3" fill="#fff" fill-opacity="0"/><use xlink:href="#r" transform="matrix(6.123233995736766e-17,-1,1,6.123233995736766e-17,901.5,582.3333333333333) translate(3.5555555555555607 10.666666666666664)"/><path d="M922.5 587.33c-3.3 0-6-2.68-6-6V548c0-3.3 2.7-6 6-6s6 2.7 6 6v33.33c0 3.32-2.7 6-6 6z" stroke="#000" stroke-opacity="0" stroke-width="3" fill="#fff" fill-opacity="0"/><use xlink:href="#s" transform="matrix(6.123233995736766e-17,-1,1,6.123233995736766e-17,921.5,582.3333333333333) translate(3.5555555555555607 10.666666666666664)"/><path d="M825.5 531.33c0-1.84 1.5-3.33 3.33-3.33h1.34c1.84 0 3.33 1.5 3.33 3.33 0 1.84-1.5 3.34-3.33 3.34h-1.34c-1.84 0-3.33-1.5-3.33-3.34zM845.5 531.33c0-1.84 1.5-3.33 3.33-3.33h1.34c1.84 0 3.33 1.5 3.33 3.33 0 1.84-1.5 3.34-3.33 3.34h-1.34c-1.84 0-3.33-1.5-3.33-3.34zM865.5 531.33c0-1.84 1.5-3.33 3.33-3.33h1.34c1.84 0 3.33 1.5 3.33 3.33 0 1.84-1.5 3.34-3.33 3.34h-1.34c-1.84 0-3.33-1.5-3.33-3.34zM885.5 531.33c0-1.84 1.5-3.33 3.33-3.33h1.34c1.84 0 3.33 1.5 3.33 3.33 0 1.84-1.5 3.34-3.33 3.34h-1.34c-1.84 0-3.33-1.5-3.33-3.34zM905.5 531.33c0-1.84 1.5-3.33 3.33-3.33h1.34c1.84 0 3.33 1.5 3.33 3.33 0 1.84-1.5 3.34-3.33 3.34h-1.34c-1.84 0-3.33-1.5-3.33-3.34zM925.5 531.33c0-1.84 1.5-3.33 3.33-3.33h1.34c1.84 0 3.33 1.5 3.33 3.33 0 1.84-1.5 3.34-3.33 3.34h-1.34c-1.84 0-3.33-1.5-3.33-3.34zM945.5 531.33c0-1.84 1.5-3.33 3.33-3.33h1.34c1.84 0 3.33 1.5 3.33 3.33 0 1.84-1.5 3.34-3.33 3.34h-1.34c-1.84 0-3.33-1.5-3.33-3.34zM965.5 531.33c0-1.84 1.5-3.33 3.33-3.33h1.34c1.84 0 3.33 1.5 3.33 3.33 0 1.84-1.5 3.34-3.33 3.34h-1.34c-1.84 0-3.33-1.5-3.33-3.34z" stroke="#5e5e5e" stroke-width="3" fill="#fff"/><path d="M942.5 588.33c-3.3 0-6-2.68-6-6V549c0-3.3 2.7-6 6-6s6 2.7 6 6v33.33c0 3.32-2.7 6-6 6z" stroke="#000" stroke-opacity="0" stroke-width="3" fill="#fff" fill-opacity="0"/><use xlink:href="#t" transform="matrix(6.123233995736766e-17,-1,1,6.123233995736766e-17,941.4999999999999,583.3333333333333) translate(5.796296296296301 10.666666666666664)"/><path d="M962.5 588.33c-3.3 0-6-2.68-6-6V549c0-3.3 2.7-6 6-6s6 2.7 6 6v33.33c0 3.32-2.7 6-6 6z" stroke="#000" stroke-opacity="0" stroke-width="3" fill="#fff" fill-opacity="0"/><use xlink:href="#u" transform="matrix(6.123233995736766e-17,-1,1,6.123233995736766e-17,961.5,583.3333333333333) translate(5.055555555555561 10.666666666666664)"/><path d="M660.5 766c0-3.3 2.7-6 6-6h168c3.3 0 6 2.7 6 6v8c0 3.3-2.7 6-6 6h-168c-3.3 0-6-2.7-6-6z" stroke="#5e5e5e" stroke-width="3" fill="#fff"/><path d="M678.5 769.33c0-1.84 1.5-3.33 3.33-3.33h1.34c1.84 0 3.33 1.5 3.33 3.33 0 1.84-1.5 3.34-3.33 3.34h-1.34c-1.84 0-3.33-1.5-3.33-3.34zM698.5 769.33c0-1.84 1.5-3.33 3.33-3.33h1.34c1.84 0 3.33 1.5 3.33 3.33 0 1.84-1.5 3.34-3.33 3.34h-1.34c-1.84 0-3.33-1.5-3.33-3.34zM718.5 769.33c0-1.84 1.5-3.33 3.33-3.33h1.34c1.84 0 3.33 1.5 3.33 3.33 0 1.84-1.5 3.34-3.33 3.34h-1.34c-1.84 0-3.33-1.5-3.33-3.34zM738.5 769.33c0-1.84 1.5-3.33 3.33-3.33h1.34c1.84 0 3.33 1.5 3.33 3.33 0 1.84-1.5 3.34-3.33 3.34h-1.34c-1.84 0-3.33-1.5-3.33-3.34zM758.5 769.33c0-1.84 1.5-3.33 3.33-3.33h1.34c1.84 0 3.33 1.5 3.33 3.33 0 1.84-1.5 3.34-3.33 3.34h-1.34c-1.84 0-3.33-1.5-3.33-3.34zM778.5 769.33c0-1.84 1.5-3.33 3.33-3.33h1.34c1.84 0 3.33 1.5 3.33 3.33 0 1.84-1.5 3.34-3.33 3.34h-1.34c-1.84 0-3.33-1.5-3.33-3.34zM798.5 769.33c0-1.84 1.5-3.33 3.33-3.33h1.34c1.84 0 3.33 1.5 3.33 3.33 0 1.84-1.5 3.34-3.33 3.34h-1.34c-1.84 0-3.33-1.5-3.33-3.34zM818.5 769.33c0-1.84 1.5-3.33 3.33-3.33h1.34c1.84 0 3.33 1.5 3.33 3.33 0 1.84-1.5 3.34-3.33 3.34h-1.34c-1.84 0-3.33-1.5-3.33-3.34z" stroke="#5e5e5e" stroke-width="3" fill="#fff"/><path d="M676.5 758.33c-3.3 0-6-2.68-6-6V719c0-3.3 2.7-6 6-6s6 2.7 6 6v33.33c0 3.32-2.7 6-6 6z" stroke="#000" stroke-opacity="0" stroke-width="3" fill="#fff" fill-opacity="0"/><use xlink:href="#v" transform="matrix(6.123233995736766e-17,-1,1,6.123233995736766e-17,675.5,753.3333333333335) translate(7.259259259259263 10.666666666666664)"/><path d="M696.5 758.33c-3.3 0-6-2.68-6-6V719c0-3.3 2.7-6 6-6s6 2.7 6 6v33.33c0 3.32-2.7 6-6 6z" stroke="#000" stroke-opacity="0" stroke-width="3" fill="#fff" fill-opacity="0"/><use xlink:href="#w" transform="matrix(6.123233995736766e-17,-1,1,6.123233995736766e-17,695.5,753.3333333333333) translate(9.851851851851855 10.666666666666664)"/><path d="M716.5 759.33c-3.3 0-6-2.68-6-6V720c0-3.3 2.7-6 6-6s6 2.7 6 6v33.33c0 3.32-2.7 6-6 6z" stroke="#000" stroke-opacity="0" stroke-width="3" fill="#fff" fill-opacity="0"/><use xlink:href="#f" transform="matrix(6.123233995736766e-17,-1,1,6.123233995736766e-17,715.5,754.3333333333333) translate(4.7037037037037095 10.666666666666664)"/><path d="M736.5 760.33c-3.3 0-6-2.68-6-6V721c0-3.3 2.7-6 6-6s6 2.7 6 6v33.33c0 3.32-2.7 6-6 6z" stroke="#000" stroke-opacity="0" stroke-width="3" fill="#fff" fill-opacity="0"/><use xlink:href="#x" transform="matrix(6.123233995736766e-17,-1,1,6.123233995736766e-17,735.5,755.3333333333333) translate(6.148148148148152 10.666666666666664)"/><path d="M756.5 762.33c-3.3 0-6-2.68-6-6V723c0-3.3 2.7-6 6-6s6 2.7 6 6v33.33c0 3.32-2.7 6-6 6z" stroke="#000" stroke-opacity="0" stroke-width="3" fill="#fff" fill-opacity="0"/><use xlink:href="#w" transform="matrix(6.123233995736766e-17,-1,1,6.123233995736766e-17,755.5,757.3333333333333) translate(9.851851851851855 10.666666666666664)"/><path d="M776.5 762.33c-3.3 0-6-2.68-6-6V723c0-3.3 2.7-6 6-6s6 2.7 6 6v33.33c0 3.32-2.7 6-6 6z" stroke="#000" stroke-opacity="0" stroke-width="3" fill="#fff" fill-opacity="0"/><use xlink:href="#g" transform="matrix(6.123233995736766e-17,-1,1,6.123233995736766e-17,775.5,757.3333333333333) translate(3.2222222222222285 10.666666666666664)"/><path d="M796.5 761.33c-3.3 0-6-2.68-6-6V722c0-3.3 2.7-6 6-6s6 2.7 6 6v33.33c0 3.32-2.7 6-6 6z" stroke="#000" stroke-opacity="0" stroke-width="3" fill="#fff" fill-opacity="0"/><use xlink:href="#g" transform="matrix(6.123233995736766e-17,-1,1,6.123233995736766e-17,795.5,756.3333333333333) translate(3.2222222222222285 10.666666666666664)"/><path d="M816.5 763.33c-3.3 0-6-2.68-6-6V724c0-3.3 2.7-6 6-6s6 2.7 6 6v33.33c0 3.32-2.7 6-6 6z" stroke="#000" stroke-opacity="0" stroke-width="3" fill="#fff" fill-opacity="0"/><use xlink:href="#y" transform="matrix(6.123233995736766e-17,-1,1,6.123233995736766e-17,815.5,758.3333333333333) translate(8.759259259259263 10.666666666666664)"/><path d="M848.5 766c0-3.3 2.7-6 6-6h123c3.3 0 6 2.7 6 6v8c0 3.3-2.7 6-6 6h-123c-3.3 0-6-2.7-6-6z" stroke="#5e5e5e" stroke-width="3" fill="#fff"/><path d="M863.5 769.33c0-1.84 1.5-3.33 3.33-3.33h1.34c1.84 0 3.33 1.5 3.33 3.33 0 1.84-1.5 3.34-3.33 3.34h-1.34c-1.84 0-3.33-1.5-3.33-3.34zM883.5 769.33c0-1.84 1.5-3.33 3.33-3.33h1.34c1.84 0 3.33 1.5 3.33 3.33 0 1.84-1.5 3.34-3.33 3.34h-1.34c-1.84 0-3.33-1.5-3.33-3.34zM903.5 769.33c0-1.84 1.5-3.33 3.33-3.33h1.34c1.84 0 3.33 1.5 3.33 3.33 0 1.84-1.5 3.34-3.33 3.34h-1.34c-1.84 0-3.33-1.5-3.33-3.34zM923.5 769.33c0-1.84 1.5-3.33 3.33-3.33h1.34c1.84 0 3.33 1.5 3.33 3.33 0 1.84-1.5 3.34-3.33 3.34h-1.34c-1.84 0-3.33-1.5-3.33-3.34zM943.5 769.33c0-1.84 1.5-3.33 3.33-3.33h1.34c1.84 0 3.33 1.5 3.33 3.33 0 1.84-1.5 3.34-3.33 3.34h-1.34c-1.84 0-3.33-1.5-3.33-3.34zM963.5 769.33c0-1.84 1.5-3.33 3.33-3.33h1.34c1.84 0 3.33 1.5 3.33 3.33 0 1.84-1.5 3.34-3.33 3.34h-1.34c-1.84 0-3.33-1.5-3.33-3.34z" stroke="#5e5e5e" stroke-width="3" fill="#fff"/><path d="M861.5 767.33c-3.3 0-6-2.68-6-6V728c0-3.3 2.7-6 6-6s6 2.7 6 6v33.33c0 3.32-2.7 6-6 6z" stroke="#000" stroke-opacity="0" stroke-width="3" fill="#fff" fill-opacity="0"/><use xlink:href="#z" transform="matrix(6.123233995736766e-17,-1,1,6.123233995736766e-17,860.5,762.3333333333333) translate(7.259259259259263 10.666666666666664)"/><path d="M881.5 768.33c-3.3 0-6-2.68-6-6V729c0-3.3 2.7-6 6-6s6 2.7 6 6v33.33c0 3.32-2.7 6-6 6z" stroke="#000" stroke-opacity="0" stroke-width="3" fill="#fff" fill-opacity="0"/><use xlink:href="#A" transform="matrix(6.123233995736766e-17,-1,1,6.123233995736766e-17,880.5,763.3333333333333) translate(7.259259259259263 10.666666666666664)"/><path d="M901.5 764.33c-3.3 0-6-2.68-6-6V725c0-3.3 2.7-6 6-6s6 2.7 6 6v33.33c0 3.32-2.7 6-6 6z" stroke="#000" stroke-opacity="0" stroke-width="3" fill="#fff" fill-opacity="0"/><use xlink:href="#B" transform="matrix(6.123233995736766e-17,-1,1,6.123233995736766e-17,900.5,759.3333333333333) translate(3.5555555555555607 10.666666666666664)"/><path d="M921.5 763.33c-3.3 0-6-2.68-6-6V724c0-3.3 2.7-6 6-6s6 2.7 6 6v33.33c0 3.32-2.7 6-6 6z" stroke="#000" stroke-opacity="0" stroke-width="3" fill="#fff" fill-opacity="0"/><use xlink:href="#C" transform="matrix(6.123233995736766e-17,-1,1,6.123233995736766e-17,920.5,758.3333333333333) translate(3.5555555555555607 10.666666666666664)"/><path d="M941.5 764.33c-3.3 0-6-2.68-6-6V725c0-3.3 2.7-6 6-6s6 2.7 6 6v33.33c0 3.32-2.7 6-6 6z" stroke="#000" stroke-opacity="0" stroke-width="3" fill="#fff" fill-opacity="0"/><use xlink:href="#D" transform="matrix(6.123233995736766e-17,-1,1,6.123233995736766e-17,940.4999999999999,759.3333333333333) translate(3.5555555555555607 10.666666666666664)"/><path d="M961.5 764.33c-3.3 0-6-2.68-6-6V725c0-3.3 2.7-6 6-6s6 2.7 6 6v33.33c0 3.32-2.7 6-6 6z" stroke="#000" stroke-opacity="0" stroke-width="3" fill="#fff" fill-opacity="0"/><use xlink:href="#E" transform="matrix(6.123233995736766e-17,-1,1,6.123233995736766e-17,960.5,759.3333333333333) translate(3.5555555555555607 10.666666666666664)"/><path d="M616.5 166c0-3.3 2.7-6 6-6h148c3.3 0 6 2.7 6 6v208c0 3.3-2.7 6-6 6h-148c-3.3 0-6-2.7-6-6z" stroke="#5e5e5e" stroke-width="3" fill="#fff"/><use xlink:href="#F" transform="matrix(1,0,0,1,621.5,165) translate(2.345679012345684 96.52777777777777)"/><use xlink:href="#G" transform="matrix(1,0,0,1,621.5,165) translate(62.65432098765432 96.52777777777777)"/><use xlink:href="#H" transform="matrix(1,0,0,1,621.5,165) translate(99.62962962962963 96.52777777777777)"/><use xlink:href="#I" transform="matrix(1,0,0,1,621.5,165) translate(38.641975308641975 123.19444444444446)"/><path d="M1179 721.83h-97.5c-3.3 0-6-2.7-6-6V464.5c0-3.3-2.7-6-6-6H918.83c-3.3 0-6 2.7-6 6v33" stroke="#834187" stroke-width="2" fill="none"/><path d="M1180 722.83h-1.03v-2h1.03zM913.83 498.5h-2v-1.03h2z" fill="#834187"/><path d="M1179 743.03h-127.5c-3.3 0-6-2.7-6-6V486c0-3.3-2.7-6-6-6H932.17c-3.32 0-6 2.7-6 6v11.5" stroke="#b2b2b2" stroke-width="2" fill="none"/><path d="M1180 744.03h-1.03v-2h1.03zM927.17 498.5h-2v-1.03h2z" fill="#b2b2b2"/><path d="M1181.5 537c0-3.3 2.7-6 6-6h248c3.3 0 6 2.7 6 6v240.67c0 3.3-2.7 6-6 6h-248c-3.3 0-6-2.7-6-6z" stroke="#5e5e5e" stroke-width="3" fill="#fff"/><use xlink:href="#J" transform="matrix(1,0,0,1,1196.5,546) translate(0 17.77777777777778)"/><use xlink:href="#K" transform="matrix(1,0,0,1,1196.5,546) translate(0 44.44444444444444)"/><path d="M1195.5 701.67c0-1.48 1.2-2.67 2.67-2.67h1.33c1.47 0 2.67 1.2 2.67 2.67s-1.2 2.66-2.67 2.66h-1.33c-1.48 0-2.67-1.2-2.67-2.66zM1195.5 721.67c0-1.48 1.2-2.67 2.67-2.67h1.33c1.47 0 2.67 1.2 2.67 2.67s-1.2 2.66-2.67 2.66h-1.33c-1.48 0-2.67-1.2-2.67-2.66zM1195.5 741.67c0-1.48 1.2-2.67 2.67-2.67h1.33c1.47 0 2.67 1.2 2.67 2.67s-1.2 2.66-2.67 2.66h-1.33c-1.48 0-2.67-1.2-2.67-2.66zM1195.5 761.67c0-1.48 1.2-2.67 2.67-2.67h1.33c1.47 0 2.67 1.2 2.67 2.67s-1.2 2.66-2.67 2.66h-1.33c-1.48 0-2.67-1.2-2.67-2.66z" stroke="#5e5e5e" stroke-width="3" fill="#fff"/><path d="M1201.5 697c0-3.3 2.7-6 6-6h32c3.3 0 6 2.7 6 6v8c0 3.3-2.7 6-6 6h-32c-3.3 0-6-2.7-6-6z" stroke="#000" stroke-opacity="0" stroke-width="3" fill="#fff" fill-opacity="0"/><use xlink:href="#g" transform="matrix(1,0,0,1,1206.5,696) translate(2.2222222222222285 10.666666666666664)"/><path d="M1199.5 717c0-3.3 2.7-6 6-6h32c3.3 0 6 2.7 6 6v8c0 3.3-2.7 6-6 6h-32c-3.3 0-6-2.7-6-6z" stroke="#000" stroke-opacity="0" stroke-width="3" fill="#fff" fill-opacity="0"/><use xlink:href="#L" transform="matrix(1,0,0,1,1204.5,716) translate(6.648148148148152 10.666666666666664)"/><path d="M1198.5 737c0-3.3 2.7-6 6-6h32c3.3 0 6 2.7 6 6v8c0 3.3-2.7 6-6 6h-32c-3.3 0-6-2.7-6-6z" stroke="#000" stroke-opacity="0" stroke-width="3" fill="#fff" fill-opacity="0"/><use xlink:href="#M" transform="matrix(1,0,0,1,1203.5,736) translate(6.648148148148152 10.666666666666664)"/><path d="M1197.5 757c0-3.3 2.7-6 6-6h32c3.3 0 6 2.7 6 6v8c0 3.3-2.7 6-6 6h-32c-3.3 0-6-2.7-6-6z" stroke="#000" stroke-opacity="0" stroke-width="3" fill="#fff" fill-opacity="0"/><use xlink:href="#N" transform="matrix(1,0,0,1,1202.5,756) translate(2.962962962962969 10.666666666666664)"/><path d="M1339.5 577.67h60v51h-60z" fill="none"/><path d="M1341.36 628.67v-5c17.34 0 17.34-8.1 0-8.1 17.34 0 17.34-8.17.06-8.12 17.4 0 17.4-8.1 0-8.1 17.28 0 17.28-8.12-.06-8.12 17.34-.05 0-.05 0-.05 17.34 0 17.34-8.1 0-8.1v-5.4m16.14 5.1v40.8m.6-40.8v40.8" stroke="#5e5e5e" stroke-width="3" fill="none"/><path d="M1363.5 577.67v15.3m3 2.55c0 1.4-1.34 2.55-3 2.55s-3-1.15-3-2.55 1.34-2.55 3-2.55 3 1.14 3 2.55m15-17.85v15.3m3 2.55c0 1.4-1.34 2.55-3 2.55s-3-1.15-3-2.55 1.34-2.55 3-2.55 3 1.14 3 2.55m-12 17.85v15.3m3-17.85c0 1.4-1.34 2.55-3 2.55s-3-1.15-3-2.55 1.34-2.55 3-2.55 3 1.14 3 2.55m-1.44-1.8l4.44-10.95" stroke="#5e5e5e" stroke-width="3" fill="#fff"/><path d="M1299.5 591c0-3.3 2.7-6 6-6h28c3.3 0 6 2.7 6 6v22.33c0 3.32-2.7 6-6 6h-28c-3.3 0-6-2.68-6-6z" stroke="#000" stroke-opacity="0" stroke-width="3" fill="#fff" fill-opacity="0"/><use xlink:href="#O" transform="matrix(1,0,0,1,1304.5,590) translate(0.8333333333333339 19.34027777777778)"/><path d="M1339.5 674.33h60v51h-60z" fill="none"/><path d="M1341.36 725.33v-5c17.34 0 17.34-8.1 0-8.1 17.34 0 17.34-8.16.06-8.1 17.4 0 17.4-8.12 0-8.12 17.28 0 17.28-8.1-.06-8.1 17.34-.05 0-.05 0-.05 17.34 0 17.34-8.1 0-8.1v-5.42m16.14 5.1v40.8m.6-40.8v40.8" stroke="#5e5e5e" stroke-width="3" fill="none"/><path d="M1363.5 674.33v15.3m3 2.55c0 1.4-1.34 2.55-3 2.55s-3-1.14-3-2.55c0-1.4 1.34-2.55 3-2.55s3 1.15 3 2.55m15-17.85v15.3m3 2.55c0 1.4-1.34 2.55-3 2.55s-3-1.14-3-2.55c0-1.4 1.34-2.55 3-2.55s3 1.15 3 2.55m-12 17.85v15.3m3-17.85c0 1.4-1.34 2.55-3 2.55s-3-1.14-3-2.55c0-1.4 1.34-2.55 3-2.55s3 1.15 3 2.55m-1.44-1.78l4.44-10.97" stroke="#5e5e5e" stroke-width="3" fill="#fff"/><path d="M1299.5 687.67c0-3.32 2.7-6 6-6h28c3.3 0 6 2.68 6 6V710c0 3.3-2.7 6-6 6h-28c-3.3 0-6-2.7-6-6z" stroke="#000" stroke-opacity="0" stroke-width="3" fill="#fff" fill-opacity="0"/><use xlink:href="#P" transform="matrix(1,0,0,1,1304.5,686.6666666666663) translate(0.8333333333333339 19.34027777777778)"/><path d="M1179 701.67h-51.5c-3.3 0-6 2.68-6 6v9.16c-2.76 0-5 2.23-5 5 0 2.76 2.24 5 5 5v11.2c-2.76 0-5 2.24-5 5s2.24 5 5 5v87.47c0 3.3-2.7 6-6 6H808.83c-3.3 0-6-2.7-6-6v-33" stroke="#5e5e5e" stroke-width="2" fill="none"/><path d="M1180 702.67h-1.03v-2h1.03zM803.83 802.53h-2v-1.03h2z" fill="#5e5e5e"/><path d="M1179 764.33h-21.5c-3.3 0-6 2.7-6 6V874c0 3.3-2.7 6-6 6h-374c-3.3 0-6-2.7-6-6v-71.5" stroke="#c92d39" stroke-width="2" fill="none"/><path d="M1180 765.33h-1.03v-2h1.03zM766.5 802.53h-2v-1.03h2z" fill="#c92d39"/><path d="M645.5 356.5c0-1.38 1.12-2.5 2.5-2.5s2.5 1.12 2.5 2.5v3c0 1.38-1.12 2.5-2.5 2.5s-2.5-1.12-2.5-2.5zM665.5 356.5c0-1.38 1.12-2.5 2.5-2.5s2.5 1.12 2.5 2.5v3c0 1.38-1.12 2.5-2.5 2.5s-2.5-1.12-2.5-2.5zM685.5 356.5c0-1.38 1.12-2.5 2.5-2.5s2.5 1.12 2.5 2.5v3c0 1.38-1.12 2.5-2.5 2.5s-2.5-1.12-2.5-2.5zM705.5 356.5c0-1.38 1.12-2.5 2.5-2.5s2.5 1.12 2.5 2.5v3c0 1.38-1.12 2.5-2.5 2.5s-2.5-1.12-2.5-2.5zM725.5 356.5c0-1.38 1.12-2.5 2.5-2.5s2.5 1.12 2.5 2.5v3c0 1.38-1.12 2.5-2.5 2.5s-2.5-1.12-2.5-2.5zM745.5 356.5c0-1.38 1.12-2.5 2.5-2.5s2.5 1.12 2.5 2.5v3c0 1.38-1.12 2.5-2.5 2.5s-2.5-1.12-2.5-2.5z" stroke="#5e5e5e" stroke-width="3" fill="#fff"/><path d="M653.17 300c3.3 0 6 2.7 6 6v51c0 3.3-2.7 6-6 6h-2.67c-3.3 0-6-2.7-6-6v-51c0-3.3 2.7-6 6-6z" stroke="#000" stroke-opacity="0" stroke-width="3" fill="#fff" fill-opacity="0"/><use xlink:href="#g" transform="matrix(6.123233995736766e-17,1,-1,6.123233995736766e-17,654.1666666666669,305) translate(11.722222222222229 10.666666666666664)"/><path d="M673.17 300c3.3 0 6 2.7 6 6v51c0 3.3-2.7 6-6 6h-2.67c-3.3 0-6-2.7-6-6v-51c0-3.3 2.7-6 6-6z" stroke="#000" stroke-opacity="0" stroke-width="3" fill="#fff" fill-opacity="0"/><use xlink:href="#N" transform="matrix(6.123233995736766e-17,1,-1,6.123233995736766e-17,674.1666666666669,305) translate(12.462962962962969 10.666666666666664)"/><path d="M693.17 298c3.3 0 6 2.7 6 6v51c0 3.3-2.7 6-6 6h-2.67c-3.3 0-6-2.7-6-6v-51c0-3.3 2.7-6 6-6z" stroke="#000" stroke-opacity="0" stroke-width="3" fill="#fff" fill-opacity="0"/><use xlink:href="#Q" transform="matrix(6.123233995736766e-17,1,-1,6.123233995736766e-17,694.1666666666669,303) translate(9.481481481481488 10.666666666666664)"/><path d="M713.17 298c3.3 0 6 2.7 6 6v51c0 3.3-2.7 6-6 6h-2.67c-3.3 0-6-2.7-6-6v-51c0-3.3 2.7-6 6-6z" stroke="#000" stroke-opacity="0" stroke-width="3" fill="#fff" fill-opacity="0"/><use xlink:href="#R" transform="matrix(6.123233995736766e-17,1,-1,6.123233995736766e-17,714.1666666666669,303) translate(9.481481481481488 10.666666666666664)"/><path d="M733.17 302c3.3 0 6 2.7 6 6v51c0 3.3-2.7 6-6 6h-2.67c-3.3 0-6-2.7-6-6v-51c0-3.3 2.7-6 6-6z" stroke="#000" stroke-opacity="0" stroke-width="3" fill="#fff" fill-opacity="0"/><use xlink:href="#S" transform="matrix(6.123233995736766e-17,1,-1,6.123233995736766e-17,734.1666666666669,307) translate(12.81481481481482 10.666666666666664)"/><path d="M753.17 305c3.3 0 6 2.7 6 6v51c0 3.3-2.7 6-6 6h-2.67c-3.3 0-6-2.7-6-6v-51c0-3.3 2.7-6 6-6z" stroke="#000" stroke-opacity="0" stroke-width="3" fill="#fff" fill-opacity="0"/><use xlink:href="#T" transform="matrix(6.123233995736766e-17,1,-1,6.123233995736766e-17,754.1666666666669,310) translate(17.259259259259263 10.666666666666664)"/><path d="M753.5 497.5v-115" stroke="#0c7cba" stroke-width="2" fill="none"/><path d="M754.5 498.5h-2v-1.03h2zM754.5 382.53h-2v-1.03h2z" fill="#0c7cba"/><path d="M666.83 497.5V446c0-3.3-2.68-6-6-6h-9.33c-3.3 0-6-2.7-6-6v-51.5" stroke="#5e5e5e" stroke-width="2" fill="none"/><path d="M667.83 498.5h-2v-1.03h2zM646.5 382.53h-2v-1.03h2z" fill="#5e5e5e"/><path d="M666.83 382.5v33c0 3.3-2.68 6-6 6H650.5c0-2.76-2.24-5-5-5s-5 2.24-5 5h-93c-3.3 0-6 2.7-6 6v408c0 3.3 2.7 6 6 6h150.67c3.3 0 6-2.7 6-6v-33" stroke="#c92d39" stroke-width="2" fill="none"/><path d="M667.83 382.53h-2v-1.03h2zM705.17 802.53h-2v-1.03h2z" fill="#c92d39"/><path d="M726.83 382.5V404c0 3.3-2.68 6-6 6h-30.66c-3.32 0-6 2.7-6 6v81.5" stroke="#fcc438" stroke-width="2" fill="none"/><path d="M727.83 382.53h-2v-1.03h2zM685.17 498.5h-2v-1.03h2z" fill="#fcc438"/><path d="M706.83 382.5V405c-2.76 0-5 2.24-5 5s2.24 5 5 5v9c0 3.3 2.7 6 6 6h10.67c3.3 0 6 2.7 6 6v61.5" stroke="#7ab648" stroke-width="2" fill="none"/><path d="M707.83 382.53h-2v-1.03h2zM730.5 498.5h-2v-1.03h2z" fill="#7ab648"/><path d="M689.5 382.5V405c-2.76 0-5 2.24-5 5s2.24 5 5 5v29c0 3.3 2.7 6 6 6h9.33c3.32 0 6 2.7 6 6v41.5" stroke="#ef8d22" stroke-width="2" fill="none"/><path d="M690.5 382.53h-2v-1.03h2zM711.83 498.5h-2v-1.03h2z" fill="#ef8d22"/><path d="M384 562.67h81.5c3.3 0 6 2.68 6 6v166.66c0 3.32 2.7 6 6 6h59c0-2.76 2.24-5 5-5s5 2.24 5 5H579" stroke="#c92d39" stroke-width="2" fill="none"/><path d="M384.03 563.67H383v-2h1.03zM580 742.33h-1.03v-2H580z" fill="#c92d39"/><path d="M384 694.67h51.5c3.3 0 6 2.68 6 6V762c0 3.3 2.7 6 6 6h89c0-2.76 2.24-5 5-5s5 2.24 5 5H579" stroke="#5e5e5e" stroke-width="2" fill="none"/><path d="M384.03 695.67H383v-2h1.03zM580 769h-1.03v-2H580z" fill="#5e5e5e"/><path d="M580 742.67c0-3.32 2.7-6 6-6h47c3.3 0 6 2.68 6 6v19.66c0 3.32-2.7 6-6 6h-47c-3.3 0-6-2.68-6-6z" stroke="#000" stroke-opacity="0" stroke-width="3" fill="#fff" fill-opacity="0"/><use xlink:href="#U" transform="matrix(1,0,0,1,585,741.6666666666669) translate(16.351851851851862 10.666666666666655)"/><use xlink:href="#V" transform="matrix(1,0,0,1,585,741.6666666666669) translate(4.129629629629655 26.666666666666636)"/><path d="M1601.88 799.92c0-3.32 2.68-6 6-6h142c3.3 0 6 2.68 6 6v48c0 3.3-2.7 6-6 6h-142c-3.32 0-6-2.7-6-6z" stroke="#5e5e5e" stroke-width="3" fill="#fff"/><path d="M1663.88 823.92c0 11.04-8.96 20-20 20-11.05 0-20-8.96-20-20 0-11.05 8.95-20 20-20 11.04 0 20 8.95 20 20z" stroke="#5e5e5e" stroke-width="3" fill="#fff"/><path d="M1658.5 824.02c0 8-6.5 14.5-14.5 14.5s-14.5-6.5-14.5-14.5 6.5-14.5 14.5-14.5 14.5 6.5 14.5 14.5z" stroke="#5e5e5e" stroke-width="3" fill="#fff"/><path d="M1637.7 837.58l19.52-20.76" stroke="#5e5e5e" stroke-width="2" fill="none"/><path d="M1638.44 838.25l-.45.47-1.98-.82.96-1.02zM1657.88 816.02l.45 1.08-.4.42-1.46-1.37.83-.88z" fill="#5e5e5e"/><path d="M1638.06 836.82l18.35-19.54M1638.08 836.8l-.7.75M1656.4 817.3l.7-.74M1633.44 834.67l20.48-21.8" stroke="#5e5e5e" stroke-width="2" fill="none"/><path d="M1634.2 835.34l-.65.67-.87-.66-.56-.72.6-.65zM1655.32 812.7l.06.07-.75.8-1.46-1.37.63-.67z" fill="#5e5e5e"/><path d="M1678.88 792.42" stroke="#5e5e5e" stroke-width="2" fill="none"/><path fill="#5e5e5e"/><path fill="#5e5e5e"/><path d="M1729.88 824.92c0 11.04-8.96 20-20 20-11.05 0-20-8.96-20-20 0-11.05 8.95-20 20-20 11.04 0 20 8.95 20 20z" stroke="#5e5e5e" stroke-width="3" fill="#fff"/><path d="M1724.5 825.02c0 8-6.5 14.5-14.5 14.5s-14.5-6.5-14.5-14.5 6.5-14.5 14.5-14.5 14.5 6.5 14.5 14.5z" stroke="#5e5e5e" stroke-width="3" fill="#fff"/><path d="M1703.7 838.58l19.52-20.76" stroke="#5e5e5e" stroke-width="2" fill="none"/><path d="M1704.44 839.25l-.45.47-1.98-.82.96-1.02zM1723.88 817.02l.45 1.08-.4.42-1.46-1.37.83-.88z" fill="#5e5e5e"/><path d="M1704.06 837.82l18.35-19.54M1704.08 837.8l-.7.75M1722.4 818.3l.7-.74M1699.44 835.67l20.48-21.8" stroke="#5e5e5e" stroke-width="2" fill="none"/><path d="M1700.2 836.34l-.65.67-.87-.66-.56-.72.6-.65zM1721.32 813.7l.06.07-.75.8-1.46-1.37.63-.67z" fill="#5e5e5e"/><path d="M1601.88 476.42c0-3.32 2.68-6 6-6h142c3.3 0 6 2.68 6 6v48c0 3.3-2.7 6-6 6h-142c-3.32 0-6-2.7-6-6z" stroke="#5e5e5e" stroke-width="3" fill="#fff"/><path d="M1663.88 500.42c0 11.04-8.96 20-20 20-11.05 0-20-8.96-20-20 0-11.05 8.95-20 20-20 11.04 0 20 8.95 20 20z" stroke="#5e5e5e" stroke-width="3" fill="#fff"/><path d="M1658.5 500.52c0 8-6.5 14.5-14.5 14.5s-14.5-6.5-14.5-14.5 6.5-14.5 14.5-14.5 14.5 6.5 14.5 14.5z" stroke="#5e5e5e" stroke-width="3" fill="#fff"/><path d="M1637.7 514.08l19.52-20.76" stroke="#5e5e5e" stroke-width="2" fill="none"/><path d="M1638.44 514.75l-.45.47-1.98-.82.96-1.02zM1657.88 492.52l.45 1.08-.4.42-1.46-1.37.83-.88z" fill="#5e5e5e"/><path d="M1638.06 513.32l18.35-19.54M1638.08 513.3l-.7.75M1656.4 493.8l.7-.74M1633.44 511.17l20.48-21.8" stroke="#5e5e5e" stroke-width="2" fill="none"/><path d="M1634.2 511.84l-.65.67-.87-.66-.56-.72.6-.65zM1655.32 489.2l.06.07-.75.8-1.46-1.37.63-.67z" fill="#5e5e5e"/><path d="M1678.88 468.92" stroke="#5e5e5e" stroke-width="2" fill="none"/><path fill="#5e5e5e"/><path fill="#5e5e5e"/><path d="M1729.88 501.42c0 11.04-8.96 20-20 20-11.05 0-20-8.96-20-20 0-11.05 8.95-20 20-20 11.04 0 20 8.95 20 20z" stroke="#5e5e5e" stroke-width="3" fill="#fff"/><path d="M1724.5 501.52c0 8-6.5 14.5-14.5 14.5s-14.5-6.5-14.5-14.5 6.5-14.5 14.5-14.5 14.5 6.5 14.5 14.5z" stroke="#5e5e5e" stroke-width="3" fill="#fff"/><path d="M1703.7 515.08l19.52-20.76" stroke="#5e5e5e" stroke-width="2" fill="none"/><path d="M1704.44 515.75l-.45.47-1.98-.82.96-1.02zM1723.88 493.52l.45 1.08-.4.42-1.46-1.37.83-.88z" fill="#5e5e5e"/><path d="M1704.06 514.32l18.35-19.54M1704.08 514.3l-.7.75M1722.4 494.8l.7-.74M1699.44 512.17l20.48-21.8" stroke="#5e5e5e" stroke-width="2" fill="none"/><path d="M1700.2 512.84l-.65.67-.87-.66-.56-.72.6-.65zM1721.32 490.2l.06.07-.75.8-1.46-1.37.63-.67z" fill="#5e5e5e"/><path d="M1656.2 531.92" stroke="#5e5e5e" stroke-width="2" fill="none"/><path fill="#5e5e5e"/><path fill="#5e5e5e"/><path d="M1656.2 549.42v-16.5M1656.2 549.4v1.02" stroke="#5e5e5e" stroke-width="2" fill="none"/><path d="M1657.2 532.94h-2v-1.02h2z" fill="#5e5e5e"/><path d="M1698.88 547.92v-16.5M1698.88 547.9v1.02M1698.88 531.44v-1.02M1657.2 550.42h40.68M1657.23 550.42h-1.02M1697.85 550.42h1.03" stroke="#5e5e5e" stroke-width="2" fill="none"/><path d="M1601.88 556.92c0-3.32 2.68-6 6-6h142c3.3 0 6 2.68 6 6v48c0 3.3-2.7 6-6 6h-142c-3.32 0-6-2.7-6-6z" stroke="#5e5e5e" stroke-width="3" fill="#fff"/><path d="M1663.88 580.92c0 11.04-8.96 20-20 20-11.05 0-20-8.96-20-20 0-11.05 8.95-20 20-20 11.04 0 20 8.95 20 20z" stroke="#5e5e5e" stroke-width="3" fill="#fff"/><path d="M1658.5 581.02c0 8-6.5 14.5-14.5 14.5s-14.5-6.5-14.5-14.5 6.5-14.5 14.5-14.5 14.5 6.5 14.5 14.5z" stroke="#5e5e5e" stroke-width="3" fill="#fff"/><path d="M1637.7 594.58l19.52-20.76" stroke="#5e5e5e" stroke-width="2" fill="none"/><path d="M1638.44 595.25l-.45.47-1.98-.82.96-1.02zM1657.88 573.02l.45 1.08-.4.42-1.46-1.37.83-.88z" fill="#5e5e5e"/><path d="M1638.06 593.82l18.35-19.54M1638.08 593.8l-.7.75M1656.4 574.3l.7-.74M1633.44 591.67l20.48-21.8" stroke="#5e5e5e" stroke-width="2" fill="none"/><path d="M1634.2 592.34l-.65.67-.87-.66-.56-.72.6-.65zM1655.32 569.7l.06.07-.75.8-1.46-1.37.63-.67z" fill="#5e5e5e"/><path d="M1678.88 549.42" stroke="#5e5e5e" stroke-width="2" fill="none"/><path fill="#5e5e5e"/><path fill="#5e5e5e"/><path d="M1729.88 581.92c0 11.04-8.96 20-20 20-11.05 0-20-8.96-20-20 0-11.05 8.95-20 20-20 11.04 0 20 8.95 20 20z" stroke="#5e5e5e" stroke-width="3" fill="#fff"/><path d="M1724.5 582.02c0 8-6.5 14.5-14.5 14.5s-14.5-6.5-14.5-14.5 6.5-14.5 14.5-14.5 14.5 6.5 14.5 14.5z" stroke="#5e5e5e" stroke-width="3" fill="#fff"/><path d="M1703.7 595.58l19.52-20.76" stroke="#5e5e5e" stroke-width="2" fill="none"/><path d="M1704.44 596.25l-.45.47-1.98-.82.96-1.02zM1723.88 574.02l.45 1.08-.4.42-1.46-1.37.83-.88z" fill="#5e5e5e"/><path d="M1704.06 594.82l18.35-19.54M1704.08 594.8l-.7.75M1722.4 575.3l.7-.74M1699.44 592.67l20.48-21.8" stroke="#5e5e5e" stroke-width="2" fill="none"/><path d="M1700.2 593.34l-.65.67-.87-.66-.56-.72.6-.65zM1721.32 570.7l.06.07-.75.8-1.46-1.37.63-.67z" fill="#5e5e5e"/><path d="M1656.2 612.42" stroke="#5e5e5e" stroke-width="2" fill="none"/><path fill="#5e5e5e"/><path fill="#5e5e5e"/><path d="M1656.2 629.92v-16.5M1656.2 629.9v1.02" stroke="#5e5e5e" stroke-width="2" fill="none"/><path d="M1657.2 613.44h-2v-1.02h2z" fill="#5e5e5e"/><path d="M1698.88 628.42v-16.5M1698.88 628.4v1.02M1698.88 611.94v-1.02M1657.2 630.92h40.68M1657.23 630.92h-1.02M1697.85 630.92h1.03" stroke="#5e5e5e" stroke-width="2" fill="none"/><path d="M1601.88 637.92c0-3.32 2.68-6 6-6h142c3.3 0 6 2.68 6 6v48c0 3.3-2.7 6-6 6h-142c-3.32 0-6-2.7-6-6z" stroke="#5e5e5e" stroke-width="3" fill="#fff"/><path d="M1663.88 661.92c0 11.04-8.96 20-20 20-11.05 0-20-8.96-20-20 0-11.05 8.95-20 20-20 11.04 0 20 8.95 20 20z" stroke="#5e5e5e" stroke-width="3" fill="#fff"/><path d="M1658.5 662.02c0 8-6.5 14.5-14.5 14.5s-14.5-6.5-14.5-14.5 6.5-14.5 14.5-14.5 14.5 6.5 14.5 14.5z" stroke="#5e5e5e" stroke-width="3" fill="#fff"/><path d="M1637.7 675.58l19.52-20.76" stroke="#5e5e5e" stroke-width="2" fill="none"/><path d="M1638.44 676.25l-.45.47-1.98-.82.96-1.02zM1657.88 654.02l.45 1.08-.4.42-1.46-1.37.83-.88z" fill="#5e5e5e"/><path d="M1638.06 674.82l18.35-19.54M1638.08 674.8l-.7.75M1656.4 655.3l.7-.74M1633.44 672.67l20.48-21.8" stroke="#5e5e5e" stroke-width="2" fill="none"/><path d="M1634.2 673.34l-.65.67-.87-.66-.56-.72.6-.65zM1655.32 650.7l.06.07-.75.8-1.46-1.37.63-.67z" fill="#5e5e5e"/><path d="M1678.88 630.42" stroke="#5e5e5e" stroke-width="2" fill="none"/><path fill="#5e5e5e"/><path fill="#5e5e5e"/><path d="M1729.88 662.92c0 11.04-8.96 20-20 20-11.05 0-20-8.96-20-20 0-11.05 8.95-20 20-20 11.04 0 20 8.95 20 20z" stroke="#5e5e5e" stroke-width="3" fill="#fff"/><path d="M1724.5 663.02c0 8-6.5 14.5-14.5 14.5s-14.5-6.5-14.5-14.5 6.5-14.5 14.5-14.5 14.5 6.5 14.5 14.5z" stroke="#5e5e5e" stroke-width="3" fill="#fff"/><path d="M1703.7 676.58l19.52-20.76" stroke="#5e5e5e" stroke-width="2" fill="none"/><path d="M1704.44 677.25l-.45.47-1.98-.82.96-1.02zM1723.88 655.02l.45 1.08-.4.42-1.46-1.37.83-.88z" fill="#5e5e5e"/><path d="M1704.06 675.82l18.35-19.54M1704.08 675.8l-.7.75M1722.4 656.3l.7-.74M1699.44 673.67l20.48-21.8" stroke="#5e5e5e" stroke-width="2" fill="none"/><path d="M1700.2 674.34l-.65.67-.87-.66-.56-.72.6-.65zM1721.32 651.7l.06.07-.75.8-1.46-1.37.63-.67z" fill="#5e5e5e"/><path d="M1656.2 693.42" stroke="#5e5e5e" stroke-width="2" fill="none"/><path fill="#5e5e5e"/><path fill="#5e5e5e"/><path d="M1656.2 710.92v-16.5M1656.2 710.9v1.02" stroke="#5e5e5e" stroke-width="2" fill="none"/><path d="M1657.2 694.44h-2v-1.02h2z" fill="#5e5e5e"/><path d="M1698.88 709.42v-16.5M1698.88 709.4v1.02M1698.88 692.94v-1.02M1657.2 711.92h40.68M1657.23 711.92h-1.02M1697.85 711.92h1.03" stroke="#5e5e5e" stroke-width="2" fill="none"/><path d="M1601.5 719.42c0-3.32 2.7-6 6-6h142c3.3 0 6 2.68 6 6v48c0 3.3-2.7 6-6 6h-142c-3.3 0-6-2.7-6-6z" stroke="#5e5e5e" stroke-width="3" fill="#fff"/><path d="M1663.5 743.42c0 11.04-8.95 20-20 20s-20-8.96-20-20c0-11.05 8.95-20 20-20s20 8.95 20 20z" stroke="#5e5e5e" stroke-width="3" fill="#fff"/><path d="M1658.12 743.52c0 8-6.5 14.5-14.5 14.5s-14.5-6.5-14.5-14.5 6.5-14.5 14.5-14.5 14.5 6.5 14.5 14.5z" stroke="#5e5e5e" stroke-width="3" fill="#fff"/><path d="M1637.32 757.08l19.52-20.76" stroke="#5e5e5e" stroke-width="2" fill="none"/><path d="M1638.06 757.75l-.44.47-1.98-.82.96-1.02zM1657.5 735.52l.45 1.08-.4.42-1.45-1.37.83-.88z" fill="#5e5e5e"/><path d="M1637.7 756.32l18.33-19.54M1637.7 756.3l-.7.75M1656 736.8l.7-.74M1633.07 754.17l20.47-21.8" stroke="#5e5e5e" stroke-width="2" fill="none"/><path d="M1633.8 754.84l-.62.67-.88-.66-.55-.72.6-.65zM1654.95 732.2l.06.07-.75.8-1.46-1.37.63-.67z" fill="#5e5e5e"/><path d="M1678.5 711.92" stroke="#5e5e5e" stroke-width="2" fill="none"/><path fill="#5e5e5e"/><path fill="#5e5e5e"/><path d="M1729.5 744.42c0 11.04-8.95 20-20 20s-20-8.96-20-20c0-11.05 8.95-20 20-20s20 8.95 20 20z" stroke="#5e5e5e" stroke-width="3" fill="#fff"/><path d="M1724.12 744.52c0 8-6.5 14.5-14.5 14.5s-14.5-6.5-14.5-14.5 6.5-14.5 14.5-14.5 14.5 6.5 14.5 14.5z" stroke="#5e5e5e" stroke-width="3" fill="#fff"/><path d="M1703.32 758.08l19.52-20.76" stroke="#5e5e5e" stroke-width="2" fill="none"/><path d="M1704.06 758.75l-.44.47-1.98-.82.96-1.02zM1723.5 736.52l.45 1.08-.4.42-1.45-1.37.83-.88z" fill="#5e5e5e"/><path d="M1703.7 757.32l18.33-19.54M1703.7 757.3l-.7.75M1722 737.8l.7-.74M1699.07 755.17l20.47-21.8" stroke="#5e5e5e" stroke-width="2" fill="none"/><path d="M1699.8 755.84l-.62.67-.88-.66-.55-.72.6-.65zM1720.95 733.2l.06.07-.75.8-1.46-1.37.63-.67z" fill="#5e5e5e"/><path d="M1655.83 774.92" stroke="#5e5e5e" stroke-width="2" fill="none"/><path fill="#5e5e5e"/><path fill="#5e5e5e"/><path d="M1655.83 792.42v-16.5M1655.83 792.4v1.02" stroke="#5e5e5e" stroke-width="2" fill="none"/><path d="M1656.83 775.94h-2v-1.02h2z" fill="#5e5e5e"/><path d="M1698.5 790.92v-16.5M1698.5 790.9v1.02M1698.5 774.44v-1.02M1656.83 793.42h40.67M1656.86 793.42h-1.03M1697.47 793.42h1.03" stroke="#5e5e5e" stroke-width="2" fill="none"/><path d="M2075.86 491.02l-4.83.12-6.5.5-5.9.8-5.35 1.04-4.92 1.27-4.55 1.46-4.22 1.65-3.97 1.8-3.72 1.98-3.52 2.14-3.35 2.3-3.2 2.5-3.05 2.7-2.93 2.9-2.8 3.12-2.7 3.38-2.6 3.66-2.48 4-2.35 4.3-2.22 4.7-2.04 5.1-1.83 5.48-1.56 5.82-1.25 6.03-.9 5.95-.47 5.4-.13 4.22.07 3.63.43 6.6.86 7.27 1.24 7.2 1.53 6.8 1.77 6.25 1.94 5.68 2.06 5.15 2.16 4.67 2.23 4.23 2.3 3.83 2.34 3.5 2.4 3.2 2.46 2.9 2.5 2.7 2.56 2.46 2.62 2.28 2.7 2.1 2.77 1.93 2.87 1.78 2.98 1.65 3.1 1.5 3.26 1.36 3.42 1.24 3.6 1.08 3.85.94 4.1.77 4.43.6 4.78.38 5.2.15 4.77-.12.06 2-4.8.12-5.33-.15-4.88-.4-4.53-.6-4.2-.78-3.95-.96-3.72-1.12-3.52-1.26-3.35-1.4-3.2-1.55-3.07-1.7-2.95-1.83-2.86-2-2.8-2.16-2.7-2.34-2.63-2.54-2.57-2.76-2.52-3-2.47-3.28-2.4-3.58-2.35-3.93-2.28-4.3-2.2-4.77-2.1-5.25-1.98-5.8-1.8-6.35-1.57-6.9-1.25-7.3-.87-7.4-.43-6.67-.07-3.73.13-4.34.5-5.52.9-6.06 1.27-6.14 1.6-5.94 1.86-5.6 2.08-5.2 2.26-4.8 2.4-4.42 2.55-4.08 2.66-3.77 2.78-3.47 2.9-3.22 3-2.98 3.15-2.77 3.3-2.56 3.44-2.38 3.63-2.2 3.83-2.04 4.07-1.86 4.34-1.68 4.66-1.5 5.03-1.3 5.48-1.06 6-.82 6.63-.5 4.88-.12z" fill="#5e5e5e"/><path d="M2076.86 671l-1.03.03-.05-2 1.03-.03zM2076.86 491l-1.03.02-.05-2 1.03-.02z" fill="#5e5e5e"/><path d="M2074.45 669.06l-.4-42.88 2.76-135.18M2074.45 669.03v1.03M2076.8 491.03l.03-1.03M2077.38 512.14h38.46M2077.4 512.14h-1.02M2115.8 512.14h1.03M2076.98 532h38.85M2077 532h-1.02M2115.8 532h1.03M2076.83 570h38.86M2076.86 570h-1.03M2115.67 570h1.02M2076.83 590h38.86M2076.86 590h-1.03M2115.67 590h1.02M2076.83 630h38.86M2076.86 630h-1.03M2115.67 630h1.02M2076.83 650h38.86M2076.86 650h-1.03M2115.67 650h1.02M2116.7 631v18M2116.7 631.03V630M2116.7 648.97V650M2116.83 571v18M2116.83 571.03V570M2116.83 588.97V590M2116.83 511v20M2116.83 511.03V510M2116.83 530.98V532" stroke="#5e5e5e" stroke-width="2" fill="none"/><path d="M1863.33 500.34l2.53 2.53.92 3.4v9.6l.7 2.64 1.8 1.8 2.63.7h49.48v2h-49.73l-3.42-.92-2.53-2.53-.92-3.42v-9.58l-.72-2.64-1.77-1.77-2.65-.7h-101.27v-2h101.53zM2075.18 521v2h-92.7v-2z" fill="#99d2f2"/><path d="M1758.4 501.42h-1.02v-2h1.02zM2076.18 523h-1.02v-2h1.02z" fill="#99d2f2"/><use xlink:href="#W" transform="matrix(1,0,0,1,1921.379026942596,511.3333333333406) translate(0 14.222222222222223)"/><path d="M1922.93 581.75h-60.9l-.13.17h-103.52v-2h102.53l.13-.16h61.9zm151.06-.02l-105.73.02v-2l105.72-.02z" fill="#ffdf71"/><path d="M1758.4 581.92h-1.02v-2h1.02zM2075 581.73h-1.04v-2h1.03z" fill="#ffdf71"/><use xlink:href="#X" transform="matrix(1,0,0,1,1922.9333189957106,570.0650620701864) translate(0 14.222222222222223)"/><path d="M1917.48 644h-49.85l-2.64.7-1.8 1.8-.7 2.63v6.92l-.92 3.4-2.53 2.54-3.42.92h-97.25v-2h97l2.63-.72 1.8-1.77.7-2.65v-6.9l.92-3.43 2.53-2.53 3.42-.92h50.1zm155.73 0H1953v-2h120.23z" fill="#926600"/><path d="M1758.4 662.92h-1.02v-2h1.02zM2074.2 644h-1v-2h1z" fill="#926600"/><use xlink:href="#Y" transform="matrix(1,0,0,1,1917.4755662985885,632.333333333334) translate(0 14.222222222222223)"/><path d="M179 558.67h-33c-3.3 0-6-2.7-6-6V146c0-3.3 2.7-6 6-6h1408.38c3.3 0 6 2.7 6 6v348.42c0 3.3 2.68 6 6 6h33" stroke="#99d2f2" stroke-width="2" fill="none"/><path d="M180 559.67h-1.03v-2H180zM1600.38 501.42h-1.03v-2h1.03z" fill="#99d2f2"/><path d="M179 692h-33c-3.3 0-6 2.7-6 6v266c0 3.3 2.7 6 6 6h1369.5c3.3 0 6-2.7 6-6V668.25c0-3.3 2.7-6 6-6h11.5" stroke="#926600" stroke-width="2" fill="none"/><path d="M180 693h-1.03v-2H180z" fill="#926600"/><path d="M1538.97 662.25h1.03M1519 661.92h80.38M1519.02 661.92H1518" stroke="#926600" stroke-width="2" fill="none"/><path d="M1600.38 662.92h-1.03v-2h1.03z" fill="#926600"/><path d="M2127.88 814.5c0 44.18-35.82 80-80 80-44.2 0-80-35.82-80-80s35.8-80 80-80c44.18 0 80 35.82 80 80z" stroke="#5e5e5e" stroke-width="3" fill-opacity="0"/><use xlink:href="#Z" transform="matrix(1,0,0,1,1972.87558685446,739.5) translate(49.12228395061732 12.444444444444427)"/><use xlink:href="#aa" transform="matrix(1,0,0,1,1972.87558685446,739.5) translate(53.0111728395062 31.111111111111065)"/><use xlink:href="#ab" transform="matrix(1,0,0,1,1972.87558685446,739.5) translate(51.2395679012346 49.77777777777771)"/><path d="M2019.25 794.5c0 11.05-7.02 20-15.7 20-8.65 0-15.67-8.95-15.67-20s7.02-20 15.68-20c8.67 0 15.7 8.95 15.7 20zM2104.25 794.5c0 11.05-7.02 20-15.7 20-8.65 0-15.67-8.95-15.67-20s7.02-20 15.68-20c8.67 0 15.7 8.95 15.7 20zM2062.25 854.5c0 11.05-7.02 20-15.7 20-8.65 0-15.67-8.95-15.67-20s7.02-20 15.68-20c8.67 0 15.7 8.95 15.7 20zM2131.5 1060c0 44.18-35.82 80-80 80s-80-35.82-80-80 35.82-80 80-80 80 35.82 80 80z" stroke="#5e5e5e" stroke-width="3" fill-opacity="0"/><use xlink:href="#ac" transform="matrix(1,0,0,1,1976.5,985) translate(51.71487654320991 12.444444444444427)"/><use xlink:href="#aa" transform="matrix(1,0,0,1,1976.5,985) translate(53.0111728395062 31.111111111111065)"/><use xlink:href="#ab" transform="matrix(1,0,0,1,1976.5,985) translate(51.2395679012346 49.77777777777771)"/><path d="M2022.88 1040c0 11.05-7.03 20-15.7 20-8.66 0-15.68-8.95-15.68-20s7.02-20 15.7-20c8.65 0 15.68 8.95 15.68 20zM2107.88 1040c0 11.05-7.03 20-15.7 20-8.66 0-15.68-8.95-15.68-20s7.02-20 15.7-20c8.65 0 15.68 8.95 15.68 20zM2065.88 1100c0 11.05-7.03 20-15.7 20-8.66 0-15.68-8.95-15.68-20s7.02-20 15.7-20c8.65 0 15.68 8.95 15.68 20z" stroke="#5e5e5e" stroke-width="3" fill-opacity="0"/><path d="M1372.5 629.67V634c0 3.3 2.7 6 6 6H1512c3.3 0 6 2.7 6 6v10.25c0 3.32 2.68 6 6 6h15" stroke="#926600" stroke-width="2" fill="none"/><path d="M1373.5 629.7h-2v-1.03h2z" fill="#926600"/><path d="M1538.97 662.25h1.03M1372.5 726.33V756c0 3.3 2.7 6 6 6h127.75c.4 0 .73.32.73.73 0 .4.33.72.73.72h12.8" stroke="#926600" stroke-width="2" fill="none"/><path d="M1373.5 726.36h-2v-1.03h2z" fill="#926600"/><path d="M1520.47 763.45h1.03" stroke="#926600" stroke-width="2" fill="none"/><path d="M1901.5 419V146c0-3.3-2.7-6-6-6h-303.46c-.37 0-.66.3-.66.67 0 .36-.3.66-.67.66h-29.32M1901.5 418.97V420M1561.4 141.33h-1.02" stroke="#99d2f2" stroke-width="2" fill="none"/><path d="M1902.5 517.85l-2.18.35-2 1.46-.8 2.42.18 1.1 1.46 2 3.34 1.1v50.3l-2.18.36-2 1.46-.8 2.4.18 1.12 1.46 2 3.34 1.1v53.83l-2.18.35-2 1.46-.8 2.42.18 1.1 1.46 2 3.34 1.1v141.1l.7 2.63 1.8 1.8 2.63.7h77.74v2h-78l-3.42-.92-2.53-2.53-.92-3.42v-139.9l-2.57-.84-2.12-2.92-.33-2.06 1.14-3.5 2.92-2.1.98-.17v-50.7l-2.57-.83-2.12-2.9-.33-2.07 1.14-3.5 2.92-2.1.98-.17v-47.15l-2.57-.84-2.12-2.92-.33-2.06 1.14-3.5 2.92-2.1.98-.17V421h2z" fill="#99d2f2"/><path d="M1986.37 794.43l.04 1.07h-1.05v-2h1.14zM1902.5 421.03h-2V420h2z" fill="#99d2f2"/><path d="M1901.5 795.5V1034c0 3.3 2.7 6 6 6h81.5M1901.5 795.53v-1.03" stroke="#99d2f2" stroke-width="2" fill="none"/><path d="M1990 1039.93l.03 1.07h-1.06v-2h1.14z" fill="#99d2f2"/><path d="M1599.38 581.92h-31.75l-2.64.7-1.8 1.8-.7 2.63v70.6l-3.34 1.08-1.46 2-.17 1.1.8 2.42 2 1.46 2.17.37v243.8l.7 2.64 1.8 1.8 2.63.7h328.14l.84-2.57 2.92-2.12 2.06-.32 3.5 1.14 2.1 2.9.17.98h133.08l2.64-.7 1.78-1.8.7-2.63V877h2v33.13l-.9 3.42-2.54 2.53-3.4.92h-135.05l-.35-2.18-1.46-2-2.42-.8-1.1.18-2 1.47-1.1 3.33h-329.85l-3.42-.92-2.53-2.53-.92-3.42V667.77l-.98-.16-2.9-2.1-1.15-3.5.34-2.06 2.13-2.9 2.57-.85v-69.42l.92-3.4 2.53-2.54 3.42-.92h32z" fill="#ffdf71"/><path d="M1600.38 581.92h-1.03v-2h1.03zM2046.5 876l1.06-.03v1.06h-2v-1.14z" fill="#ffdf71"/><path d="M2050.2 1122.5v33c0 3.3-2.7 6-6 6h-476.7c-3.3 0-6-2.7-6-6V916.6" stroke="#ffdf71" stroke-width="2" fill="none"/><path d="M2050.12 1121.5l1.07-.03v1.06h-2v-1.14z" fill="#ffdf71"/><path d="M1561.5 916.6v-1" stroke="#ffdf71" stroke-width="2" fill="none"/><path d="M1381.5 576.67V556c0-3.3 2.7-6 6-6h88c3.3 0 6 2.7 6 6v79c-2.76 0-5 2.24-5 5s2.24 5 5 5v69c0 3.3 2.7 6 6 6h29c0-2.76 2.24-5 5-5s5 2.24 5 5h4.63c2.55 0 4.62 2.07 4.62 4.63v12.8c0 3.3 2.7 6 6 6h14.75c0-2.77 2.24-5 5-5s5 2.23 5 5h32.5" stroke="#926600" stroke-width="2" fill="none"/><path d="M1382.5 577.67h-2v-1.03h2zM1600 744.42h-1.03v-2h1.03z" fill="#926600"/><path d="M1381.5 673.33V666c0-3.3 2.7-6 6-6h68c3.3 0 6 2.7 6 6v91c-2.76 0-5 2.24-5 5s2.24 5 5 5v50.92c0 3.3 2.7 6 6 6h49c0-2.76 2.24-5 5-5s5 2.24 5 5h30c0-2.76 2.24-5 5-5s5 2.24 5 5h32.88" stroke="#926600" stroke-width="2" fill="none"/><path d="M1382.5 674.33h-2v-1.02h2zM1600.38 824.92h-1.03v-2h1.03z" fill="#926600"/><path d="M1758 743.42h33c3.3 0 6-2.7 6-6V716c0-3.3 2.7-6 6-6h336.75c3.32 0 6 2.7 6 6v72.5c0 3.3-2.68 6-6 6h-33" stroke="#926600" stroke-width="2" fill="none"/><path d="M1758.03 744.42H1757v-2h1.03zM2106.78 795.5h-1.14l.1-.93-.02-1.07h1.06z" fill="#926600"/><path d="M1758.38 823.92h33c3.3 0 6 2.68 6 6V911c-2.77 0-5 2.24-5 5s2.23 5 5 5v33c0 3.3 2.68 6 6 6h93.12c0-2.76 2.24-5 5-5s5 2.24 5 5h236.88c3.3 0 6 2.7 6 6v68c0 3.3-2.7 6-6 6h-33" stroke="#926600" stroke-width="2" fill="none"/><path d="M1758.4 824.92h-1.02v-2h1.02zM2110.4 1041h-1.14l.12-.93-.04-1.07h1.06z" fill="#926600"/><path d="M2201.5 760h70v70h-70z" fill="none"/><path d="M2271.5 795c0 19.33-15.67 35-35 35s-35-15.67-35-35 15.67-35 35-35 35 15.67 35 35m-59.5-24.5l49 49m0-49l-49 49" stroke="#5e5e5e" stroke-width="3" fill="#fff"/><path d="M2201.5 1005h70v70h-70z" fill="none"/><path d="M2271.5 1040c0 19.33-15.67 35-35 35s-35-15.67-35-35 15.67-35 35-35 35 15.67 35 35m-59.5-24.5l49 49m0-49l-49 49" stroke="#5e5e5e" stroke-width="3" fill="#fff"/><path d="M2281.5 774c0-3.3 2.7-6 6-6h48c3.3 0 6 2.7 6 6v42.5c0 3.3-2.7 6-6 6h-48c-3.3 0-6-2.7-6-6z" stroke="#000" stroke-opacity="0" stroke-width="3" fill="#fff" fill-opacity="0"/><use xlink:href="#ad" transform="matrix(1,0,0,1,2286.5,773) translate(2.8148148148148238 10.666666666666664)"/><use xlink:href="#ae" transform="matrix(1,0,0,1,2286.5,773) translate(6.148148148148156 26.66666666666666)"/><use xlink:href="#af" transform="matrix(1,0,0,1,2286.5,773) translate(-0.5185185185185048 42.66666666666666)"/><path d="M2281.5 1019c0-3.3 2.7-6 6-6h48c3.3 0 6 2.7 6 6v42.5c0 3.3-2.7 6-6 6h-48c-3.3 0-6-2.7-6-6z" stroke="#000" stroke-opacity="0" stroke-width="3" fill="#fff" fill-opacity="0"/><use xlink:href="#ag" transform="matrix(1,0,0,1,2286.5,1018) translate(5.037037037037045 10.666666666666664)"/><use xlink:href="#ae" transform="matrix(1,0,0,1,2286.5,1018) translate(6.148148148148156 26.66666666666666)"/><use xlink:href="#af" transform="matrix(1,0,0,1,2286.5,1018) translate(-0.5185185185185048 42.66666666666666)"/><path d="M2143.9 795h55.1M2143.4 795.53v-1.03" stroke="#926600" stroke-width="2" fill="none"/><path d="M2200 795l.07 1h-1.1v-2h1.1z" fill="#926600"/><path d="M2156.1 1040.08h21.4c.02 0 .04-.02.04-.04s.02-.04.04-.04H2199" stroke="#926600" stroke-width="2" fill="none"/><path d="M2156.1 1041.08h-1.28l.28-.77-.05-1-.1-.22h1.16zM2200 1040l.07 1h-1.1v-2h1.1z" fill="#926600"/><path d="M2236.5 1077.5V1234c0 3.3-2.7 6-6 6h-320.33c-3.32 0-6-2.7-6-6v-67.5c-2.76 0-5-2.24-5-5s2.24-5 5-5V1041" stroke="#99d2f2" stroke-width="2" fill="none"/><path d="M2236.5 1076.5l1-.07v1.1h-2v-1.1z" fill="#99d2f2"/><path d="M1904.17 1041.03V1040M2183.9 1239v-60.8c0-.1-.08-.2-.2-.2-.1 0-.2-.1-.2-.2V1045c-2.76 0-5-2.24-5-5s2.24-5 5-5V877.5c0-3.3 2.7-6 6-6h41c3.3 0 6-2.68 6-6v-33M2183.9 1238.97v1.03" stroke="#99d2f2" stroke-width="2" fill="none"/><path d="M2236.5 831.5l1-.07v1.1h-2v-1.1z" fill="#99d2f2"/><path d="M1621.5 406c0-3.3 2.7-6 6-6h114c3.3 0 6 2.7 6 6v51.33c0 3.32-2.7 6-6 6h-114c-3.3 0-6-2.68-6-6z" stroke="#000" stroke-opacity="0" stroke-width="3" fill="#fff" fill-opacity="0"/><use xlink:href="#ah" transform="matrix(1,0,0,1,1626.5,405) translate(27.166666666666668 17.77777777777778)"/><use xlink:href="#ai" transform="matrix(1,0,0,1,1626.5,405) translate(16.179012345679006 44.44444444444444)"/><path d="M1643.3 400" stroke="#5e5e5e" stroke-width="2" fill="none"/><path fill="#5e5e5e"/><path fill="#5e5e5e"/><path d="M2151.5 506c0-3.3 2.7-6 6-6h68c3.3 0 6 2.7 6 6v78c0 3.3-2.7 6-6 6h-68c-3.3 0-6-2.7-6-6z" stroke="#000" stroke-opacity="0" stroke-width="3" fill="#fff" fill-opacity="0"/><use xlink:href="#aj" transform="matrix(1,0,0,1,2156.5,505) translate(5.432098765432102 17.77777777777778)"/><use xlink:href="#ak" transform="matrix(1,0,0,1,2156.5,505) translate(3.5802469135802504 44.44444444444444)"/><use xlink:href="#al" transform="matrix(1,0,0,1,2156.5,505) translate(12.808641975308646 71.11111111111111)"/><path d="M181.5 526c0-3.3 2.7-6 6-6h188c3.3 0 6 2.7 6 6v188c0 3.3-2.7 6-6 6h-188c-3.3 0-6-2.7-6-6z" stroke="#5e5e5e" stroke-width="3" fill="#fff"/><use xlink:href="#am" transform="matrix(1,0,0,1,186.5,525) translate(44.35185185185185 71.21527777777777)"/><use xlink:href="#an" transform="matrix(1,0,0,1,186.5,525) translate(27.191358024691354 97.88194444444446)"/><use xlink:href="#ao" transform="matrix(1,0,0,1,186.5,525) translate(26.574074074074076 124.54861111111111)"/><use xlink:href="#ap" transform="matrix(1,0,0,1,186.5,525) translate(95.58641975308642 124.54861111111111)"/><path d="M201.5 686c0-3.3 2.7-6 6-6h8c3.3 0 6 2.7 6 6v4.67c0 3.3-2.7 6-6 6h-8c-3.3 0-6-2.7-6-6z" stroke="#000" stroke-opacity="0" stroke-width="3" fill="#fff" fill-opacity="0"/><g><use xlink:href="#aq" transform="matrix(1,0,0,1,206.5,685) translate(-1.1728395061728394 17.77777777777778)"/></g><path d="M201.5 548c0-3.3 2.7-6 6-6h8c3.3 0 6 2.7 6 6v4.67c0 3.3-2.7 6-6 6h-8c-3.3 0-6-2.7-6-6z" stroke="#000" stroke-opacity="0" stroke-width="3" fill="#fff" fill-opacity="0"/><g><use xlink:href="#ar" transform="matrix(1,0,0,1,206.5,547) translate(-2.9938271604938267 17.77777777777778)"/></g><path d="M349.5 675c0-3.3 2.7-6 6-6h8c3.3 0 6 2.7 6 6v4.67c0 3.3-2.7 6-6 6h-8c-3.3 0-6-2.7-6-6z" stroke="#000" stroke-opacity="0" stroke-width="3" fill="#fff" fill-opacity="0"/><g><use xlink:href="#as" transform="matrix(1,0,0,1,354.5,674) translate(-1.611111111111109 31.99999999999999)"/></g><path d="M345.5 546c0-3.3 2.7-6 6-6h8c3.3 0 6 2.7 6 6v4.67c0 3.3-2.7 6-6 6h-8c-3.3 0-6-2.7-6-6z" stroke="#000" stroke-opacity="0" stroke-width="3" fill="#fff" fill-opacity="0"/><g><use xlink:href="#at" transform="matrix(1,0,0,1,350.5,545) translate(-1.481481481481481 17.77777777777778)"/></g><path d="M2149.58 794.25c0 2.35-1.8 4.26-4 4.26s-4-1.9-4-4.25c0-2.34 1.8-4.25 4-4.25s4 1.9 4 4.25zM2153.58 1040.08c0 2.35-1.8 4.26-4 4.26s-4-1.9-4-4.26c0-2.35 1.8-4.25 4-4.25s4 1.9 4 4.25zM1524.5 763.25c0 2.35-1.8 4.26-4 4.26s-4-1.9-4-4.25c0-2.34 1.8-4.25 4-4.25s4 1.9 4 4.25z" stroke="#926600" stroke-width="3" fill="#926600"/><path d="M1565.5 144.25c0 2.35-1.8 4.26-4 4.26s-4-1.9-4-4.25c0-2.34 1.8-4.25 4-4.25s4 1.9 4 4.25zM1907.5 796.25c0 2.35-1.8 4.26-4 4.26s-4-1.9-4-4.25c0-2.34 1.8-4.25 4-4.25s4 1.9 4 4.25zM1907.5 1040.55c0 2.35-1.8 4.25-4 4.25s-4-1.9-4-4.25 1.8-4.26 4-4.26 4 1.9 4 4.25z" stroke="#99d2f2" stroke-width="3" fill="#99d2f2"/><path d="M1565.5 916.25c0 2.35-1.8 4.26-4 4.26s-4-1.9-4-4.25c0-2.34 1.8-4.25 4-4.25s4 1.9 4 4.25z" stroke="#ffdf71" stroke-width="3" fill="#ffdf71"/><path d="M2188.5 1241.25c0 2.35-1.8 4.26-4 4.26s-4-1.9-4-4.25c0-2.34 1.8-4.25 4-4.25s4 1.9 4 4.25z" stroke="#99d2f2" stroke-width="3" fill="#99d2f2"/><path d="M1525.5 664.25c0 2.35-1.8 4.26-4 4.26s-4-1.9-4-4.25c0-2.34 1.8-4.25 4-4.25s4 1.9 4 4.25z" stroke="#926600" stroke-width="3" fill="#926600"/><defs><path fill="#333" d="M266 0h-40l-56-210L115 0H75L2-248h35L96-30l15-64 43-154h32l59 218 59-218h35" id="au"/><path fill="#333" d="M100-194c63 0 86 42 84 106H49c0 40 14 67 53 68 26 1 43-12 49-29l28 8c-11 28-37 45-77 45C44 4 14-33 15-96c1-61 26-98 85-98zm52 81c6-60-76-77-97-28-3 7-6 17-6 28h103" id="av"/><path fill="#333" d="M210-169c-67 3-38 105-44 169h-31v-121c0-29-5-50-35-48C34-165 62-65 56 0H25l-1-190h30c1 10-1 24 2 32 10-44 99-50 107 0 11-21 27-35 58-36 85-2 47 119 55 194h-31v-121c0-29-5-49-35-48" id="aw"/><path fill="#333" d="M100-194c62-1 85 37 85 99 1 63-27 99-86 99S16-35 15-95c0-66 28-99 85-99zM99-20c44 1 53-31 53-75 0-43-8-75-51-75s-53 32-53 75 10 74 51 75" id="ax"/><path fill="#333" d="M135-143c-3-34-86-38-87 0 15 53 115 12 119 90S17 21 10-45l28-5c4 36 97 45 98 0-10-56-113-15-118-90-4-57 82-63 122-42 12 7 21 19 24 35" id="ay"/><g id="a"><use transform="matrix(0.06172839506172839,0,0,0.06172839506172839,0,0)" xlink:href="#au"/><use transform="matrix(0.06172839506172839,0,0,0.06172839506172839,20.493827160493826,0)" xlink:href="#av"/><use transform="matrix(0.06172839506172839,0,0,0.06172839506172839,32.839506172839506,0)" xlink:href="#aw"/><use transform="matrix(0.06172839506172839,0,0,0.06172839506172839,51.29629629629629,0)" xlink:href="#ax"/><use transform="matrix(0.06172839506172839,0,0,0.06172839506172839,63.641975308641975,0)" xlink:href="#ay"/></g><path fill="#333" d="M30-248c118-7 216 8 213 122C240-48 200 0 122 0H30v-248zM63-27c89 8 146-16 146-99s-60-101-146-95v194" id="az"/><path fill="#333" d="M27 0v-27h64v-190l-56 39v-29l58-41h29v221h61V0H27" id="aA"/><g id="b"><use transform="matrix(0.06172839506172839,0,0,0.06172839506172839,0,0)" xlink:href="#az"/><use transform="matrix(0.06172839506172839,0,0,0.06172839506172839,15.987654320987653,0)" xlink:href="#aA"/></g><path fill="#333" d="M233-177c-1 41-23 64-60 70L243 0h-38l-65-103H63V0H30v-248c88 3 205-21 203 71zM63-129c60-2 137 13 137-47 0-61-80-42-137-45v92" id="aB"/><path fill="#333" d="M126-127c33 6 58 20 58 59 0 88-139 92-164 29-3-8-5-16-6-25l32-3c6 27 21 44 54 44 32 0 52-15 52-46 0-38-36-46-79-43v-28c39 1 72-4 72-42 0-27-17-43-46-43-28 0-47 15-49 41l-32-3c6-42 35-63 81-64 48-1 79 21 79 65 0 36-21 52-52 59" id="aC"/><path fill="#333" d="M101-251c82-7 93 87 43 132L82-64C71-53 59-42 53-27h129V0H18c2-99 128-94 128-182 0-28-16-43-45-43s-46 15-49 41l-32-3c6-41 34-60 81-64" id="aD"/><g id="c"><use transform="matrix(0.06172839506172839,0,0,0.06172839506172839,0,0)" xlink:href="#aB"/><use transform="matrix(0.06172839506172839,0,0,0.06172839506172839,15.987654320987653,0)" xlink:href="#aC"/><use transform="matrix(0.06172839506172839,0,0,0.06172839506172839,28.333333333333332,0)" xlink:href="#aD"/></g><path fill="#333" d="M185-189c-5-48-123-54-124 2 14 75 158 14 163 119 3 78-121 87-175 55-17-10-28-26-33-46l33-7c5 56 141 63 141-1 0-78-155-14-162-118-5-82 145-84 179-34 5 7 8 16 11 25" id="aE"/><path fill="#333" d="M212-179c-10-28-35-45-73-45-59 0-87 40-87 99 0 60 29 101 89 101 43 0 62-24 78-52l27 14C228-24 195 4 139 4 59 4 22-46 18-125c-6-104 99-153 187-111 19 9 31 26 39 46" id="aF"/><path fill="#333" d="M30 0v-248h33v221h125V0H30" id="aG"/><g id="d"><use transform="matrix(0.03703703703703702,0,0,0.03703703703703702,0,0)" xlink:href="#aE"/><use transform="matrix(0.03703703703703702,0,0,0.03703703703703702,8.888888888888886,0)" xlink:href="#aF"/><use transform="matrix(0.03703703703703702,0,0,0.03703703703703702,18.481481481481474,0)" xlink:href="#aG"/></g><path fill="#333" d="M205 0l-28-72H64L36 0H1l101-248h38L239 0h-34zm-38-99l-47-123c-12 45-31 82-46 123h93" id="aH"/><g id="e"><use transform="matrix(0.03703703703703702,0,0,0.03703703703703702,0,0)" xlink:href="#aE"/><use transform="matrix(0.03703703703703702,0,0,0.03703703703703702,8.888888888888886,0)" xlink:href="#az"/><use transform="matrix(0.03703703703703702,0,0,0.03703703703703702,18.481481481481474,0)" xlink:href="#aH"/></g><path fill="#333" d="M127-220V0H93v-220H8v-28h204v28h-85" id="aI"/><g id="f"><use transform="matrix(0.03703703703703702,0,0,0.03703703703703702,0,0)" xlink:href="#aB"/><use transform="matrix(0.03703703703703702,0,0,0.03703703703703702,9.592592592592588,0)" xlink:href="#aE"/><use transform="matrix(0.03703703703703702,0,0,0.03703703703703702,18.481481481481474,0)" xlink:href="#aI"/></g><path fill="#333" d="M143 4C61 4 22-44 18-125c-5-107 100-154 193-111 17 8 29 25 37 43l-32 9c-13-25-37-40-76-40-61 0-88 39-88 99 0 61 29 100 91 101 35 0 62-11 79-27v-45h-74v-28h105v86C228-13 192 4 143 4" id="aJ"/><path fill="#333" d="M190 0L58-211 59 0H30v-248h39L202-35l-2-213h31V0h-41" id="aK"/><g id="g"><use transform="matrix(0.03703703703703702,0,0,0.03703703703703702,0,0)" xlink:href="#aJ"/><use transform="matrix(0.03703703703703702,0,0,0.03703703703703702,10.370370370370367,0)" xlink:href="#aK"/><use transform="matrix(0.03703703703703702,0,0,0.03703703703703702,19.962962962962955,0)" xlink:href="#az"/></g><path fill="#333" d="M33 0v-248h34V0H33" id="aL"/><path fill="#333" d="M140-251c81 0 123 46 123 126C263-46 219 4 140 4 59 4 17-45 17-125s42-126 123-126zm0 227c63 0 89-41 89-101s-29-99-89-99c-61 0-89 39-89 99S79-25 140-24" id="aM"/><path fill="#333" d="M134-131c28 9 52 24 51 62-1 50-34 73-85 73S17-19 16-69c0-36 21-54 49-61-75-25-45-126 34-121 46 3 78 18 79 63 0 33-17 51-44 57zm-34-11c31 1 46-15 46-44 0-28-17-43-47-42-29 0-46 13-45 42 1 28 16 44 46 44zm1 122c35 0 51-18 51-52 0-30-18-46-53-46-33 0-51 17-51 47 0 34 19 51 53 51" id="aN"/><g id="h"><use transform="matrix(0.03703703703703702,0,0,0.03703703703703702,0,0)" xlink:href="#aL"/><use transform="matrix(0.03703703703703702,0,0,0.03703703703703702,3.703703703703702,0)" xlink:href="#aM"/><use transform="matrix(0.03703703703703702,0,0,0.03703703703703702,14.07407407407407,0)" xlink:href="#aA"/><use transform="matrix(0.03703703703703702,0,0,0.03703703703703702,21.481481481481474,0)" xlink:href="#aN"/></g><path fill="#333" d="M99-251c64 0 84 50 84 122C183-37 130 33 47-8c-14-7-20-23-25-40l30-5c6 39 69 39 84 7 9-19 16-44 16-74-10 22-31 35-62 35-49 0-73-33-73-83 0-54 28-83 82-83zm-1 141c31-1 51-18 51-49 0-36-14-67-51-67-34 0-49 23-49 58 0 34 15 58 49 58" id="aO"/><g id="i"><use transform="matrix(0.03703703703703702,0,0,0.03703703703703702,0,0)" xlink:href="#aL"/><use transform="matrix(0.03703703703703702,0,0,0.03703703703703702,3.703703703703702,0)" xlink:href="#aM"/><use transform="matrix(0.03703703703703702,0,0,0.03703703703703702,14.07407407407407,0)" xlink:href="#aA"/><use transform="matrix(0.03703703703703702,0,0,0.03703703703703702,21.481481481481474,0)" xlink:href="#aO"/></g><g id="j"><use transform="matrix(0.03703703703703702,0,0,0.03703703703703702,0,0)" xlink:href="#aL"/><use transform="matrix(0.03703703703703702,0,0,0.03703703703703702,3.703703703703702,0)" xlink:href="#aM"/><use transform="matrix(0.03703703703703702,0,0,0.03703703703703702,14.07407407407407,0)" xlink:href="#aD"/><use transform="matrix(0.03703703703703702,0,0,0.03703703703703702,21.481481481481474,0)" xlink:href="#aC"/></g><path fill="#333" d="M54-142c48-35 137-8 131 61C196 18 31 33 14-55l32-4c7 23 22 37 52 37 35-1 51-22 54-58 4-55-73-65-99-34H22l8-134h141v27H59" id="aP"/><g id="k"><use transform="matrix(0.03703703703703702,0,0,0.03703703703703702,0,0)" xlink:href="#aL"/><use transform="matrix(0.03703703703703702,0,0,0.03703703703703702,3.703703703703702,0)" xlink:href="#aM"/><use transform="matrix(0.03703703703703702,0,0,0.03703703703703702,14.07407407407407,0)" xlink:href="#aP"/></g><g id="l"><use transform="matrix(0.03703703703703702,0,0,0.03703703703703702,0,0)" xlink:href="#aL"/><use transform="matrix(0.03703703703703702,0,0,0.03703703703703702,3.703703703703702,0)" xlink:href="#aM"/><use transform="matrix(0.03703703703703702,0,0,0.03703703703703702,14.07407407407407,0)" xlink:href="#aA"/><use transform="matrix(0.03703703703703702,0,0,0.03703703703703702,21.481481481481474,0)" xlink:href="#aC"/></g><g id="m"><use transform="matrix(0.03703703703703702,0,0,0.03703703703703702,0,0)" xlink:href="#aL"/><use transform="matrix(0.03703703703703702,0,0,0.03703703703703702,3.703703703703702,0)" xlink:href="#aM"/><use transform="matrix(0.03703703703703702,0,0,0.03703703703703702,14.07407407407407,0)" xlink:href="#aA"/><use transform="matrix(0.03703703703703702,0,0,0.03703703703703702,21.481481481481474,0)" xlink:href="#aD"/></g><path fill="#333" d="M155-56V0h-30v-56H8v-25l114-167h33v167h35v25h-35zm-30-156c-27 46-58 90-88 131h88v-131" id="aQ"/><g id="n"><use transform="matrix(0.03703703703703702,0,0,0.03703703703703702,0,0)" xlink:href="#aL"/><use transform="matrix(0.03703703703703702,0,0,0.03703703703703702,3.703703703703702,0)" xlink:href="#aM"/><use transform="matrix(0.03703703703703702,0,0,0.03703703703703702,14.07407407407407,0)" xlink:href="#aA"/><use transform="matrix(0.03703703703703702,0,0,0.03703703703703702,21.481481481481474,0)" xlink:href="#aQ"/></g><path fill="#333" d="M64 0c3-98 48-159 88-221H18v-27h164v26C143-157 98-101 97 0H64" id="aR"/><g id="o"><use transform="matrix(0.03703703703703702,0,0,0.03703703703703702,0,0)" xlink:href="#aL"/><use transform="matrix(0.03703703703703702,0,0,0.03703703703703702,3.703703703703702,0)" xlink:href="#aM"/><use transform="matrix(0.03703703703703702,0,0,0.03703703703703702,14.07407407407407,0)" xlink:href="#aD"/><use transform="matrix(0.03703703703703702,0,0,0.03703703703703702,21.481481481481474,0)" xlink:href="#aR"/></g><path fill="#333" d="M110-160c48 1 74 30 74 79 0 53-28 85-80 85-65 0-83-55-86-122-5-90 50-162 133-122 14 7 22 21 27 39l-31 6c-5-40-67-38-82-6-9 19-15 44-15 74 11-20 30-34 60-33zm-7 138c34 0 49-23 49-58s-16-56-50-56c-29 0-50 16-49 49 1 36 15 65 50 65" id="aS"/><g id="p"><use transform="matrix(0.03703703703703702,0,0,0.03703703703703702,0,0)" xlink:href="#aL"/><use transform="matrix(0.03703703703703702,0,0,0.03703703703703702,3.703703703703702,0)" xlink:href="#aM"/><use transform="matrix(0.03703703703703702,0,0,0.03703703703703702,14.07407407407407,0)" xlink:href="#aA"/><use transform="matrix(0.03703703703703702,0,0,0.03703703703703702,21.481481481481474,0)" xlink:href="#aS"/></g><g id="q"><use transform="matrix(0.03703703703703702,0,0,0.03703703703703702,0,0)" xlink:href="#aL"/><use transform="matrix(0.03703703703703702,0,0,0.03703703703703702,3.703703703703702,0)" xlink:href="#aM"/><use transform="matrix(0.03703703703703702,0,0,0.03703703703703702,14.07407407407407,0)" xlink:href="#aA"/><use transform="matrix(0.03703703703703702,0,0,0.03703703703703702,21.481481481481474,0)" xlink:href="#aR"/></g><g id="r"><use transform="matrix(0.03703703703703702,0,0,0.03703703703703702,0,0)" xlink:href="#aL"/><use transform="matrix(0.03703703703703702,0,0,0.03703703703703702,3.703703703703702,0)" xlink:href="#aM"/><use transform="matrix(0.03703703703703702,0,0,0.03703703703703702,14.07407407407407,0)" xlink:href="#aD"/><use transform="matrix(0.03703703703703702,0,0,0.03703703703703702,21.481481481481474,0)" xlink:href="#aP"/></g><g id="s"><use transform="matrix(0.03703703703703702,0,0,0.03703703703703702,0,0)" xlink:href="#aL"/><use transform="matrix(0.03703703703703702,0,0,0.03703703703703702,3.703703703703702,0)" xlink:href="#aM"/><use transform="matrix(0.03703703703703702,0,0,0.03703703703703702,14.07407407407407,0)" xlink:href="#aD"/><use transform="matrix(0.03703703703703702,0,0,0.03703703703703702,21.481481481481474,0)" xlink:href="#aS"/></g><path fill="#333" d="M195 0l-74-108L45 0H8l94-129-87-119h37l69 98 67-98h37l-84 118L233 0h-38" id="aT"/><path fill="#333" d="M101-251c68 0 85 55 85 127S166 4 100 4C33 4 14-52 14-124c0-73 17-127 87-127zm-1 229c47 0 54-49 54-102s-4-102-53-102c-51 0-55 48-55 102 0 53 5 102 54 102" id="aU"/><g id="t"><use transform="matrix(0.03703703703703702,0,0,0.03703703703703702,0,0)" xlink:href="#aI"/><use transform="matrix(0.03703703703703702,0,0,0.03703703703703702,8.111111111111107,0)" xlink:href="#aT"/><use transform="matrix(0.03703703703703702,0,0,0.03703703703703702,16.999999999999993,0)" xlink:href="#aU"/></g><g id="u"><use transform="matrix(0.03703703703703702,0,0,0.03703703703703702,0,0)" xlink:href="#aB"/><use transform="matrix(0.03703703703703702,0,0,0.03703703703703702,9.592592592592588,0)" xlink:href="#aT"/><use transform="matrix(0.03703703703703702,0,0,0.03703703703703702,18.481481481481474,0)" xlink:href="#aU"/></g><g id="v"><use transform="matrix(0.03703703703703702,0,0,0.03703703703703702,0,0)" xlink:href="#aL"/><use transform="matrix(0.03703703703703702,0,0,0.03703703703703702,3.703703703703702,0)" xlink:href="#aM"/><use transform="matrix(0.03703703703703702,0,0,0.03703703703703702,14.07407407407407,0)" xlink:href="#aU"/></g><path fill="#333" d="M137 0h-34L2-248h35l83 218 83-218h36" id="aV"/><g id="w"><use transform="matrix(0.03703703703703702,0,0,0.03703703703703702,0,0)" xlink:href="#aP"/><use transform="matrix(0.03703703703703702,0,0,0.03703703703703702,7.407407407407404,0)" xlink:href="#aV"/></g><g id="x"><use transform="matrix(0.03703703703703702,0,0,0.03703703703703702,0,0)" xlink:href="#aC"/><use transform="matrix(0.03703703703703702,0,0,0.03703703703703702,7.407407407407404,0)" xlink:href="#aV"/><use transform="matrix(0.03703703703703702,0,0,0.03703703703703702,16.29629629629629,0)" xlink:href="#aC"/></g><g id="y"><use transform="matrix(0.03703703703703702,0,0,0.03703703703703702,0,0)" xlink:href="#aV"/><use transform="matrix(0.03703703703703702,0,0,0.03703703703703702,8.888888888888886,0)" xlink:href="#aK"/></g><g id="z"><use transform="matrix(0.03703703703703702,0,0,0.03703703703703702,0,0)" xlink:href="#aL"/><use transform="matrix(0.03703703703703702,0,0,0.03703703703703702,3.703703703703702,0)" xlink:href="#aM"/><use transform="matrix(0.03703703703703702,0,0,0.03703703703703702,14.07407407407407,0)" xlink:href="#aD"/></g><g id="A"><use transform="matrix(0.03703703703703702,0,0,0.03703703703703702,0,0)" xlink:href="#aL"/><use transform="matrix(0.03703703703703702,0,0,0.03703703703703702,3.703703703703702,0)" xlink:href="#aM"/><use transform="matrix(0.03703703703703702,0,0,0.03703703703703702,14.07407407407407,0)" xlink:href="#aQ"/></g><g id="B"><use transform="matrix(0.03703703703703702,0,0,0.03703703703703702,0,0)" xlink:href="#aL"/><use transform="matrix(0.03703703703703702,0,0,0.03703703703703702,3.703703703703702,0)" xlink:href="#aM"/><use transform="matrix(0.03703703703703702,0,0,0.03703703703703702,14.07407407407407,0)" xlink:href="#aC"/><use transform="matrix(0.03703703703703702,0,0,0.03703703703703702,21.481481481481474,0)" xlink:href="#aS"/></g><g id="C"><use transform="matrix(0.03703703703703702,0,0,0.03703703703703702,0,0)" xlink:href="#aL"/><use transform="matrix(0.03703703703703702,0,0,0.03703703703703702,3.703703703703702,0)" xlink:href="#aM"/><use transform="matrix(0.03703703703703702,0,0,0.03703703703703702,14.07407407407407,0)" xlink:href="#aC"/><use transform="matrix(0.03703703703703702,0,0,0.03703703703703702,21.481481481481474,0)" xlink:href="#aQ"/></g><g id="D"><use transform="matrix(0.03703703703703702,0,0,0.03703703703703702,0,0)" xlink:href="#aL"/><use transform="matrix(0.03703703703703702,0,0,0.03703703703703702,3.703703703703702,0)" xlink:href="#aM"/><use transform="matrix(0.03703703703703702,0,0,0.03703703703703702,14.07407407407407,0)" xlink:href="#aC"/><use transform="matrix(0.03703703703703702,0,0,0.03703703703703702,21.481481481481474,0)" xlink:href="#aN"/></g><g id="E"><use transform="matrix(0.03703703703703702,0,0,0.03703703703703702,0,0)" xlink:href="#aL"/><use transform="matrix(0.03703703703703702,0,0,0.03703703703703702,3.703703703703702,0)" xlink:href="#aM"/><use transform="matrix(0.03703703703703702,0,0,0.03703703703703702,14.07407407407407,0)" xlink:href="#aC"/><use transform="matrix(0.03703703703703702,0,0,0.03703703703703702,21.481481481481474,0)" xlink:href="#aO"/></g><path fill="#333" d="M240 0l2-218c-23 76-54 145-80 218h-23L58-218 59 0H30v-248h44l77 211c21-75 51-140 76-211h43V0h-30" id="aW"/><path fill="#333" d="M24-231v-30h32v30H24zM24 0v-190h32V0H24" id="aX"/><path fill="#333" d="M96-169c-40 0-48 33-48 73s9 75 48 75c24 0 41-14 43-38l32 2c-6 37-31 61-74 61-59 0-76-41-82-99-10-93 101-131 147-64 4 7 5 14 7 22l-32 3c-4-21-16-35-41-35" id="aY"/><path fill="#333" d="M114-163C36-179 61-72 57 0H25l-1-190h30c1 12-1 29 2 39 6-27 23-49 58-41v29" id="aZ"/><g id="F"><use transform="matrix(0.06172839506172839,0,0,0.06172839506172839,0,0)" xlink:href="#aW"/><use transform="matrix(0.06172839506172839,0,0,0.06172839506172839,18.456790123456788,0)" xlink:href="#aX"/><use transform="matrix(0.06172839506172839,0,0,0.06172839506172839,23.33333333333333,0)" xlink:href="#aY"/><use transform="matrix(0.06172839506172839,0,0,0.06172839506172839,34.44444444444444,0)" xlink:href="#aZ"/><use transform="matrix(0.06172839506172839,0,0,0.06172839506172839,41.79012345679012,0)" xlink:href="#ax"/></g><g id="G"><use transform="matrix(0.06172839506172839,0,0,0.06172839506172839,0,0)" xlink:href="#aE"/><use transform="matrix(0.06172839506172839,0,0,0.06172839506172839,14.814814814814813,0)" xlink:href="#az"/></g><path fill="#333" d="M141-36C126-15 110 5 73 4 37 3 15-17 15-53c-1-64 63-63 125-63 3-35-9-54-41-54-24 1-41 7-42 31l-33-3c5-37 33-52 76-52 45 0 72 20 72 64v82c-1 20 7 32 28 27v20c-31 9-61-2-59-35zM48-53c0 20 12 33 32 33 41-3 63-29 60-74-43 2-92-5-92 41" id="ba"/><path fill="#333" d="M85-194c31 0 48 13 60 33l-1-100h32l1 261h-30c-2-10 0-23-3-31C134-8 116 4 85 4 32 4 16-35 15-94c0-66 23-100 70-100zm9 24c-40 0-46 34-46 75 0 40 6 74 45 74 42 0 51-32 51-76 0-42-9-74-50-73" id="bb"/><g id="H"><use transform="matrix(0.06172839506172839,0,0,0.06172839506172839,0,0)" xlink:href="#aF"/><use transform="matrix(0.06172839506172839,0,0,0.06172839506172839,15.987654320987653,0)" xlink:href="#ba"/><use transform="matrix(0.06172839506172839,0,0,0.06172839506172839,28.333333333333332,0)" xlink:href="#aZ"/><use transform="matrix(0.06172839506172839,0,0,0.06172839506172839,35.67901234567901,0)" xlink:href="#bb"/></g><g id="I"><use transform="matrix(0.06172839506172839,0,0,0.06172839506172839,0,0)" xlink:href="#aB"/><use transform="matrix(0.06172839506172839,0,0,0.06172839506172839,15.987654320987653,0)" xlink:href="#av"/><use transform="matrix(0.06172839506172839,0,0,0.06172839506172839,28.333333333333332,0)" xlink:href="#ba"/><use transform="matrix(0.06172839506172839,0,0,0.06172839506172839,40.67901234567901,0)" xlink:href="#bb"/><use transform="matrix(0.06172839506172839,0,0,0.06172839506172839,53.02469135802469,0)" xlink:href="#av"/><use transform="matrix(0.06172839506172839,0,0,0.06172839506172839,65.37037037037037,0)" xlink:href="#aZ"/></g><path fill="#333" d="M24 0v-261h32V0H24" id="bc"/><path fill="#333" d="M179-190L93 31C79 59 56 82 12 73V49c39 6 53-20 64-50L1-190h34L92-34l54-156h33" id="bd"/><g id="J"><use transform="matrix(0.06172839506172839,0,0,0.06172839506172839,0,0)" xlink:href="#aB"/><use transform="matrix(0.06172839506172839,0,0,0.06172839506172839,15.987654320987653,0)" xlink:href="#av"/><use transform="matrix(0.06172839506172839,0,0,0.06172839506172839,28.333333333333332,0)" xlink:href="#bc"/><use transform="matrix(0.06172839506172839,0,0,0.06172839506172839,33.20987654320987,0)" xlink:href="#ba"/><use transform="matrix(0.06172839506172839,0,0,0.06172839506172839,45.55555555555555,0)" xlink:href="#bd"/><use transform="matrix(0.06172839506172839,0,0,0.06172839506172839,56.66666666666666,0)" xlink:href="#ay"/></g><path fill="#333" d="M160-131c35 5 61 23 61 61C221 17 115-2 30 0v-248c76 3 177-17 177 60 0 33-19 50-47 57zm-97-11c50-1 110 9 110-42 0-47-63-36-110-37v79zm0 115c55-2 124 14 124-45 0-56-70-42-124-44v89" id="be"/><g id="K"><use transform="matrix(0.06172839506172839,0,0,0.06172839506172839,0,0)" xlink:href="#be"/><use transform="matrix(0.06172839506172839,0,0,0.06172839506172839,14.814814814814813,0)" xlink:href="#ax"/><use transform="matrix(0.06172839506172839,0,0,0.06172839506172839,27.160493827160494,0)" xlink:href="#ba"/><use transform="matrix(0.06172839506172839,0,0,0.06172839506172839,39.50617283950617,0)" xlink:href="#aZ"/><use transform="matrix(0.06172839506172839,0,0,0.06172839506172839,46.85185185185185,0)" xlink:href="#bb"/></g><g id="L"><use transform="matrix(0.03703703703703702,0,0,0.03703703703703702,0,0)" xlink:href="#aL"/><use transform="matrix(0.03703703703703702,0,0,0.03703703703703702,3.703703703703702,0)" xlink:href="#aK"/><use transform="matrix(0.03703703703703702,0,0,0.03703703703703702,13.29629629629629,0)" xlink:href="#aA"/></g><g id="M"><use transform="matrix(0.03703703703703702,0,0,0.03703703703703702,0,0)" xlink:href="#aL"/><use transform="matrix(0.03703703703703702,0,0,0.03703703703703702,3.703703703703702,0)" xlink:href="#aK"/><use transform="matrix(0.03703703703703702,0,0,0.03703703703703702,13.29629629629629,0)" xlink:href="#aD"/></g><g id="N"><use transform="matrix(0.03703703703703702,0,0,0.03703703703703702,0,0)" xlink:href="#aV"/><use transform="matrix(0.03703703703703702,0,0,0.03703703703703702,8.888888888888886,0)" xlink:href="#aF"/><use transform="matrix(0.03703703703703702,0,0,0.03703703703703702,18.481481481481474,0)" xlink:href="#aF"/></g><g id="O"><use transform="matrix(0.06172839506172839,0,0,0.06172839506172839,0,0)" xlink:href="#aB"/><use transform="matrix(0.06172839506172839,0,0,0.06172839506172839,15.987654320987653,0)" xlink:href="#aA"/></g><g id="P"><use transform="matrix(0.06172839506172839,0,0,0.06172839506172839,0,0)" xlink:href="#aB"/><use transform="matrix(0.06172839506172839,0,0,0.06172839506172839,15.987654320987653,0)" xlink:href="#aD"/></g><g id="Q"><use transform="matrix(0.03703703703703702,0,0,0.03703703703703702,0,0)" xlink:href="#aW"/><use transform="matrix(0.03703703703703702,0,0,0.03703703703703702,11.074074074074069,0)" xlink:href="#aL"/><use transform="matrix(0.03703703703703702,0,0,0.03703703703703702,14.777777777777771,0)" xlink:href="#aE"/><use transform="matrix(0.03703703703703702,0,0,0.03703703703703702,23.666666666666657,0)" xlink:href="#aM"/></g><g id="R"><use transform="matrix(0.03703703703703702,0,0,0.03703703703703702,0,0)" xlink:href="#aW"/><use transform="matrix(0.03703703703703702,0,0,0.03703703703703702,11.074074074074069,0)" xlink:href="#aM"/><use transform="matrix(0.03703703703703702,0,0,0.03703703703703702,21.444444444444436,0)" xlink:href="#aE"/><use transform="matrix(0.03703703703703702,0,0,0.03703703703703702,30.33333333333332,0)" xlink:href="#aL"/></g><path fill="#333" d="M194 0L95-120 63-95V0H30v-248h33v124l119-124h40L117-140 236 0h-42" id="bf"/><g id="S"><use transform="matrix(0.03703703703703702,0,0,0.03703703703703702,0,0)" xlink:href="#aE"/><use transform="matrix(0.03703703703703702,0,0,0.03703703703703702,8.888888888888886,0)" xlink:href="#aF"/><use transform="matrix(0.03703703703703702,0,0,0.03703703703703702,18.481481481481474,0)" xlink:href="#bf"/></g><g id="T"><use transform="matrix(0.03703703703703702,0,0,0.03703703703703702,0,0)" xlink:href="#aF"/><use transform="matrix(0.03703703703703702,0,0,0.03703703703703702,9.592592592592588,0)" xlink:href="#aE"/></g><g id="U"><use transform="matrix(0.03703703703703699,0,0,0.03703703703703699,0,0)" xlink:href="#aO"/><use transform="matrix(0.03703703703703699,0,0,0.03703703703703699,7.407407407407399,0)" xlink:href="#aV"/></g><path fill="#333" d="M143 0L79-87 56-68V0H24v-261h32v163l83-92h37l-77 82L181 0h-38" id="bg"/><path fill="#333" d="M59-47c-2 24 18 29 38 22v24C64 9 27 4 27-40v-127H5v-23h24l9-43h21v43h35v23H59v120" id="bh"/><g id="V"><use transform="matrix(0.03703703703703699,0,0,0.03703703703703699,0,0)" xlink:href="#aE"/><use transform="matrix(0.03703703703703699,0,0,0.03703703703703699,8.888888888888879,0)" xlink:href="#ax"/><use transform="matrix(0.03703703703703699,0,0,0.03703703703703699,16.296296296296276,0)" xlink:href="#aY"/><use transform="matrix(0.03703703703703699,0,0,0.03703703703703699,22.96296296296293,0)" xlink:href="#bg"/><use transform="matrix(0.03703703703703699,0,0,0.03703703703703699,29.62962962962959,0)" xlink:href="#av"/><use transform="matrix(0.03703703703703699,0,0,0.03703703703703699,37.03703703703699,0)" xlink:href="#bh"/></g><path fill="#333" d="M175 0L67-191c6 58 2 128 3 191H24v-248h59L193-55c-6-58-2-129-3-193h46V0h-61" id="bi"/><path fill="#333" d="M185-48c-13 30-37 53-82 52C43 2 14-33 14-96s30-98 90-98c62 0 83 45 84 108H66c0 31 8 55 39 56 18 0 30-7 34-22zm-45-69c5-46-57-63-70-21-2 6-4 13-4 21h74" id="bj"/><path fill="#333" d="M85 4C-2 5 27-109 22-190h50c7 57-23 150 33 157 60-5 35-97 40-157h50l1 190h-47c-2-12 1-28-3-38-12 25-28 42-61 42" id="bk"/><path fill="#333" d="M115-3C79 11 28 4 28-45v-112H4v-33h27l15-45h31v45h36v33H77v99c-1 23 16 31 38 25v30" id="bl"/><path fill="#333" d="M135-150c-39-12-60 13-60 57V0H25l-1-190h47c2 13-1 29 3 40 6-28 27-53 61-41v41" id="bm"/><path fill="#333" d="M133-34C117-15 103 5 69 4 32 3 11-16 11-54c-1-60 55-63 116-61 1-26-3-47-28-47-18 1-26 9-28 27l-52-2c7-38 36-58 82-57s74 22 75 68l1 82c-1 14 12 18 25 15v27c-30 8-71 5-69-32zm-48 3c29 0 43-24 42-57-32 0-66-3-65 30 0 17 8 27 23 27" id="bn"/><path fill="#333" d="M25 0v-261h50V0H25" id="bo"/><g id="W"><use transform="matrix(0.04938271604938272,0,0,0.04938271604938272,0,0)" xlink:href="#bi"/><use transform="matrix(0.04938271604938272,0,0,0.04938271604938272,12.790123456790125,0)" xlink:href="#bj"/><use transform="matrix(0.04938271604938272,0,0,0.04938271604938272,22.66666666666667,0)" xlink:href="#bk"/><use transform="matrix(0.04938271604938272,0,0,0.04938271604938272,33.48148148148149,0)" xlink:href="#bl"/><use transform="matrix(0.04938271604938272,0,0,0.04938271604938272,39.35802469135803,0)" xlink:href="#bm"/><use transform="matrix(0.04938271604938272,0,0,0.04938271604938272,46.271604938271615,0)" xlink:href="#bn"/><use transform="matrix(0.04938271604938272,0,0,0.04938271604938272,56.14814814814817,0)" xlink:href="#bo"/></g><path fill="#333" d="M24 0v-248h195v40H76v63h132v40H76v65h150V0H24" id="bp"/><path fill="#333" d="M114-157C55-157 80-60 75 0H25v-261h50l-1 109c12-26 28-41 61-42 86-1 58 113 63 194h-50c-7-57 23-157-34-157" id="bq"/><g id="X"><use transform="matrix(0.04938271604938272,0,0,0.04938271604938272,0,0)" xlink:href="#bp"/><use transform="matrix(0.04938271604938272,0,0,0.04938271604938272,11.851851851851853,0)" xlink:href="#bn"/><use transform="matrix(0.04938271604938272,0,0,0.04938271604938272,21.7283950617284,0)" xlink:href="#bm"/><use transform="matrix(0.04938271604938272,0,0,0.04938271604938272,28.64197530864198,0)" xlink:href="#bl"/><use transform="matrix(0.04938271604938272,0,0,0.04938271604938272,34.518518518518526,0)" xlink:href="#bq"/></g><path fill="#333" d="M24 0v-248h52v208h133V0H24" id="br"/><path fill="#333" d="M25-224v-37h50v37H25zM25 0v-190h50V0H25" id="bs"/><path fill="#333" d="M128 0H69L1-190h53L99-40l48-150h52" id="bt"/><g id="Y"><use transform="matrix(0.04938271604938272,0,0,0.04938271604938272,0,0)" xlink:href="#br"/><use transform="matrix(0.04938271604938272,0,0,0.04938271604938272,10.814814814814815,0)" xlink:href="#bs"/><use transform="matrix(0.04938271604938272,0,0,0.04938271604938272,15.753086419753087,0)" xlink:href="#bt"/><use transform="matrix(0.04938271604938272,0,0,0.04938271604938272,25.629629629629633,0)" xlink:href="#bj"/></g><g id="Z"><use transform="matrix(0.04320987654320981,0,0,0.04320987654320981,0,0)" xlink:href="#aW"/><use transform="matrix(0.04320987654320981,0,0,0.04320987654320981,12.919753086419734,0)" xlink:href="#ax"/><use transform="matrix(0.04320987654320981,0,0,0.04320987654320981,21.561728395061696,0)" xlink:href="#bb"/><use transform="matrix(0.04320987654320981,0,0,0.04320987654320981,30.20370370370366,0)" xlink:href="#av"/><use transform="matrix(0.04320987654320981,0,0,0.04320987654320981,38.84567901234562,0)" xlink:href="#aw"/></g><path fill="#333" d="M30-248c87 1 191-15 191 75 0 78-77 80-158 76V0H30v-248zm33 125c57 0 124 11 124-50 0-59-68-47-124-48v98" id="bu"/><path fill="#333" d="M206 0h-36l-40-164L89 0H53L-1-190h32L70-26l43-164h34l41 164 42-164h31" id="bv"/><g id="aa"><use transform="matrix(0.04320987654320981,0,0,0.04320987654320981,0,0)" xlink:href="#bu"/><use transform="matrix(0.04320987654320981,0,0,0.04320987654320981,10.370370370370354,0)" xlink:href="#ax"/><use transform="matrix(0.04320987654320981,0,0,0.04320987654320981,19.012345679012316,0)" xlink:href="#bv"/><use transform="matrix(0.04320987654320981,0,0,0.04320987654320981,30.20370370370366,0)" xlink:href="#av"/><use transform="matrix(0.04320987654320981,0,0,0.04320987654320981,38.84567901234562,0)" xlink:href="#aZ"/></g><g id="ab"><use transform="matrix(0.04320987654320981,0,0,0.04320987654320981,0,0)" xlink:href="#aE"/><use transform="matrix(0.04320987654320981,0,0,0.04320987654320981,10.370370370370354,0)" xlink:href="#ax"/><use transform="matrix(0.04320987654320981,0,0,0.04320987654320981,19.012345679012316,0)" xlink:href="#aY"/><use transform="matrix(0.04320987654320981,0,0,0.04320987654320981,26.790123456790084,0)" xlink:href="#bg"/><use transform="matrix(0.04320987654320981,0,0,0.04320987654320981,34.56790123456785,0)" xlink:href="#av"/><use transform="matrix(0.04320987654320981,0,0,0.04320987654320981,43.20987654320981,0)" xlink:href="#bh"/></g><path fill="#333" d="M84 4C-5 8 30-112 23-190h32v120c0 31 7 50 39 49 72-2 45-101 50-169h31l1 190h-30c-1-10 1-25-2-33-11 22-28 36-60 37" id="bw"/><g id="ac"><use transform="matrix(0.04320987654320981,0,0,0.04320987654320981,0,0)" xlink:href="#aB"/><use transform="matrix(0.04320987654320981,0,0,0.04320987654320981,11.191358024691342,0)" xlink:href="#ax"/><use transform="matrix(0.04320987654320981,0,0,0.04320987654320981,19.833333333333304,0)" xlink:href="#bw"/><use transform="matrix(0.04320987654320981,0,0,0.04320987654320981,28.475308641975268,0)" xlink:href="#bh"/><use transform="matrix(0.04320987654320981,0,0,0.04320987654320981,32.79629629629625,0)" xlink:href="#av"/><use transform="matrix(0.04320987654320981,0,0,0.04320987654320981,41.43827160493821,0)" xlink:href="#aZ"/></g><g id="ad"><use transform="matrix(0.03703703703703702,0,0,0.03703703703703702,0,0)" xlink:href="#aW"/><use transform="matrix(0.03703703703703702,0,0,0.03703703703703702,11.074074074074069,0)" xlink:href="#ax"/><use transform="matrix(0.03703703703703702,0,0,0.03703703703703702,18.481481481481474,0)" xlink:href="#bb"/><use transform="matrix(0.03703703703703702,0,0,0.03703703703703702,25.88888888888888,0)" xlink:href="#av"/><use transform="matrix(0.03703703703703702,0,0,0.03703703703703702,33.29629629629628,0)" xlink:href="#aw"/></g><g id="ae"><use transform="matrix(0.03703703703703702,0,0,0.03703703703703702,0,0)" xlink:href="#bu"/><use transform="matrix(0.03703703703703702,0,0,0.03703703703703702,8.888888888888886,0)" xlink:href="#ax"/><use transform="matrix(0.03703703703703702,0,0,0.03703703703703702,16.29629629629629,0)" xlink:href="#bv"/><use transform="matrix(0.03703703703703702,0,0,0.03703703703703702,25.88888888888888,0)" xlink:href="#av"/><use transform="matrix(0.03703703703703702,0,0,0.03703703703703702,33.29629629629628,0)" xlink:href="#aZ"/></g><path fill="#333" d="M117-194c89-4 53 116 60 194h-32v-121c0-31-8-49-39-48C34-167 62-67 57 0H25l-1-190h30c1 10-1 24 2 32 11-22 29-35 61-36" id="bx"/><g id="af"><use transform="matrix(0.03703703703703702,0,0,0.03703703703703702,0,0)" xlink:href="#aL"/><use transform="matrix(0.03703703703703702,0,0,0.03703703703703702,3.703703703703702,0)" xlink:href="#bx"/><use transform="matrix(0.03703703703703702,0,0,0.03703703703703702,11.111111111111107,0)" xlink:href="#bb"/><use transform="matrix(0.03703703703703702,0,0,0.03703703703703702,18.51851851851851,0)" xlink:href="#aX"/><use transform="matrix(0.03703703703703702,0,0,0.03703703703703702,21.444444444444432,0)" xlink:href="#aY"/><use transform="matrix(0.03703703703703702,0,0,0.03703703703703702,28.111111111111097,0)" xlink:href="#ba"/><use transform="matrix(0.03703703703703702,0,0,0.03703703703703702,35.5185185185185,0)" xlink:href="#bh"/><use transform="matrix(0.03703703703703702,0,0,0.03703703703703702,39.2222222222222,0)" xlink:href="#ax"/><use transform="matrix(0.03703703703703702,0,0,0.03703703703703702,46.6296296296296,0)" xlink:href="#aZ"/></g><g id="ag"><use transform="matrix(0.03703703703703702,0,0,0.03703703703703702,0,0)" xlink:href="#aB"/><use transform="matrix(0.03703703703703702,0,0,0.03703703703703702,9.592592592592588,0)" xlink:href="#ax"/><use transform="matrix(0.03703703703703702,0,0,0.03703703703703702,16.999999999999993,0)" xlink:href="#bw"/><use transform="matrix(0.03703703703703702,0,0,0.03703703703703702,24.407407407407398,0)" xlink:href="#bh"/><use transform="matrix(0.03703703703703702,0,0,0.03703703703703702,28.1111111111111,0)" xlink:href="#av"/><use transform="matrix(0.03703703703703702,0,0,0.03703703703703702,35.518518518518505,0)" xlink:href="#aZ"/></g><g id="ah"><use transform="matrix(0.06172839506172839,0,0,0.06172839506172839,0,0)" xlink:href="#aG"/><use transform="matrix(0.06172839506172839,0,0,0.06172839506172839,12.345679012345679,0)" xlink:href="#bw"/><use transform="matrix(0.06172839506172839,0,0,0.06172839506172839,24.691358024691358,0)" xlink:href="#ay"/><use transform="matrix(0.06172839506172839,0,0,0.06172839506172839,35.80246913580247,0)" xlink:href="#bh"/><use transform="matrix(0.06172839506172839,0,0,0.06172839506172839,41.97530864197531,0)" xlink:href="#av"/><use transform="matrix(0.06172839506172839,0,0,0.06172839506172839,54.32098765432099,0)" xlink:href="#aZ"/></g><g id="ai"><use transform="matrix(0.06172839506172839,0,0,0.06172839506172839,0,0)" xlink:href="#aI"/><use transform="matrix(0.06172839506172839,0,0,0.06172839506172839,11.049382716049381,0)" xlink:href="#av"/><use transform="matrix(0.06172839506172839,0,0,0.06172839506172839,23.39506172839506,0)" xlink:href="#aZ"/><use transform="matrix(0.06172839506172839,0,0,0.06172839506172839,30.74074074074074,0)" xlink:href="#aw"/><use transform="matrix(0.06172839506172839,0,0,0.06172839506172839,49.19753086419753,0)" xlink:href="#aX"/><use transform="matrix(0.06172839506172839,0,0,0.06172839506172839,54.074074074074076,0)" xlink:href="#bx"/><use transform="matrix(0.06172839506172839,0,0,0.06172839506172839,66.41975308641976,0)" xlink:href="#ba"/><use transform="matrix(0.06172839506172839,0,0,0.06172839506172839,78.76543209876544,0)" xlink:href="#bc"/></g><g id="aj"><use transform="matrix(0.06172839506172839,0,0,0.06172839506172839,0,0)" xlink:href="#aW"/><use transform="matrix(0.06172839506172839,0,0,0.06172839506172839,18.456790123456788,0)" xlink:href="#ba"/><use transform="matrix(0.06172839506172839,0,0,0.06172839506172839,30.80246913580247,0)" xlink:href="#aX"/><use transform="matrix(0.06172839506172839,0,0,0.06172839506172839,35.67901234567901,0)" xlink:href="#bx"/><use transform="matrix(0.06172839506172839,0,0,0.06172839506172839,48.02469135802469,0)" xlink:href="#ay"/></g><g id="ak"><use transform="matrix(0.06172839506172839,0,0,0.06172839506172839,0,0)" xlink:href="#bu"/><use transform="matrix(0.06172839506172839,0,0,0.06172839506172839,14.814814814814813,0)" xlink:href="#ax"/><use transform="matrix(0.06172839506172839,0,0,0.06172839506172839,27.160493827160494,0)" xlink:href="#bv"/><use transform="matrix(0.06172839506172839,0,0,0.06172839506172839,43.148148148148145,0)" xlink:href="#av"/><use transform="matrix(0.06172839506172839,0,0,0.06172839506172839,55.49382716049382,0)" xlink:href="#aZ"/></g><path fill="#333" d="M177-190C167-65 218 103 67 71c-23-6-38-20-44-43l32-5c15 47 100 32 89-28v-30C133-14 115 1 83 1 29 1 15-40 15-95c0-56 16-97 71-98 29-1 48 16 59 35 1-10 0-23 2-32h30zM94-22c36 0 50-32 50-73 0-42-14-75-50-75-39 0-46 34-46 75s6 73 46 73" id="by"/><g id="al"><use transform="matrix(0.06172839506172839,0,0,0.06172839506172839,0,0)" xlink:href="#bu"/><use transform="matrix(0.06172839506172839,0,0,0.06172839506172839,14.814814814814813,0)" xlink:href="#bc"/><use transform="matrix(0.06172839506172839,0,0,0.06172839506172839,19.691358024691354,0)" xlink:href="#bw"/><use transform="matrix(0.06172839506172839,0,0,0.06172839506172839,32.03703703703703,0)" xlink:href="#by"/></g><path fill="#333" d="M16-82v-28h88v28H16" id="bz"/><path fill="#333" d="M18-27v-27l151-64-151-65v-27l175 74v36" id="bA"/><g id="am"><use transform="matrix(0.06172839506172839,0,0,0.06172839506172839,0,0)" xlink:href="#aD"/><use transform="matrix(0.06172839506172839,0,0,0.06172839506172839,12.345679012345679,0)" xlink:href="#aD"/><use transform="matrix(0.06172839506172839,0,0,0.06172839506172839,24.691358024691358,0)" xlink:href="#aU"/><use transform="matrix(0.06172839506172839,0,0,0.06172839506172839,37.03703703703704,0)" xlink:href="#aV"/><use transform="matrix(0.06172839506172839,0,0,0.06172839506172839,50.18518518518519,0)" xlink:href="#aH"/><use transform="matrix(0.06172839506172839,0,0,0.06172839506172839,65,0)" xlink:href="#aF"/><use transform="matrix(0.06172839506172839,0,0,0.06172839506172839,80.98765432098766,0)" xlink:href="#bz"/><use transform="matrix(0.06172839506172839,0,0,0.06172839506172839,88.33333333333334,0)" xlink:href="#bA"/></g><path fill="#333" d="M0 4l72-265h28L28 4H0" id="bB"/><g id="an"><use transform="matrix(0.06172839506172839,0,0,0.06172839506172839,0,0)" xlink:href="#aO"/><use transform="matrix(0.06172839506172839,0,0,0.06172839506172839,12.345679012345679,0)" xlink:href="#aV"/><use transform="matrix(0.06172839506172839,0,0,0.06172839506172839,27.160493827160494,0)" xlink:href="#az"/><use transform="matrix(0.06172839506172839,0,0,0.06172839506172839,43.148148148148145,0)" xlink:href="#aF"/><use transform="matrix(0.06172839506172839,0,0,0.06172839506172839,59.1358024691358,0)" xlink:href="#bB"/><use transform="matrix(0.06172839506172839,0,0,0.06172839506172839,65.30864197530863,0)" xlink:href="#aS"/><use transform="matrix(0.06172839506172839,0,0,0.06172839506172839,77.65432098765432,0)" xlink:href="#aU"/><use transform="matrix(0.06172839506172839,0,0,0.06172839506172839,90,0)" xlink:href="#aU"/><use transform="matrix(0.06172839506172839,0,0,0.06172839506172839,102.34567901234568,0)" xlink:href="#aw"/><use transform="matrix(0.06172839506172839,0,0,0.06172839506172839,120.80246913580247,0)" xlink:href="#aH"/></g><g id="ao"><use transform="matrix(0.06172839506172839,0,0,0.06172839506172839,0,0)" xlink:href="#bu"/><use transform="matrix(0.06172839506172839,0,0,0.06172839506172839,14.814814814814813,0)" xlink:href="#ax"/><use transform="matrix(0.06172839506172839,0,0,0.06172839506172839,27.160493827160494,0)" xlink:href="#bv"/><use transform="matrix(0.06172839506172839,0,0,0.06172839506172839,43.148148148148145,0)" xlink:href="#av"/><use transform="matrix(0.06172839506172839,0,0,0.06172839506172839,55.49382716049382,0)" xlink:href="#aZ"/></g><path fill="#333" d="M115-194c55 1 70 41 70 98S169 2 115 4C84 4 66-9 55-30l1 105H24l-1-265h31l2 30c10-21 28-34 59-34zm-8 174c40 0 45-34 45-75s-6-73-45-74c-42 0-51 32-51 76 0 43 10 73 51 73" id="bC"/><g id="ap"><use transform="matrix(0.06172839506172839,0,0,0.06172839506172839,0,0)" xlink:href="#aE"/><use transform="matrix(0.06172839506172839,0,0,0.06172839506172839,14.814814814814813,0)" xlink:href="#bw"/><use transform="matrix(0.06172839506172839,0,0,0.06172839506172839,27.160493827160494,0)" xlink:href="#bC"/><use transform="matrix(0.06172839506172839,0,0,0.06172839506172839,39.50617283950617,0)" xlink:href="#bC"/><use transform="matrix(0.06172839506172839,0,0,0.06172839506172839,51.85185185185185,0)" xlink:href="#bc"/><use transform="matrix(0.06172839506172839,0,0,0.06172839506172839,56.72839506172839,0)" xlink:href="#bd"/></g><use transform="matrix(0.06172839506172839,0,0,0.06172839506172839,0,0)" xlink:href="#aG" id="aq"/><use transform="matrix(0.06172839506172839,0,0,0.06172839506172839,0,0)" xlink:href="#aK" id="ar"/><use transform="matrix(0.11111111111111108,0,0,0.11111111111111108,0,0)" xlink:href="#bz" id="as"/><path fill="#333" d="M118-107v75H92v-75H18v-26h74v-75h26v75h74v26h-74" id="bD"/><use transform="matrix(0.06172839506172839,0,0,0.06172839506172839,0,0)" xlink:href="#bD" id="at"/></defs></g></svg>