<svg xmlns="http://www.w3.org/2000/svg" xmlns:xlink="http://www.w3.org/1999/xlink" xmlns:lucid="lucid" width="2892.5" height="1082"><g transform="translate(-327.5 -249)" lucid:page-tab-id="0_0"><path d="M780 626c0-3.3 2.7-6 6-6h408c3.3 0 6 2.7 6 6v288c0 3.3-2.7 6-6 6H786c-3.3 0-6-2.7-6-6z" stroke="#5e5e5e" stroke-width="3" fill="#fff"/><use xlink:href="#a" transform="matrix(1,0,0,1,785,625) translate(126.94444444444446 149.18402777777777)"/><use xlink:href="#b" transform="matrix(1,0,0,1,785,625) translate(207.87037037037038 149.18402777777777)"/><use xlink:href="#c" transform="matrix(1,0,0,1,785,625) translate(242.37654320987653 149.18402777777777)"/><path d="M787 646c0-3.3 2.7-6 6-6h208c3.3 0 6 2.7 6 6v8c0 3.3-2.7 6-6 6H793c-3.3 0-6-2.7-6-6z" stroke="#5e5e5e" stroke-width="3" fill="#fff"/><path d="M804 651.33c0-1.84 1.5-3.33 3.33-3.33h1.34c1.84 0 3.33 1.5 3.33 3.33 0 1.84-1.5 3.34-3.33 3.34h-1.34c-1.84 0-3.33-1.5-3.33-3.34zM824 651.33c0-1.84 1.5-3.33 3.33-3.33h1.34c1.84 0 3.33 1.5 3.33 3.33 0 1.84-1.5 3.34-3.33 3.34h-1.34c-1.84 0-3.33-1.5-3.33-3.34zM844 651.33c0-1.84 1.5-3.33 3.33-3.33h1.34c1.84 0 3.33 1.5 3.33 3.33 0 1.84-1.5 3.34-3.33 3.34h-1.34c-1.84 0-3.33-1.5-3.33-3.34zM864 651.33c0-1.84 1.5-3.33 3.33-3.33h1.34c1.84 0 3.33 1.5 3.33 3.33 0 1.84-1.5 3.34-3.33 3.34h-1.34c-1.84 0-3.33-1.5-3.33-3.34zM884 651.33c0-1.84 1.5-3.33 3.33-3.33h1.34c1.84 0 3.33 1.5 3.33 3.33 0 1.84-1.5 3.34-3.33 3.34h-1.34c-1.84 0-3.33-1.5-3.33-3.34zM904 651.33c0-1.84 1.5-3.33 3.33-3.33h1.34c1.84 0 3.33 1.5 3.33 3.33 0 1.84-1.5 3.34-3.33 3.34h-1.34c-1.84 0-3.33-1.5-3.33-3.34zM924 651.33c0-1.84 1.5-3.33 3.33-3.33h1.34c1.84 0 3.33 1.5 3.33 3.33 0 1.84-1.5 3.34-3.33 3.34h-1.34c-1.84 0-3.33-1.5-3.33-3.34zM944 651.33c0-1.84 1.5-3.33 3.33-3.33h1.34c1.84 0 3.33 1.5 3.33 3.33 0 1.84-1.5 3.34-3.33 3.34h-1.34c-1.84 0-3.33-1.5-3.33-3.34zM964 651.33c0-1.84 1.5-3.33 3.33-3.33h1.34c1.84 0 3.33 1.5 3.33 3.33 0 1.84-1.5 3.34-3.33 3.34h-1.34c-1.84 0-3.33-1.5-3.33-3.34zM984 651.33c0-1.84 1.5-3.33 3.33-3.33h1.34c1.84 0 3.33 1.5 3.33 3.33 0 1.84-1.5 3.34-3.33 3.34h-1.34c-1.84 0-3.33-1.5-3.33-3.34z" stroke="#5e5e5e" stroke-width="3" fill="#fff"/><path d="M801 714.33c-3.3 0-6-2.68-6-6V675c0-3.3 2.7-6 6-6s6 2.7 6 6v33.33c0 3.32-2.7 6-6 6z" stroke="#000" stroke-opacity="0" stroke-width="3" fill="#fff" fill-opacity="0"/><use xlink:href="#d" transform="matrix(6.123233995736766e-17,-1,1,6.123233995736766e-17,800,709.3333333333333) translate(5.055555555555561 10.666666666666664)"/><path d="M821 714.33c-3.3 0-6-2.68-6-6V675c0-3.3 2.7-6 6-6s6 2.7 6 6v33.33c0 3.32-2.7 6-6 6z" stroke="#000" stroke-opacity="0" stroke-width="3" fill="#fff" fill-opacity="0"/><use xlink:href="#e" transform="matrix(6.123233995736766e-17,-1,1,6.123233995736766e-17,820,709.3333333333333) translate(4.31481481481482 10.666666666666664)"/><path d="M841 714.33c-3.3 0-6-2.68-6-6V675c0-3.3 2.7-6 6-6s6 2.7 6 6v33.33c0 3.32-2.7 6-6 6z" stroke="#000" stroke-opacity="0" stroke-width="3" fill="#fff" fill-opacity="0"/><use xlink:href="#f" transform="matrix(6.123233995736766e-17,-1,1,6.123233995736766e-17,840,709.3333333333333) translate(4.7037037037037095 10.666666666666664)"/><path d="M861 714.33c-3.3 0-6-2.68-6-6V675c0-3.3 2.7-6 6-6s6 2.7 6 6v33.33c0 3.32-2.7 6-6 6z" stroke="#000" stroke-opacity="0" stroke-width="3" fill="#fff" fill-opacity="0"/><use xlink:href="#g" transform="matrix(6.123233995736766e-17,-1,1,6.123233995736766e-17,860,709.3333333333333) translate(3.2222222222222285 10.666666666666664)"/><path d="M881 714.33c-3.3 0-6-2.68-6-6V675c0-3.3 2.7-6 6-6s6 2.7 6 6v33.33c0 3.32-2.7 6-6 6z" stroke="#000" stroke-opacity="0" stroke-width="3" fill="#fff" fill-opacity="0"/><use xlink:href="#h" transform="matrix(6.123233995736766e-17,-1,1,6.123233995736766e-17,880,709.3333333333333) translate(3.5555555555555607 10.666666666666664)"/><path d="M901 714.33c-3.3 0-6-2.68-6-6V675c0-3.3 2.7-6 6-6s6 2.7 6 6v33.33c0 3.32-2.7 6-6 6z" stroke="#000" stroke-opacity="0" stroke-width="3" fill="#fff" fill-opacity="0"/><use xlink:href="#i" transform="matrix(6.123233995736766e-17,-1,1,6.123233995736766e-17,900,709.3333333333333) translate(3.5555555555555607 10.666666666666664)"/><path d="M921 714.33c-3.3 0-6-2.68-6-6V675c0-3.3 2.7-6 6-6s6 2.7 6 6v33.33c0 3.32-2.7 6-6 6z" stroke="#000" stroke-opacity="0" stroke-width="3" fill="#fff" fill-opacity="0"/><use xlink:href="#j" transform="matrix(6.123233995736766e-17,-1,1,6.123233995736766e-17,920,709.3333333333333) translate(3.5555555555555607 10.666666666666664)"/><path d="M941 714.33c-3.3 0-6-2.68-6-6V675c0-3.3 2.7-6 6-6s6 2.7 6 6v33.33c0 3.32-2.7 6-6 6z" stroke="#000" stroke-opacity="0" stroke-width="3" fill="#fff" fill-opacity="0"/><use xlink:href="#k" transform="matrix(6.123233995736766e-17,-1,1,6.123233995736766e-17,939.9999999999999,709.3333333333333) translate(7.259259259259263 10.666666666666664)"/><path d="M961 713.33c-3.3 0-6-2.68-6-6V674c0-3.3 2.7-6 6-6s6 2.7 6 6v33.33c0 3.32-2.7 6-6 6z" stroke="#000" stroke-opacity="0" stroke-width="3" fill="#fff" fill-opacity="0"/><use xlink:href="#l" transform="matrix(6.123233995736766e-17,-1,1,6.123233995736766e-17,960,708.3333333333333) translate(3.5555555555555607 10.666666666666664)"/><path d="M981 712.33c-3.3 0-6-2.68-6-6V673c0-3.3 2.7-6 6-6s6 2.7 6 6v33.33c0 3.32-2.7 6-6 6z" stroke="#000" stroke-opacity="0" stroke-width="3" fill="#fff" fill-opacity="0"/><use xlink:href="#m" transform="matrix(6.123233995736766e-17,-1,1,6.123233995736766e-17,980,707.3333333333333) translate(3.5555555555555607 10.666666666666664)"/><path d="M1014 646c0-3.3 2.7-6 6-6h156c3.3 0 6 2.7 6 6v8c0 3.3-2.7 6-6 6h-156c-3.3 0-6-2.7-6-6z" stroke="#5e5e5e" stroke-width="3" fill="#fff"/><path d="M1021 706.33c-3.3 0-6-2.68-6-6V667c0-3.3 2.7-6 6-6s6 2.7 6 6v33.33c0 3.32-2.7 6-6 6z" stroke="#000" stroke-opacity="0" stroke-width="3" fill="#fff" fill-opacity="0"/><use xlink:href="#n" transform="matrix(6.123233995736766e-17,-1,1,6.123233995736766e-17,1020,701.3333333333333) translate(3.5555555555555607 10.666666666666664)"/><path d="M1041 706.33c-3.3 0-6-2.68-6-6V667c0-3.3 2.7-6 6-6s6 2.7 6 6v33.33c0 3.32-2.7 6-6 6z" stroke="#000" stroke-opacity="0" stroke-width="3" fill="#fff" fill-opacity="0"/><use xlink:href="#o" transform="matrix(6.123233995736766e-17,-1,1,6.123233995736766e-17,1040,701.3333333333333) translate(3.5555555555555607 10.666666666666664)"/><path d="M1061 706.33c-3.3 0-6-2.68-6-6V667c0-3.3 2.7-6 6-6s6 2.7 6 6v33.33c0 3.32-2.7 6-6 6z" stroke="#000" stroke-opacity="0" stroke-width="3" fill="#fff" fill-opacity="0"/><use xlink:href="#p" transform="matrix(6.123233995736766e-17,-1,1,6.123233995736766e-17,1060,701.3333333333333) translate(3.5555555555555607 10.666666666666664)"/><path d="M1081 706.33c-3.3 0-6-2.68-6-6V667c0-3.3 2.7-6 6-6s6 2.7 6 6v33.33c0 3.32-2.7 6-6 6z" stroke="#000" stroke-opacity="0" stroke-width="3" fill="#fff" fill-opacity="0"/><use xlink:href="#q" transform="matrix(6.123233995736766e-17,-1,1,6.123233995736766e-17,1080,701.3333333333333) translate(3.5555555555555607 10.666666666666664)"/><path d="M1101 707.33c-3.3 0-6-2.68-6-6V668c0-3.3 2.7-6 6-6s6 2.7 6 6v33.33c0 3.32-2.7 6-6 6z" stroke="#000" stroke-opacity="0" stroke-width="3" fill="#fff" fill-opacity="0"/><use xlink:href="#r" transform="matrix(6.123233995736766e-17,-1,1,6.123233995736766e-17,1100,702.3333333333333) translate(3.5555555555555607 10.666666666666664)"/><path d="M1121 707.33c-3.3 0-6-2.68-6-6V668c0-3.3 2.7-6 6-6s6 2.7 6 6v33.33c0 3.32-2.7 6-6 6z" stroke="#000" stroke-opacity="0" stroke-width="3" fill="#fff" fill-opacity="0"/><use xlink:href="#s" transform="matrix(6.123233995736766e-17,-1,1,6.123233995736766e-17,1120,702.3333333333333) translate(3.5555555555555607 10.666666666666664)"/><path d="M1024 651.33c0-1.84 1.5-3.33 3.33-3.33h1.34c1.84 0 3.33 1.5 3.33 3.33 0 1.84-1.5 3.34-3.33 3.34h-1.34c-1.84 0-3.33-1.5-3.33-3.34zM1044 651.33c0-1.84 1.5-3.33 3.33-3.33h1.34c1.84 0 3.33 1.5 3.33 3.33 0 1.84-1.5 3.34-3.33 3.34h-1.34c-1.84 0-3.33-1.5-3.33-3.34zM1064 651.33c0-1.84 1.5-3.33 3.33-3.33h1.34c1.84 0 3.33 1.5 3.33 3.33 0 1.84-1.5 3.34-3.33 3.34h-1.34c-1.84 0-3.33-1.5-3.33-3.34zM1084 651.33c0-1.84 1.5-3.33 3.33-3.33h1.34c1.84 0 3.33 1.5 3.33 3.33 0 1.84-1.5 3.34-3.33 3.34h-1.34c-1.84 0-3.33-1.5-3.33-3.34zM1104 651.33c0-1.84 1.5-3.33 3.33-3.33h1.34c1.84 0 3.33 1.5 3.33 3.33 0 1.84-1.5 3.34-3.33 3.34h-1.34c-1.84 0-3.33-1.5-3.33-3.34zM1124 651.33c0-1.84 1.5-3.33 3.33-3.33h1.34c1.84 0 3.33 1.5 3.33 3.33 0 1.84-1.5 3.34-3.33 3.34h-1.34c-1.84 0-3.33-1.5-3.33-3.34zM1144 651.33c0-1.84 1.5-3.33 3.33-3.33h1.34c1.84 0 3.33 1.5 3.33 3.33 0 1.84-1.5 3.34-3.33 3.34h-1.34c-1.84 0-3.33-1.5-3.33-3.34zM1164 651.33c0-1.84 1.5-3.33 3.33-3.33h1.34c1.84 0 3.33 1.5 3.33 3.33 0 1.84-1.5 3.34-3.33 3.34h-1.34c-1.84 0-3.33-1.5-3.33-3.34z" stroke="#5e5e5e" stroke-width="3" fill="#fff"/><path d="M1141 708.33c-3.3 0-6-2.68-6-6V669c0-3.3 2.7-6 6-6s6 2.7 6 6v33.33c0 3.32-2.7 6-6 6z" stroke="#000" stroke-opacity="0" stroke-width="3" fill="#fff" fill-opacity="0"/><use xlink:href="#t" transform="matrix(6.123233995736766e-17,-1,1,6.123233995736766e-17,1140,703.3333333333333) translate(5.796296296296301 10.666666666666664)"/><path d="M1161 708.33c-3.3 0-6-2.68-6-6V669c0-3.3 2.7-6 6-6s6 2.7 6 6v33.33c0 3.32-2.7 6-6 6z" stroke="#000" stroke-opacity="0" stroke-width="3" fill="#fff" fill-opacity="0"/><use xlink:href="#u" transform="matrix(6.123233995736766e-17,-1,1,6.123233995736766e-17,1160,703.3333333333333) translate(5.055555555555561 10.666666666666664)"/><path d="M859 886c0-3.3 2.7-6 6-6h168c3.3 0 6 2.7 6 6v8c0 3.3-2.7 6-6 6H865c-3.3 0-6-2.7-6-6z" stroke="#5e5e5e" stroke-width="3" fill="#fff"/><path d="M877 889.33c0-1.84 1.5-3.33 3.33-3.33h1.34c1.84 0 3.33 1.5 3.33 3.33 0 1.84-1.5 3.34-3.33 3.34h-1.34c-1.84 0-3.33-1.5-3.33-3.34zM897 889.33c0-1.84 1.5-3.33 3.33-3.33h1.34c1.84 0 3.33 1.5 3.33 3.33 0 1.84-1.5 3.34-3.33 3.34h-1.34c-1.84 0-3.33-1.5-3.33-3.34zM917 889.33c0-1.84 1.5-3.33 3.33-3.33h1.34c1.84 0 3.33 1.5 3.33 3.33 0 1.84-1.5 3.34-3.33 3.34h-1.34c-1.84 0-3.33-1.5-3.33-3.34zM937 889.33c0-1.84 1.5-3.33 3.33-3.33h1.34c1.84 0 3.33 1.5 3.33 3.33 0 1.84-1.5 3.34-3.33 3.34h-1.34c-1.84 0-3.33-1.5-3.33-3.34zM957 889.33c0-1.84 1.5-3.33 3.33-3.33h1.34c1.84 0 3.33 1.5 3.33 3.33 0 1.84-1.5 3.34-3.33 3.34h-1.34c-1.84 0-3.33-1.5-3.33-3.34zM977 889.33c0-1.84 1.5-3.33 3.33-3.33h1.34c1.84 0 3.33 1.5 3.33 3.33 0 1.84-1.5 3.34-3.33 3.34h-1.34c-1.84 0-3.33-1.5-3.33-3.34zM997 889.33c0-1.84 1.5-3.33 3.33-3.33h1.34c1.84 0 3.33 1.5 3.33 3.33 0 1.84-1.5 3.34-3.33 3.34h-1.34c-1.84 0-3.33-1.5-3.33-3.34zM1017 889.33c0-1.84 1.5-3.33 3.33-3.33h1.34c1.84 0 3.33 1.5 3.33 3.33 0 1.84-1.5 3.34-3.33 3.34h-1.34c-1.84 0-3.33-1.5-3.33-3.34z" stroke="#5e5e5e" stroke-width="3" fill="#fff"/><path d="M875 878.33c-3.3 0-6-2.68-6-6V839c0-3.3 2.7-6 6-6s6 2.7 6 6v33.33c0 3.32-2.7 6-6 6z" stroke="#000" stroke-opacity="0" stroke-width="3" fill="#fff" fill-opacity="0"/><use xlink:href="#v" transform="matrix(6.123233995736766e-17,-1,1,6.123233995736766e-17,874,873.3333333333335) translate(7.259259259259263 10.666666666666664)"/><path d="M895 878.33c-3.3 0-6-2.68-6-6V839c0-3.3 2.7-6 6-6s6 2.7 6 6v33.33c0 3.32-2.7 6-6 6z" stroke="#000" stroke-opacity="0" stroke-width="3" fill="#fff" fill-opacity="0"/><use xlink:href="#w" transform="matrix(6.123233995736766e-17,-1,1,6.123233995736766e-17,894,873.3333333333333) translate(9.851851851851855 10.666666666666664)"/><path d="M915 879.33c-3.3 0-6-2.68-6-6V840c0-3.3 2.7-6 6-6s6 2.7 6 6v33.33c0 3.32-2.7 6-6 6z" stroke="#000" stroke-opacity="0" stroke-width="3" fill="#fff" fill-opacity="0"/><use xlink:href="#f" transform="matrix(6.123233995736766e-17,-1,1,6.123233995736766e-17,914,874.3333333333333) translate(4.7037037037037095 10.666666666666664)"/><path d="M935 880.33c-3.3 0-6-2.68-6-6V841c0-3.3 2.7-6 6-6s6 2.7 6 6v33.33c0 3.32-2.7 6-6 6z" stroke="#000" stroke-opacity="0" stroke-width="3" fill="#fff" fill-opacity="0"/><use xlink:href="#x" transform="matrix(6.123233995736766e-17,-1,1,6.123233995736766e-17,933.9999999999999,875.3333333333333) translate(6.148148148148152 10.666666666666664)"/><path d="M955 882.33c-3.3 0-6-2.68-6-6V843c0-3.3 2.7-6 6-6s6 2.7 6 6v33.33c0 3.32-2.7 6-6 6z" stroke="#000" stroke-opacity="0" stroke-width="3" fill="#fff" fill-opacity="0"/><use xlink:href="#w" transform="matrix(6.123233995736766e-17,-1,1,6.123233995736766e-17,954,877.3333333333333) translate(9.851851851851855 10.666666666666664)"/><path d="M975 882.33c-3.3 0-6-2.68-6-6V843c0-3.3 2.7-6 6-6s6 2.7 6 6v33.33c0 3.32-2.7 6-6 6z" stroke="#000" stroke-opacity="0" stroke-width="3" fill="#fff" fill-opacity="0"/><use xlink:href="#g" transform="matrix(6.123233995736766e-17,-1,1,6.123233995736766e-17,974,877.3333333333333) translate(3.2222222222222285 10.666666666666664)"/><path d="M995 881.33c-3.3 0-6-2.68-6-6V842c0-3.3 2.7-6 6-6s6 2.7 6 6v33.33c0 3.32-2.7 6-6 6z" stroke="#000" stroke-opacity="0" stroke-width="3" fill="#fff" fill-opacity="0"/><use xlink:href="#g" transform="matrix(6.123233995736766e-17,-1,1,6.123233995736766e-17,994,876.3333333333333) translate(3.2222222222222285 10.666666666666664)"/><path d="M1015 883.33c-3.3 0-6-2.68-6-6V844c0-3.3 2.7-6 6-6s6 2.7 6 6v33.33c0 3.32-2.7 6-6 6z" stroke="#000" stroke-opacity="0" stroke-width="3" fill="#fff" fill-opacity="0"/><use xlink:href="#y" transform="matrix(6.123233995736766e-17,-1,1,6.123233995736766e-17,1014,878.3333333333333) translate(8.759259259259263 10.666666666666664)"/><path d="M1047 886c0-3.3 2.7-6 6-6h123c3.3 0 6 2.7 6 6v8c0 3.3-2.7 6-6 6h-123c-3.3 0-6-2.7-6-6z" stroke="#5e5e5e" stroke-width="3" fill="#fff"/><path d="M1062 889.33c0-1.84 1.5-3.33 3.33-3.33h1.34c1.84 0 3.33 1.5 3.33 3.33 0 1.84-1.5 3.34-3.33 3.34h-1.34c-1.84 0-3.33-1.5-3.33-3.34zM1082 889.33c0-1.84 1.5-3.33 3.33-3.33h1.34c1.84 0 3.33 1.5 3.33 3.33 0 1.84-1.5 3.34-3.33 3.34h-1.34c-1.84 0-3.33-1.5-3.33-3.34zM1102 889.33c0-1.84 1.5-3.33 3.33-3.33h1.34c1.84 0 3.33 1.5 3.33 3.33 0 1.84-1.5 3.34-3.33 3.34h-1.34c-1.84 0-3.33-1.5-3.33-3.34zM1122 889.33c0-1.84 1.5-3.33 3.33-3.33h1.34c1.84 0 3.33 1.5 3.33 3.33 0 1.84-1.5 3.34-3.33 3.34h-1.34c-1.84 0-3.33-1.5-3.33-3.34zM1142 889.33c0-1.84 1.5-3.33 3.33-3.33h1.34c1.84 0 3.33 1.5 3.33 3.33 0 1.84-1.5 3.34-3.33 3.34h-1.34c-1.84 0-3.33-1.5-3.33-3.34zM1162 889.33c0-1.84 1.5-3.33 3.33-3.33h1.34c1.84 0 3.33 1.5 3.33 3.33 0 1.84-1.5 3.34-3.33 3.34h-1.34c-1.84 0-3.33-1.5-3.33-3.34z" stroke="#5e5e5e" stroke-width="3" fill="#fff"/><path d="M1060 887.33c-3.3 0-6-2.68-6-6V848c0-3.3 2.7-6 6-6s6 2.7 6 6v33.33c0 3.32-2.7 6-6 6z" stroke="#000" stroke-opacity="0" stroke-width="3" fill="#fff" fill-opacity="0"/><use xlink:href="#z" transform="matrix(6.123233995736766e-17,-1,1,6.123233995736766e-17,1059,882.3333333333333) translate(7.259259259259263 10.666666666666664)"/><path d="M1080 888.33c-3.3 0-6-2.68-6-6V849c0-3.3 2.7-6 6-6s6 2.7 6 6v33.33c0 3.32-2.7 6-6 6z" stroke="#000" stroke-opacity="0" stroke-width="3" fill="#fff" fill-opacity="0"/><use xlink:href="#A" transform="matrix(6.123233995736766e-17,-1,1,6.123233995736766e-17,1079,883.3333333333333) translate(7.259259259259263 10.666666666666664)"/><path d="M1100 884.33c-3.3 0-6-2.68-6-6V845c0-3.3 2.7-6 6-6s6 2.7 6 6v33.33c0 3.32-2.7 6-6 6z" stroke="#000" stroke-opacity="0" stroke-width="3" fill="#fff" fill-opacity="0"/><use xlink:href="#B" transform="matrix(6.123233995736766e-17,-1,1,6.123233995736766e-17,1099,879.3333333333333) translate(3.5555555555555607 10.666666666666664)"/><path d="M1120 883.33c-3.3 0-6-2.68-6-6V844c0-3.3 2.7-6 6-6s6 2.7 6 6v33.33c0 3.32-2.7 6-6 6z" stroke="#000" stroke-opacity="0" stroke-width="3" fill="#fff" fill-opacity="0"/><use xlink:href="#C" transform="matrix(6.123233995736766e-17,-1,1,6.123233995736766e-17,1119,878.3333333333333) translate(3.5555555555555607 10.666666666666664)"/><path d="M1140 884.33c-3.3 0-6-2.68-6-6V845c0-3.3 2.7-6 6-6s6 2.7 6 6v33.33c0 3.32-2.7 6-6 6z" stroke="#000" stroke-opacity="0" stroke-width="3" fill="#fff" fill-opacity="0"/><use xlink:href="#D" transform="matrix(6.123233995736766e-17,-1,1,6.123233995736766e-17,1139,879.3333333333333) translate(3.5555555555555607 10.666666666666664)"/><path d="M1160 884.33c-3.3 0-6-2.68-6-6V845c0-3.3 2.7-6 6-6s6 2.7 6 6v33.33c0 3.32-2.7 6-6 6z" stroke="#000" stroke-opacity="0" stroke-width="3" fill="#fff" fill-opacity="0"/><use xlink:href="#E" transform="matrix(6.123233995736766e-17,-1,1,6.123233995736766e-17,1159,879.3333333333333) translate(3.5555555555555607 10.666666666666664)"/><path d="M815 286c0-3.3 2.7-6 6-6h148c3.3 0 6 2.7 6 6v208c0 3.3-2.7 6-6 6H821c-3.3 0-6-2.7-6-6z" stroke="#5e5e5e" stroke-width="3" fill="#fff"/><use xlink:href="#F" transform="matrix(1,0,0,1,820,285) translate(2.345679012345684 96.52777777777777)"/><use xlink:href="#G" transform="matrix(1,0,0,1,820,285) translate(62.65432098765432 96.52777777777777)"/><use xlink:href="#H" transform="matrix(1,0,0,1,820,285) translate(99.62962962962963 96.52777777777777)"/><use xlink:href="#I" transform="matrix(1,0,0,1,820,285) translate(38.641975308641975 123.19444444444446)"/><path d="M1377.5 841.83H1280c-3.3 0-6-2.7-6-6V584.5c0-3.3-2.7-6-6-6h-150.67c-3.3 0-6 2.7-6 6v33" stroke="#834187" stroke-width="2" fill="none"/><path d="M1378.5 842.83h-1.03v-2h1.03zM1112.33 618.5h-2v-1.03h2z" fill="#834187"/><path d="M1377.5 863.03H1250c-3.3 0-6-2.7-6-6V606c0-3.3-2.7-6-6-6h-107.33c-3.32 0-6 2.7-6 6v11.5" stroke="#b2b2b2" stroke-width="2" fill="none"/><path d="M1378.5 864.03h-1.03v-2h1.03zM1125.67 618.5h-2v-1.03h2z" fill="#b2b2b2"/><path d="M1380 657c0-3.3 2.7-6 6-6h248c3.3 0 6 2.7 6 6v240.67c0 3.3-2.7 6-6 6h-248c-3.3 0-6-2.7-6-6z" stroke="#5e5e5e" stroke-width="3" fill="#fff"/><use xlink:href="#J" transform="matrix(1,0,0,1,1395,666) translate(0 17.77777777777778)"/><use xlink:href="#K" transform="matrix(1,0,0,1,1395,666) translate(0 44.44444444444444)"/><path d="M1394 821.67c0-1.48 1.2-2.67 2.67-2.67h1.33c1.47 0 2.67 1.2 2.67 2.67s-1.2 2.66-2.67 2.66h-1.33c-1.48 0-2.67-1.2-2.67-2.66zM1394 841.67c0-1.48 1.2-2.67 2.67-2.67h1.33c1.47 0 2.67 1.2 2.67 2.67s-1.2 2.66-2.67 2.66h-1.33c-1.48 0-2.67-1.2-2.67-2.66zM1394 861.67c0-1.48 1.2-2.67 2.67-2.67h1.33c1.47 0 2.67 1.2 2.67 2.67s-1.2 2.66-2.67 2.66h-1.33c-1.48 0-2.67-1.2-2.67-2.66zM1394 881.67c0-1.48 1.2-2.67 2.67-2.67h1.33c1.47 0 2.67 1.2 2.67 2.67s-1.2 2.66-2.67 2.66h-1.33c-1.48 0-2.67-1.2-2.67-2.66z" stroke="#5e5e5e" stroke-width="3" fill="#fff"/><path d="M1400 817c0-3.3 2.7-6 6-6h32c3.3 0 6 2.7 6 6v8c0 3.3-2.7 6-6 6h-32c-3.3 0-6-2.7-6-6z" stroke="#000" stroke-opacity="0" stroke-width="3" fill="#fff" fill-opacity="0"/><use xlink:href="#g" transform="matrix(1,0,0,1,1405,816) translate(2.2222222222222285 10.666666666666664)"/><path d="M1398 837c0-3.3 2.7-6 6-6h32c3.3 0 6 2.7 6 6v8c0 3.3-2.7 6-6 6h-32c-3.3 0-6-2.7-6-6z" stroke="#000" stroke-opacity="0" stroke-width="3" fill="#fff" fill-opacity="0"/><use xlink:href="#L" transform="matrix(1,0,0,1,1403,836) translate(6.648148148148152 10.666666666666664)"/><path d="M1397 857c0-3.3 2.7-6 6-6h32c3.3 0 6 2.7 6 6v8c0 3.3-2.7 6-6 6h-32c-3.3 0-6-2.7-6-6z" stroke="#000" stroke-opacity="0" stroke-width="3" fill="#fff" fill-opacity="0"/><use xlink:href="#M" transform="matrix(1,0,0,1,1402,856) translate(6.648148148148152 10.666666666666664)"/><path d="M1396 877c0-3.3 2.7-6 6-6h32c3.3 0 6 2.7 6 6v8c0 3.3-2.7 6-6 6h-32c-3.3 0-6-2.7-6-6z" stroke="#000" stroke-opacity="0" stroke-width="3" fill="#fff" fill-opacity="0"/><use xlink:href="#N" transform="matrix(1,0,0,1,1401,876) translate(2.962962962962969 10.666666666666664)"/><path d="M1538 697.67h60v51h-60z" fill="none"/><path d="M1539.86 748.67v-5c17.34 0 17.34-8.1 0-8.1 17.34 0 17.34-8.17.06-8.12 17.4 0 17.4-8.1 0-8.1 17.28 0 17.28-8.12-.06-8.12 17.34-.05 0-.05 0-.05 17.34 0 17.34-8.1 0-8.1v-5.4m16.14 5.1v40.8m.6-40.8v40.8" stroke="#5e5e5e" stroke-width="3" fill="none"/><path d="M1562 697.67v15.3m3 2.55c0 1.4-1.34 2.55-3 2.55s-3-1.15-3-2.55 1.34-2.55 3-2.55 3 1.14 3 2.55m15-17.85v15.3m3 2.55c0 1.4-1.34 2.55-3 2.55s-3-1.15-3-2.55 1.34-2.55 3-2.55 3 1.14 3 2.55m-12 17.85v15.3m3-17.85c0 1.4-1.34 2.55-3 2.55s-3-1.15-3-2.55 1.34-2.55 3-2.55 3 1.14 3 2.55m-1.44-1.8l4.44-10.95" stroke="#5e5e5e" stroke-width="3" fill="#fff"/><path d="M1498 711c0-3.3 2.7-6 6-6h28c3.3 0 6 2.7 6 6v22.33c0 3.32-2.7 6-6 6h-28c-3.3 0-6-2.68-6-6z" stroke="#000" stroke-opacity="0" stroke-width="3" fill="#fff" fill-opacity="0"/><use xlink:href="#O" transform="matrix(1,0,0,1,1503,710) translate(0.8333333333333339 19.34027777777778)"/><path d="M1538 794.33h60v51h-60z" fill="none"/><path d="M1539.86 845.33v-5c17.34 0 17.34-8.1 0-8.1 17.34 0 17.34-8.16.06-8.1 17.4 0 17.4-8.12 0-8.12 17.28 0 17.28-8.1-.06-8.1 17.34-.05 0-.05 0-.05 17.34 0 17.34-8.1 0-8.1v-5.42m16.14 5.1v40.8m.6-40.8v40.8" stroke="#5e5e5e" stroke-width="3" fill="none"/><path d="M1562 794.33v15.3m3 2.55c0 1.4-1.34 2.55-3 2.55s-3-1.14-3-2.55c0-1.4 1.34-2.55 3-2.55s3 1.15 3 2.55m15-17.85v15.3m3 2.55c0 1.4-1.34 2.55-3 2.55s-3-1.14-3-2.55c0-1.4 1.34-2.55 3-2.55s3 1.15 3 2.55m-12 17.85v15.3m3-17.85c0 1.4-1.34 2.55-3 2.55s-3-1.14-3-2.55c0-1.4 1.34-2.55 3-2.55s3 1.15 3 2.55m-1.44-1.78l4.44-10.97" stroke="#5e5e5e" stroke-width="3" fill="#fff"/><path d="M1498 807.67c0-3.32 2.7-6 6-6h28c3.3 0 6 2.68 6 6V830c0 3.3-2.7 6-6 6h-28c-3.3 0-6-2.7-6-6z" stroke="#000" stroke-opacity="0" stroke-width="3" fill="#fff" fill-opacity="0"/><use xlink:href="#P" transform="matrix(1,0,0,1,1503,806.6666666666663) translate(0.8333333333333339 19.34027777777778)"/><path d="M1377.5 821.67H1326c-3.3 0-6 2.68-6 6v9.16c-2.76 0-5 2.23-5 5 0 2.76 2.24 5 5 5v11.2c-2.76 0-5 2.24-5 5s2.24 5 5 5v87.47c0 3.3-2.7 6-6 6h-306.67c-3.3 0-6-2.7-6-6v-33" stroke="#5e5e5e" stroke-width="2" fill="none"/><path d="M1378.5 822.67h-1.03v-2h1.03zM1002.33 922.53h-2v-1.03h2z" fill="#5e5e5e"/><path d="M1377.5 884.33H1356c-3.3 0-6 2.7-6 6V994c0 3.3-2.7 6-6 6H970c-3.3 0-6-2.7-6-6v-71.5" stroke="#c92d39" stroke-width="2" fill="none"/><path d="M1378.5 885.33h-1.03v-2h1.03zM965 922.53h-2v-1.03h2z" fill="#c92d39"/><path d="M844 476.5c0-1.38 1.12-2.5 2.5-2.5s2.5 1.12 2.5 2.5v3c0 1.38-1.12 2.5-2.5 2.5s-2.5-1.12-2.5-2.5zM864 476.5c0-1.38 1.12-2.5 2.5-2.5s2.5 1.12 2.5 2.5v3c0 1.38-1.12 2.5-2.5 2.5s-2.5-1.12-2.5-2.5zM884 476.5c0-1.38 1.12-2.5 2.5-2.5s2.5 1.12 2.5 2.5v3c0 1.38-1.12 2.5-2.5 2.5s-2.5-1.12-2.5-2.5zM904 476.5c0-1.38 1.12-2.5 2.5-2.5s2.5 1.12 2.5 2.5v3c0 1.38-1.12 2.5-2.5 2.5s-2.5-1.12-2.5-2.5zM924 476.5c0-1.38 1.12-2.5 2.5-2.5s2.5 1.12 2.5 2.5v3c0 1.38-1.12 2.5-2.5 2.5s-2.5-1.12-2.5-2.5zM944 476.5c0-1.38 1.12-2.5 2.5-2.5s2.5 1.12 2.5 2.5v3c0 1.38-1.12 2.5-2.5 2.5s-2.5-1.12-2.5-2.5z" stroke="#5e5e5e" stroke-width="3" fill="#fff"/><path d="M851.67 420c3.3 0 6 2.7 6 6v51c0 3.3-2.7 6-6 6H849c-3.3 0-6-2.7-6-6v-51c0-3.3 2.7-6 6-6z" stroke="#000" stroke-opacity="0" stroke-width="3" fill="#fff" fill-opacity="0"/><use xlink:href="#g" transform="matrix(6.123233995736766e-17,1,-1,6.123233995736766e-17,852.6666666666669,425) translate(11.722222222222229 10.666666666666664)"/><path d="M871.67 420c3.3 0 6 2.7 6 6v51c0 3.3-2.7 6-6 6H869c-3.3 0-6-2.7-6-6v-51c0-3.3 2.7-6 6-6z" stroke="#000" stroke-opacity="0" stroke-width="3" fill="#fff" fill-opacity="0"/><use xlink:href="#N" transform="matrix(6.123233995736766e-17,1,-1,6.123233995736766e-17,872.6666666666669,425) translate(12.462962962962969 10.666666666666664)"/><path d="M891.67 418c3.3 0 6 2.7 6 6v51c0 3.3-2.7 6-6 6H889c-3.3 0-6-2.7-6-6v-51c0-3.3 2.7-6 6-6z" stroke="#000" stroke-opacity="0" stroke-width="3" fill="#fff" fill-opacity="0"/><use xlink:href="#Q" transform="matrix(6.123233995736766e-17,1,-1,6.123233995736766e-17,892.6666666666669,423) translate(9.481481481481488 10.666666666666664)"/><path d="M911.67 418c3.3 0 6 2.7 6 6v51c0 3.3-2.7 6-6 6H909c-3.3 0-6-2.7-6-6v-51c0-3.3 2.7-6 6-6z" stroke="#000" stroke-opacity="0" stroke-width="3" fill="#fff" fill-opacity="0"/><use xlink:href="#R" transform="matrix(6.123233995736766e-17,1,-1,6.123233995736766e-17,912.6666666666669,423) translate(9.481481481481488 10.666666666666664)"/><path d="M931.67 422c3.3 0 6 2.7 6 6v51c0 3.3-2.7 6-6 6H929c-3.3 0-6-2.7-6-6v-51c0-3.3 2.7-6 6-6z" stroke="#000" stroke-opacity="0" stroke-width="3" fill="#fff" fill-opacity="0"/><use xlink:href="#S" transform="matrix(6.123233995736766e-17,1,-1,6.123233995736766e-17,932.6666666666669,427) translate(12.81481481481482 10.666666666666664)"/><path d="M951.67 425c3.3 0 6 2.7 6 6v51c0 3.3-2.7 6-6 6H949c-3.3 0-6-2.7-6-6v-51c0-3.3 2.7-6 6-6z" stroke="#000" stroke-opacity="0" stroke-width="3" fill="#fff" fill-opacity="0"/><use xlink:href="#T" transform="matrix(6.123233995736766e-17,1,-1,6.123233995736766e-17,952.6666666666669,430) translate(17.259259259259263 10.666666666666664)"/><path d="M952 617.5v-115" stroke="#0c7cba" stroke-width="2" fill="none"/><path d="M953 618.5h-2v-1.03h2zM953 502.53h-2v-1.03h2z" fill="#0c7cba"/><path d="M865.33 617.5V566c0-3.3-2.68-6-6-6H850c-3.3 0-6-2.7-6-6v-51.5" stroke="#5e5e5e" stroke-width="2" fill="none"/><path d="M866.33 618.5h-2v-1.03h2zM845 502.53h-2v-1.03h2z" fill="#5e5e5e"/><path d="M865.33 502.5v33c0 3.3-2.68 6-6 6H849c0-2.76-2.24-5-5-5s-5 2.24-5 5h-93c-3.3 0-6 2.7-6 6v408c0 3.3 2.7 6 6 6h150.67c3.3 0 6-2.7 6-6v-33" stroke="#c92d39" stroke-width="2" fill="none"/><path d="M866.33 502.53h-2v-1.03h2zM903.67 922.53h-2v-1.03h2z" fill="#c92d39"/><path d="M925.33 502.5V524c0 3.3-2.68 6-6 6h-30.66c-3.32 0-6 2.7-6 6v81.5" stroke="#fcc438" stroke-width="2" fill="none"/><path d="M926.33 502.53h-2v-1.03h2zM883.67 618.5h-2v-1.03h2z" fill="#fcc438"/><path d="M905.33 502.5V525c-2.76 0-5 2.24-5 5s2.24 5 5 5v9c0 3.3 2.7 6 6 6H922c3.3 0 6 2.7 6 6v61.5" stroke="#7ab648" stroke-width="2" fill="none"/><path d="M906.33 502.53h-2v-1.03h2zM929 618.5h-2v-1.03h2z" fill="#7ab648"/><path d="M888 502.5V525c-2.76 0-5 2.24-5 5s2.24 5 5 5v29c0 3.3 2.7 6 6 6h9.33c3.32 0 6 2.7 6 6v41.5" stroke="#ef8d22" stroke-width="2" fill="none"/><path d="M889 502.53h-2v-1.03h2zM910.33 618.5h-2v-1.03h2z" fill="#ef8d22"/><path d="M582.5 682.67H664c3.3 0 6 2.68 6 6v166.66c0 3.32 2.7 6 6 6h59c0-2.76 2.24-5 5-5s5 2.24 5 5h32.5" stroke="#5e5e5e" stroke-width="2" fill="none"/><path d="M582.53 683.67h-1.03v-2h1.03zM778.5 862.33h-1.03v-2h1.03z" fill="#5e5e5e"/><path d="M582.5 814.67H634c3.3 0 6 2.68 6 6V882c0 3.3 2.7 6 6 6h89c0-2.76 2.24-5 5-5s5 2.24 5 5h32.5" stroke="#5e5e5e" stroke-width="2" fill="none"/><path d="M582.53 815.67h-1.03v-2h1.03zM778.5 889h-1.03v-2h1.03z" fill="#5e5e5e"/><path d="M778.5 862.67c0-3.32 2.7-6 6-6h47c3.3 0 6 2.68 6 6v19.66c0 3.32-2.7 6-6 6h-47c-3.3 0-6-2.68-6-6z" stroke="#000" stroke-opacity="0" stroke-width="3" fill="#fff" fill-opacity="0"/><use xlink:href="#U" transform="matrix(1,0,0,1,783.5,861.6666666666669) translate(16.351851851851862 10.666666666666655)"/><use xlink:href="#V" transform="matrix(1,0,0,1,783.5,861.6666666666669) translate(4.129629629629655 26.666666666666636)"/><path d="M2208.38 881c0-3.3 2.68-6 6-6h142c3.3 0 6 2.7 6 6v48c0 3.3-2.7 6-6 6h-142c-3.32 0-6-2.7-6-6z" stroke="#5e5e5e" stroke-width="3" fill="#fff"/><path d="M2270.38 905c0 11.05-8.96 20-20 20-11.05 0-20-8.95-20-20s8.95-20 20-20c11.04 0 20 8.95 20 20z" stroke="#5e5e5e" stroke-width="3" fill="#fff"/><path d="M2265 905.1c0 8-6.5 14.5-14.5 14.5s-14.5-6.5-14.5-14.5 6.5-14.5 14.5-14.5 14.5 6.5 14.5 14.5z" stroke="#5e5e5e" stroke-width="3" fill="#fff"/><path d="M2244.2 918.66l19.52-20.76" stroke="#5e5e5e" stroke-width="2" fill="none"/><path d="M2244.94 919.33l-.45.47-1.98-.82.96-1.02zM2264.38 897.1l.45 1.1-.4.4-1.46-1.36.83-.88z" fill="#5e5e5e"/><path d="M2244.56 917.9l18.35-19.53M2244.58 917.9l-.7.73M2262.9 898.4l.7-.76M2239.94 915.76l20.48-21.8" stroke="#5e5e5e" stroke-width="2" fill="none"/><path d="M2240.7 916.42l-.65.68-.87-.68-.56-.72.6-.65zM2261.82 893.78l.06.07-.75.8-1.46-1.36.63-.7z" fill="#5e5e5e"/><path d="M2285.38 873.5" stroke="#5e5e5e" stroke-width="2" fill="none"/><path fill="#5e5e5e"/><path fill="#5e5e5e"/><path d="M2336.38 906c0 11.05-8.96 20-20 20-11.05 0-20-8.95-20-20s8.95-20 20-20c11.04 0 20 8.95 20 20z" stroke="#5e5e5e" stroke-width="3" fill="#fff"/><path d="M2331 906.1c0 8-6.5 14.5-14.5 14.5s-14.5-6.5-14.5-14.5 6.5-14.5 14.5-14.5 14.5 6.5 14.5 14.5z" stroke="#5e5e5e" stroke-width="3" fill="#fff"/><path d="M2310.2 919.66l19.52-20.76" stroke="#5e5e5e" stroke-width="2" fill="none"/><path d="M2310.94 920.33l-.45.47-1.98-.82.96-1.02zM2330.38 898.1l.45 1.1-.4.4-1.46-1.36.83-.88z" fill="#5e5e5e"/><path d="M2310.56 918.9l18.35-19.53M2310.58 918.9l-.7.73M2328.9 899.4l.7-.76M2305.94 916.76l20.48-21.8" stroke="#5e5e5e" stroke-width="2" fill="none"/><path d="M2306.7 917.42l-.65.68-.87-.68-.56-.72.6-.65zM2327.82 894.78l.06.07-.75.8-1.46-1.36.63-.7z" fill="#5e5e5e"/><path d="M2208.38 557.5c0-3.3 2.68-6 6-6h142c3.3 0 6 2.7 6 6v48c0 3.3-2.7 6-6 6h-142c-3.32 0-6-2.7-6-6z" stroke="#5e5e5e" stroke-width="3" fill="#fff"/><path d="M2270.38 581.5c0 11.05-8.96 20-20 20-11.05 0-20-8.95-20-20s8.95-20 20-20c11.04 0 20 8.95 20 20z" stroke="#5e5e5e" stroke-width="3" fill="#fff"/><path d="M2265 581.6c0 8-6.5 14.5-14.5 14.5s-14.5-6.5-14.5-14.5 6.5-14.5 14.5-14.5 14.5 6.5 14.5 14.5z" stroke="#5e5e5e" stroke-width="3" fill="#fff"/><path d="M2244.2 595.16l19.52-20.76" stroke="#5e5e5e" stroke-width="2" fill="none"/><path d="M2244.94 595.83l-.45.47-1.98-.82.96-1.02zM2264.38 573.6l.45 1.1-.4.4-1.46-1.36.83-.88z" fill="#5e5e5e"/><path d="M2244.56 594.4l18.35-19.53M2244.58 594.4l-.7.73M2262.9 574.9l.7-.76M2239.94 592.26l20.48-21.8" stroke="#5e5e5e" stroke-width="2" fill="none"/><path d="M2240.7 592.92l-.65.68-.87-.68-.56-.72.6-.65zM2261.82 570.28l.06.07-.75.8-1.46-1.36.63-.7z" fill="#5e5e5e"/><path d="M2285.38 550" stroke="#5e5e5e" stroke-width="2" fill="none"/><path fill="#5e5e5e"/><path fill="#5e5e5e"/><path d="M2336.38 582.5c0 11.05-8.96 20-20 20-11.05 0-20-8.95-20-20s8.95-20 20-20c11.04 0 20 8.95 20 20z" stroke="#5e5e5e" stroke-width="3" fill="#fff"/><path d="M2331 582.6c0 8-6.5 14.5-14.5 14.5s-14.5-6.5-14.5-14.5 6.5-14.5 14.5-14.5 14.5 6.5 14.5 14.5z" stroke="#5e5e5e" stroke-width="3" fill="#fff"/><path d="M2310.2 596.16l19.52-20.76" stroke="#5e5e5e" stroke-width="2" fill="none"/><path d="M2310.94 596.83l-.45.47-1.98-.82.96-1.02zM2330.38 574.6l.45 1.1-.4.4-1.46-1.36.83-.88z" fill="#5e5e5e"/><path d="M2310.56 595.4l18.35-19.53M2310.58 595.4l-.7.73M2328.9 575.9l.7-.76M2305.94 593.26l20.48-21.8" stroke="#5e5e5e" stroke-width="2" fill="none"/><path d="M2306.7 593.92l-.65.68-.87-.68-.56-.72.6-.65zM2327.82 571.28l.06.07-.75.8-1.46-1.36.63-.7z" fill="#5e5e5e"/><path d="M2262.7 613" stroke="#5e5e5e" stroke-width="2" fill="none"/><path fill="#5e5e5e"/><path fill="#5e5e5e"/><path d="M2262.7 630.5V614M2262.7 630.47v1.03" stroke="#5e5e5e" stroke-width="2" fill="none"/><path d="M2263.7 614.03h-2V613h2z" fill="#5e5e5e"/><path d="M2305.38 629v-16.5M2305.38 628.97V630M2305.38 612.53v-1.03M2263.7 631.5h40.68M2263.73 631.5h-1.02M2304.35 631.5h1.03" stroke="#5e5e5e" stroke-width="2" fill="none"/><path d="M2208.38 638c0-3.3 2.68-6 6-6h142c3.3 0 6 2.7 6 6v48c0 3.3-2.7 6-6 6h-142c-3.32 0-6-2.7-6-6z" stroke="#5e5e5e" stroke-width="3" fill="#fff"/><path d="M2270.38 662c0 11.05-8.96 20-20 20-11.05 0-20-8.95-20-20s8.95-20 20-20c11.04 0 20 8.95 20 20z" stroke="#5e5e5e" stroke-width="3" fill="#fff"/><path d="M2265 662.1c0 8-6.5 14.5-14.5 14.5s-14.5-6.5-14.5-14.5 6.5-14.5 14.5-14.5 14.5 6.5 14.5 14.5z" stroke="#5e5e5e" stroke-width="3" fill="#fff"/><path d="M2244.2 675.66l19.52-20.76" stroke="#5e5e5e" stroke-width="2" fill="none"/><path d="M2244.94 676.33l-.45.47-1.98-.82.96-1.02zM2264.38 654.1l.45 1.1-.4.4-1.46-1.36.83-.88z" fill="#5e5e5e"/><path d="M2244.56 674.9l18.35-19.53M2244.58 674.9l-.7.73M2262.9 655.4l.7-.76M2239.94 672.76l20.48-21.8" stroke="#5e5e5e" stroke-width="2" fill="none"/><path d="M2240.7 673.42l-.65.68-.87-.68-.56-.72.6-.65zM2261.82 650.78l.06.07-.75.8-1.46-1.36.63-.7z" fill="#5e5e5e"/><path d="M2285.38 630.5" stroke="#5e5e5e" stroke-width="2" fill="none"/><path fill="#5e5e5e"/><path fill="#5e5e5e"/><path d="M2336.38 663c0 11.05-8.96 20-20 20-11.05 0-20-8.95-20-20s8.95-20 20-20c11.04 0 20 8.95 20 20z" stroke="#5e5e5e" stroke-width="3" fill="#fff"/><path d="M2331 663.1c0 8-6.5 14.5-14.5 14.5s-14.5-6.5-14.5-14.5 6.5-14.5 14.5-14.5 14.5 6.5 14.5 14.5z" stroke="#5e5e5e" stroke-width="3" fill="#fff"/><path d="M2310.2 676.66l19.52-20.76" stroke="#5e5e5e" stroke-width="2" fill="none"/><path d="M2310.94 677.33l-.45.47-1.98-.82.96-1.02zM2330.38 655.1l.45 1.1-.4.4-1.46-1.36.83-.88z" fill="#5e5e5e"/><path d="M2310.56 675.9l18.35-19.53M2310.58 675.9l-.7.73M2328.9 656.4l.7-.76M2305.94 673.76l20.48-21.8" stroke="#5e5e5e" stroke-width="2" fill="none"/><path d="M2306.7 674.42l-.65.68-.87-.68-.56-.72.6-.65zM2327.82 651.78l.06.07-.75.8-1.46-1.36.63-.7z" fill="#5e5e5e"/><path d="M2262.7 693.5" stroke="#5e5e5e" stroke-width="2" fill="none"/><path fill="#5e5e5e"/><path fill="#5e5e5e"/><path d="M2262.7 711v-16.5M2262.7 710.97V712" stroke="#5e5e5e" stroke-width="2" fill="none"/><path d="M2263.7 694.53h-2v-1.03h2z" fill="#5e5e5e"/><path d="M2305.38 709.5V693M2305.38 709.47v1.03M2305.38 693.03V692M2263.7 712h40.68M2263.73 712h-1.02M2304.35 712h1.03" stroke="#5e5e5e" stroke-width="2" fill="none"/><path d="M2208.38 719c0-3.3 2.68-6 6-6h142c3.3 0 6 2.7 6 6v48c0 3.3-2.7 6-6 6h-142c-3.32 0-6-2.7-6-6z" stroke="#5e5e5e" stroke-width="3" fill="#fff"/><path d="M2270.38 743c0 11.05-8.96 20-20 20-11.05 0-20-8.95-20-20s8.95-20 20-20c11.04 0 20 8.95 20 20z" stroke="#5e5e5e" stroke-width="3" fill="#fff"/><path d="M2265 743.1c0 8-6.5 14.5-14.5 14.5s-14.5-6.5-14.5-14.5 6.5-14.5 14.5-14.5 14.5 6.5 14.5 14.5z" stroke="#5e5e5e" stroke-width="3" fill="#fff"/><path d="M2244.2 756.66l19.52-20.76" stroke="#5e5e5e" stroke-width="2" fill="none"/><path d="M2244.94 757.33l-.45.47-1.98-.82.96-1.02zM2264.38 735.1l.45 1.1-.4.4-1.46-1.36.83-.88z" fill="#5e5e5e"/><path d="M2244.56 755.9l18.35-19.53M2244.58 755.9l-.7.73M2262.9 736.4l.7-.76M2239.94 753.76l20.48-21.8" stroke="#5e5e5e" stroke-width="2" fill="none"/><path d="M2240.7 754.42l-.65.68-.87-.68-.56-.72.6-.65zM2261.82 731.78l.06.07-.75.8-1.46-1.36.63-.7z" fill="#5e5e5e"/><path d="M2285.38 711.5" stroke="#5e5e5e" stroke-width="2" fill="none"/><path fill="#5e5e5e"/><path fill="#5e5e5e"/><path d="M2336.38 744c0 11.05-8.96 20-20 20-11.05 0-20-8.95-20-20s8.95-20 20-20c11.04 0 20 8.95 20 20z" stroke="#5e5e5e" stroke-width="3" fill="#fff"/><path d="M2331 744.1c0 8-6.5 14.5-14.5 14.5s-14.5-6.5-14.5-14.5 6.5-14.5 14.5-14.5 14.5 6.5 14.5 14.5z" stroke="#5e5e5e" stroke-width="3" fill="#fff"/><path d="M2310.2 757.66l19.52-20.76" stroke="#5e5e5e" stroke-width="2" fill="none"/><path d="M2310.94 758.33l-.45.47-1.98-.82.96-1.02zM2330.38 736.1l.45 1.1-.4.4-1.46-1.36.83-.88z" fill="#5e5e5e"/><path d="M2310.56 756.9l18.35-19.53M2310.58 756.9l-.7.73M2328.9 737.4l.7-.76M2305.94 754.76l20.48-21.8" stroke="#5e5e5e" stroke-width="2" fill="none"/><path d="M2306.7 755.42l-.65.68-.87-.68-.56-.72.6-.65zM2327.82 732.78l.06.07-.75.8-1.46-1.36.63-.7z" fill="#5e5e5e"/><path d="M2262.7 774.5" stroke="#5e5e5e" stroke-width="2" fill="none"/><path fill="#5e5e5e"/><path fill="#5e5e5e"/><path d="M2262.7 792v-16.5M2262.7 791.97V793" stroke="#5e5e5e" stroke-width="2" fill="none"/><path d="M2263.7 775.53h-2v-1.03h2z" fill="#5e5e5e"/><path d="M2305.38 790.5V774M2305.38 790.47v1.03M2305.38 774.03V773M2263.7 793h40.68M2263.73 793h-1.02M2304.35 793h1.03" stroke="#5e5e5e" stroke-width="2" fill="none"/><path d="M2208 800.5c0-3.3 2.7-6 6-6h142c3.3 0 6 2.7 6 6v48c0 3.3-2.7 6-6 6h-142c-3.3 0-6-2.7-6-6z" stroke="#5e5e5e" stroke-width="3" fill="#fff"/><path d="M2270 824.5c0 11.05-8.95 20-20 20s-20-8.95-20-20 8.95-20 20-20 20 8.95 20 20z" stroke="#5e5e5e" stroke-width="3" fill="#fff"/><path d="M2264.62 824.6c0 8-6.5 14.5-14.5 14.5s-14.5-6.5-14.5-14.5 6.5-14.5 14.5-14.5 14.5 6.5 14.5 14.5z" stroke="#5e5e5e" stroke-width="3" fill="#fff"/><path d="M2243.82 838.16l19.52-20.76" stroke="#5e5e5e" stroke-width="2" fill="none"/><path d="M2244.56 838.83l-.44.47-1.98-.82.96-1.02zM2264 816.6l.45 1.1-.4.4-1.45-1.36.83-.88z" fill="#5e5e5e"/><path d="M2244.2 837.4l18.33-19.53M2244.2 837.4l-.7.73M2262.5 817.9l.7-.76M2239.57 835.26l20.47-21.8" stroke="#5e5e5e" stroke-width="2" fill="none"/><path d="M2240.3 835.92l-.62.68-.88-.68-.55-.72.6-.65zM2261.45 813.28l.06.07-.75.8-1.46-1.36.63-.7z" fill="#5e5e5e"/><path d="M2285 793" stroke="#5e5e5e" stroke-width="2" fill="none"/><path fill="#5e5e5e"/><path fill="#5e5e5e"/><path d="M2336 825.5c0 11.05-8.95 20-20 20s-20-8.95-20-20 8.95-20 20-20 20 8.95 20 20z" stroke="#5e5e5e" stroke-width="3" fill="#fff"/><path d="M2330.62 825.6c0 8-6.5 14.5-14.5 14.5s-14.5-6.5-14.5-14.5 6.5-14.5 14.5-14.5 14.5 6.5 14.5 14.5z" stroke="#5e5e5e" stroke-width="3" fill="#fff"/><path d="M2309.82 839.16l19.52-20.76" stroke="#5e5e5e" stroke-width="2" fill="none"/><path d="M2310.56 839.83l-.44.47-1.98-.82.96-1.02zM2330 817.6l.45 1.1-.4.4-1.45-1.36.83-.88z" fill="#5e5e5e"/><path d="M2310.2 838.4l18.33-19.53M2310.2 838.4l-.7.73M2328.5 818.9l.7-.76M2305.57 836.26l20.47-21.8" stroke="#5e5e5e" stroke-width="2" fill="none"/><path d="M2306.3 836.92l-.62.68-.88-.68-.55-.72.6-.65zM2327.45 814.28l.06.07-.75.8-1.46-1.36.63-.7z" fill="#5e5e5e"/><path d="M2262.33 856" stroke="#5e5e5e" stroke-width="2" fill="none"/><path fill="#5e5e5e"/><path fill="#5e5e5e"/><path d="M2262.33 873.5V857M2262.33 873.47v1.03" stroke="#5e5e5e" stroke-width="2" fill="none"/><path d="M2263.33 857.03h-2V856h2z" fill="#5e5e5e"/><path d="M2305 872v-16.5M2305 871.97V873M2305 855.53v-1.03M2263.33 874.5H2304M2263.36 874.5h-1.03M2303.97 874.5h1.03M2744.33 751.03l-4.78.12-5.26-.15-4.85-.38-4.47-.6-4.16-.78-3.9-.95-3.66-1.1-3.47-1.25-3.3-1.4-3.16-1.5-3.03-1.68-2.9-1.8-2.82-1.97-2.74-2.13-2.66-2.3-2.6-2.5-2.53-2.73-2.5-2.97-2.42-3.23-2.38-3.54-2.33-3.88-2.26-4.28-2.18-4.7-2.08-5.2-1.96-5.75-1.78-6.3-1.54-6.86-1.25-7.26-.86-7.33-.43-6.63-.07-3.7.13-4.27.5-5.45.88-6 1.27-6.1 1.6-5.87 1.83-5.53 2.06-5.15 2.23-4.75 2.37-4.38 2.5-4.03 2.64-3.73 2.75-3.43 2.85-3.17 2.97-2.94 3.1-2.73 3.24-2.53 3.4-2.34 3.6-2.17 3.77-2 4.02-1.84 4.27-1.66 4.6-1.47 4.98-1.3 5.42-1.06 5.94-.8 6.58-.5 4.85-.12M2744.3 751.03l1.03-.03M2744.3 571.02l1.03-.02" stroke="#5e5e5e" stroke-width="2" fill="none"/><path d="M2742.95 750.06l-.4-42.88 2.76-135.18M2742.95 750.03v1.03M2745.3 572.03l.03-1.03M2745.88 593.14h38.46M2745.9 593.14h-1.02M2784.3 593.14h1.03M2745.48 613h38.85M2745.5 613h-1.02M2784.3 613h1.03M2745.33 651h38.86M2745.36 651h-1.03M2784.17 651h1.02M2745.33 671h38.86M2745.36 671h-1.03M2784.17 671h1.02M2745.33 711h38.86M2745.36 711h-1.03M2784.17 711h1.02M2745.33 731h38.86M2745.36 731h-1.03M2784.17 731h1.02M2785.2 712v18M2785.2 712.03V711M2785.2 729.97V731M2785.33 652v18M2785.33 652.03V651M2785.33 669.97V671M2785.33 592v20M2785.33 592.03V591M2785.33 611.98V613" stroke="#5e5e5e" stroke-width="2" fill="none"/><path d="M2531.83 581.42l2.53 2.53.92 3.42v9.5l.7 2.64 1.8 1.8 2.63.7h26.88v2h-27.13l-3.42-.92-2.53-2.53-.92-3.42v-9.5l-.72-2.64-1.77-1.8-2.65-.7h-163.27v-2h163.53zM2743.68 602v2h-115.32v-2z" fill="#99d2f2"/><path d="M2364.9 582.5h-1.02v-2h1.02zM2744.68 604h-1.02v-2h1.02z" fill="#99d2f2"/><use xlink:href="#W" transform="matrix(1,0,0,1,2567.2760328442914,592.3333333333406) translate(0 14.222222222222223)"/><path d="M2566.16 662.73h-35.6l-.28.27h-165.4v-2h164.57l.27-.27h36.44zm176.33 0h-131v-2h131z" fill="#ffdf71"/><path d="M2364.9 663h-1.02v-2h1.02zM2743.5 662.73h-1.04v-2h1.03z" fill="#ffdf71"/><use xlink:href="#X" transform="matrix(1,0,0,1,2566.157357069678,651.0650620701864) translate(0 14.222222222222223)"/><path d="M2560.28 725h-24.15l-2.64.7-1.8 1.8-.7 2.63v7l-.92 3.42-2.53 2.53-3.42.92h-159.25v-2h159l2.63-.7 1.8-1.8.7-2.63v-7l.92-3.42 2.53-2.53 3.42-.92h24.4zm181.43 0H2595.8v-2h145.93z" fill="#926600"/><path d="M2364.9 744h-1.02v-2h1.02zM2742.7 725h-1v-2h1z" fill="#926600"/><use xlink:href="#Y" transform="matrix(1,0,0,1,2560.276674535203,713.333333333334) translate(0 14.222222222222223)"/><path d="M377.5 678.67h-33c-3.3 0-6-2.7-6-6V266c0-3.3 2.7-6 6-6h1834.38c3.3 0 6 2.7 6 6v309.5c0 3.3 2.68 6 6 6h15" stroke="#99d2f2" stroke-width="2" fill="none"/><path d="M378.5 679.67h-1.03v-2h1.03zM2206.88 582.5h-1.03v-2h1.03z" fill="#99d2f2"/><path d="M377.5 812h-33c-3.3 0-6 2.7-6 6v226c0 3.3 2.7 6 6 6h1816.38c3.3 0 6-2.7 6-6V749c0-3.3 2.68-6 6-6h33" stroke="#926600" stroke-width="2" fill="none"/><path d="M378.5 813h-1.03v-2h1.03zM2206.88 744h-1.03v-2h1.03z" fill="#926600"/><path d="M2796.38 934.5c0 44.18-35.82 80-80 80-44.2 0-80-35.82-80-80s35.8-80 80-80c44.18 0 80 35.82 80 80z" stroke="#5e5e5e" stroke-width="3" fill-opacity="0"/><use xlink:href="#Z" transform="matrix(1,0,0,1,2641.37558685446,859.5) translate(51.71487654320991 12.444444444444427)"/><use xlink:href="#aa" transform="matrix(1,0,0,1,2641.37558685446,859.5) translate(53.0111728395062 31.111111111111065)"/><use xlink:href="#ab" transform="matrix(1,0,0,1,2641.37558685446,859.5) translate(51.2395679012346 49.77777777777771)"/><path d="M2687.75 914.5c0 11.05-7.02 20-15.7 20-8.65 0-15.67-8.95-15.67-20s7.02-20 15.68-20c8.67 0 15.7 8.95 15.7 20zM2772.75 914.5c0 11.05-7.02 20-15.7 20-8.65 0-15.67-8.95-15.67-20s7.02-20 15.68-20c8.67 0 15.7 8.95 15.7 20zM2730.75 974.5c0 11.05-7.02 20-15.7 20-8.65 0-15.67-8.95-15.67-20s7.02-20 15.68-20c8.67 0 15.7 8.95 15.7 20zM2800 1180c0 44.18-35.82 80-80 80s-80-35.82-80-80 35.82-80 80-80 80 35.82 80 80z" stroke="#5e5e5e" stroke-width="3" fill-opacity="0"/><use xlink:href="#ac" transform="matrix(1,0,0,1,2645,1105) translate(49.12228395061732 12.444444444444427)"/><use xlink:href="#aa" transform="matrix(1,0,0,1,2645,1105) translate(53.0111728395062 31.111111111111065)"/><use xlink:href="#ab" transform="matrix(1,0,0,1,2645,1105) translate(51.2395679012346 49.77777777777771)"/><path d="M2691.38 1160c0 11.05-7.03 20-15.7 20-8.66 0-15.68-8.95-15.68-20s7.02-20 15.7-20c8.65 0 15.68 8.95 15.68 20zM2776.38 1160c0 11.05-7.03 20-15.7 20-8.66 0-15.68-8.95-15.68-20s7.02-20 15.7-20c8.65 0 15.68 8.95 15.68 20zM2734.38 1220c0 11.05-7.03 20-15.7 20-8.66 0-15.68-8.95-15.68-20s7.02-20 15.7-20c8.65 0 15.68 8.95 15.68 20z" stroke="#5e5e5e" stroke-width="3" fill-opacity="0"/><path d="M1572 748.67h593.87" stroke="#926600" stroke-width="2" fill="none"/><path fill="#926600"/><path d="M2165.85 748.67h1.02M1571 846.33v33c0 3.32 2.7 6 6 6h84.67c3.3 0 6-2.68 6-6V749.67" stroke="#926600" stroke-width="2" fill="none"/><path d="M1572 846.36h-2v-1.03h2z" fill="#926600"/><path d="M1667.67 749.7v-1.03" stroke="#926600" stroke-width="2" fill="none"/><path d="M2061 580h122.88M2061.03 580H2060M2183.85 580h1.03" stroke="#99d2f2" stroke-width="2" fill="none"/><path d="M2061 744.52l-2.18.35-2 1.46-.8 2.42.18 1.1 1.46 2 3.34 1.1v250.92l.7 2.64 1.8 1.8 2.63.7h94.9l.15-.98 2.13-2.9 3.5-1.15 2.05.34 2.9 2.13.85 2.57h321.27l2.64-.7 1.8-1.8.7-2.63v-83.5l.92-3.42 2.53-2.53 3.42-.92h148v2h-147.74l-2.64.7-1.8 1.8-.7 2.63v83.5l-.92 3.42-2.53 2.53-3.42.92h-322.98l-1.1-3.34-2-1.46-1.1-.17-2.4.8-1.47 2-.35 2.17h-96.86l-3.42-.92-2.53-2.53-.92-3.42V754.4l-2.57-.85-2.12-2.9-.33-2.06 1.14-3.5 2.92-2.13.98-.15V581h2z" fill="#99d2f2"/><path d="M2654.87 914.43l.04 1.07h-1.05v-2h1.14zM2061 581.03h-2V580h2z" fill="#99d2f2"/><path d="M2500 1011v143c0 3.3 2.7 6 6 6h151.5M2500 1011.03V1010" stroke="#99d2f2" stroke-width="2" fill="none"/><path d="M2658.5 1159.93l.03 1.07h-1.06v-2h1.14z" fill="#99d2f2"/><path d="M2205.88 663h-99.75l-2.64.7-1.8 1.8-.7 2.63v361.74l.7 2.64 1.8 1.8 2.63.7h602.8l2.64-.7 1.78-1.8.7-2.63V997h2v33.13l-.9 3.42-2.54 2.53-3.4.92h-603.33l-3.42-.92-2.53-2.53-.92-3.42V667.87l.92-3.42 2.53-2.53 3.42-.92h100z" fill="#ffdf71"/><path d="M2206.88 663h-1.03v-2h1.03zM2715 996l1.06-.03v1.06h-2v-1.14z" fill="#ffdf71"/><path d="M2718.7 1242.5v33c0 3.3-2.7 6-6 6h-275.37c-3.3 0-6-2.7-6-6V1037" stroke="#ffdf71" stroke-width="2" fill="none"/><path d="M2718.62 1241.5l1.07-.03v1.06h-2v-1.14z" fill="#ffdf71"/><path d="M2431.33 1037.03V1036" stroke="#ffdf71" stroke-width="2" fill="none"/><path d="M1580 696.67V676c0-3.3 2.7-6 6-6h351.25c3.3 0 6 2.7 6 6v67.67c-2.76 0-5 2.24-5 5s2.24 5 5 5v64.83c0 3.3 2.7 6 6 6H2055c0-2.76 2.24-5 5-5s5 2.24 5 5h30c0-2.76 2.24-5 5-5s5 2.24 5 5h56.88c0-2.76 2.23-5 5-5 2.76 0 5 2.24 5 5h33.62" stroke="#926600" stroke-width="2" fill="none"/><path d="M1581 697.67h-2v-1.03h2zM2206.5 825.5h-1.03v-2h1.03z" fill="#926600"/><path d="M1580 793.33V786c0-3.3 2.7-6 6-6h76.67c0-2.76 2.23-5 5-5 2.76 0 5 2.24 5 5h57.05c3.3 0 6 2.7 6 6v113c0 3.3 2.7 6 6 6H2055c0-2.76 2.24-5 5-5s5 2.24 5 5h30c0-2.76 2.24-5 5-5s5 2.24 5 5h56.88c0-2.76 2.23-5 5-5 2.76 0 5 2.24 5 5h34" stroke="#926600" stroke-width="2" fill="none"/><path d="M1581 794.33h-2v-1.02h2zM2206.88 906h-1.03v-2h1.03z" fill="#926600"/><path d="M2364.5 824.5h443.75c3.32 0 6 2.7 6 6v78c0 3.3-2.68 6-6 6h-33" stroke="#926600" stroke-width="2" fill="none"/><path d="M2364.53 825.5h-1.03v-2h1.03zM2775.28 915.5h-1.14l.1-.93-.02-1.07h1.06z" fill="#926600"/><path d="M2364.88 905h15c3.3 0 6 2.7 6 6v94c-2.77 0-5 2.24-5 5s2.23 5 5 5v16c-2.77 0-5 2.24-5 5s2.23 5 5 5v33c0 3.3 2.68 6 6 6h34.45c0-2.76 2.24-5 5-5s5 2.24 5 5H2495c0-2.76 2.24-5 5-5s5 2.24 5 5h306.88c3.3 0 6 2.7 6 6v68c0 3.3-2.7 6-6 6h-33" stroke="#926600" stroke-width="2" fill="none"/><path d="M2364.9 906h-1.02v-2h1.02zM2778.9 1161h-1.14l.12-.93-.04-1.07h1.06z" fill="#926600"/><path d="M3060 880h70v70h-70z" fill="none"/><path d="M3130 915c0 19.33-15.67 35-35 35s-35-15.67-35-35 15.67-35 35-35 35 15.67 35 35m-59.5-24.5l49 49m0-49l-49 49" stroke="#5e5e5e" stroke-width="3" fill="#fff"/><path d="M3060 1125h70v70h-70z" fill="none"/><path d="M3130 1160c0 19.33-15.67 35-35 35s-35-15.67-35-35 15.67-35 35-35 35 15.67 35 35m-59.5-24.5l49 49m0-49l-49 49" stroke="#5e5e5e" stroke-width="3" fill="#fff"/><path d="M3140 894c0-3.3 2.7-6 6-6h48c3.3 0 6 2.7 6 6v42.5c0 3.3-2.7 6-6 6h-48c-3.3 0-6-2.7-6-6z" stroke="#000" stroke-opacity="0" stroke-width="3" fill="#fff" fill-opacity="0"/><use xlink:href="#ad" transform="matrix(1,0,0,1,3145,893) translate(5.037037037037045 10.666666666666664)"/><use xlink:href="#ae" transform="matrix(1,0,0,1,3145,893) translate(6.148148148148156 26.66666666666666)"/><use xlink:href="#af" transform="matrix(1,0,0,1,3145,893) translate(-0.5185185185185048 42.66666666666666)"/><path d="M3140 1139c0-3.3 2.7-6 6-6h48c3.3 0 6 2.7 6 6v42.5c0 3.3-2.7 6-6 6h-48c-3.3 0-6-2.7-6-6z" stroke="#000" stroke-opacity="0" stroke-width="3" fill="#fff" fill-opacity="0"/><use xlink:href="#ag" transform="matrix(1,0,0,1,3145,1138) translate(2.8148148148148238 10.666666666666664)"/><use xlink:href="#ae" transform="matrix(1,0,0,1,3145,1138) translate(6.148148148148156 26.66666666666666)"/><use xlink:href="#af" transform="matrix(1,0,0,1,3145,1138) translate(-0.5185185185185048 42.66666666666666)"/><path d="M2815.25 914.5h120.87c.14 0 .25.1.25.25 0 .14.12.25.25.25h120.88M2815.28 914.5h-1.03" stroke="#926600" stroke-width="2" fill="none"/><path d="M3058.5 915l.07 1h-1.1v-2h1.1z" fill="#926600"/><path d="M2818.88 1160h238.62M2818.9 1160h-1.02" stroke="#926600" stroke-width="2" fill="none"/><path d="M3058.5 1160l.07 1h-1.1v-2h1.1z" fill="#926600"/><path d="M2500 1319v-32.5c-2.76 0-5-2.24-5-5s2.24-5 5-5V1161M2500 1318.97v1.03M2500 1161.03V1160M2501 1320h588c3.3 0 6-2.7 6-6v-116.5M2501.03 1320H2500" stroke="#99d2f2" stroke-width="2" fill="none"/><path d="M3095 1196.5l1-.07v1.1h-2v-1.1z" fill="#99d2f2"/><path d="M2978.67 1319v-154c-2.76 0-5-2.24-5-5s2.24-5 5-5v-129c0-3.3 2.68-6 6-6H3089c3.3 0 6-2.7 6-6v-61.5M2978.67 1318.97v1.03" stroke="#99d2f2" stroke-width="2" fill="none"/><path d="M3095 951.5l1-.07v1.1h-2v-1.1z" fill="#99d2f2"/><path d="M2220 486c0-3.3 2.7-6 6-6h114c3.3 0 6 2.7 6 6v51.33c0 3.32-2.7 6-6 6h-114c-3.3 0-6-2.68-6-6z" stroke="#000" stroke-opacity="0" stroke-width="3" fill="#fff" fill-opacity="0"/><use xlink:href="#ah" transform="matrix(1,0,0,1,2225,485) translate(27.166666666666668 17.77777777777778)"/><use xlink:href="#ai" transform="matrix(1,0,0,1,2225,485) translate(16.179012345679006 44.44444444444444)"/><path d="M2241.8 480" stroke="#5e5e5e" stroke-width="2" fill="none"/><path fill="#5e5e5e"/><path fill="#5e5e5e"/><path d="M2820 626c0-3.3 2.7-6 6-6h68c3.3 0 6 2.7 6 6v78c0 3.3-2.7 6-6 6h-68c-3.3 0-6-2.7-6-6z" stroke="#000" stroke-opacity="0" stroke-width="3" fill="#fff" fill-opacity="0"/><g><use xlink:href="#aj" transform="matrix(1,0,0,1,2825,625) translate(5.432098765432102 17.77777777777778)"/><use xlink:href="#ak" transform="matrix(1,0,0,1,2825,625) translate(3.5802469135802504 44.44444444444444)"/><use xlink:href="#al" transform="matrix(1,0,0,1,2825,625) translate(12.808641975308646 71.11111111111111)"/></g><path d="M380 646c0-3.3 2.7-6 6-6h188c3.3 0 6 2.7 6 6v188c0 3.3-2.7 6-6 6H386c-3.3 0-6-2.7-6-6z" stroke="#5e5e5e" stroke-width="3" fill="#fff"/><g><use xlink:href="#am" transform="matrix(1,0,0,1,385,645) translate(44.35185185185185 71.21527777777777)"/><use xlink:href="#an" transform="matrix(1,0,0,1,385,645) translate(27.191358024691354 97.88194444444446)"/><use xlink:href="#ao" transform="matrix(1,0,0,1,385,645) translate(26.574074074074076 124.54861111111111)"/><use xlink:href="#ap" transform="matrix(1,0,0,1,385,645) translate(95.58641975308642 124.54861111111111)"/></g><path d="M400 806c0-3.3 2.7-6 6-6h8c3.3 0 6 2.7 6 6v4.67c0 3.3-2.7 6-6 6h-8c-3.3 0-6-2.7-6-6z" stroke="#000" stroke-opacity="0" stroke-width="3" fill="#fff" fill-opacity="0"/><g><use xlink:href="#aq" transform="matrix(1,0,0,1,405,805) translate(-1.1728395061728394 17.77777777777778)"/></g><path d="M400 668c0-3.3 2.7-6 6-6h8c3.3 0 6 2.7 6 6v4.67c0 3.3-2.7 6-6 6h-8c-3.3 0-6-2.7-6-6z" stroke="#000" stroke-opacity="0" stroke-width="3" fill="#fff" fill-opacity="0"/><g><use xlink:href="#ar" transform="matrix(1,0,0,1,405,667) translate(-2.9938271604938267 17.77777777777778)"/></g><path d="M548 795c0-3.3 2.7-6 6-6h8c3.3 0 6 2.7 6 6v4.67c0 3.3-2.7 6-6 6h-8c-3.3 0-6-2.7-6-6z" stroke="#000" stroke-opacity="0" stroke-width="3" fill="#fff" fill-opacity="0"/><g><use xlink:href="#as" transform="matrix(1,0,0,1,553,794) translate(-1.611111111111109 31.99999999999999)"/></g><path d="M544 666c0-3.3 2.7-6 6-6h8c3.3 0 6 2.7 6 6v4.67c0 3.3-2.7 6-6 6h-8c-3.3 0-6-2.7-6-6z" stroke="#000" stroke-opacity="0" stroke-width="3" fill="#fff" fill-opacity="0"/><g><use xlink:href="#at" transform="matrix(1,0,0,1,549,665) translate(-1.481481481481481 17.77777777777778)"/></g><defs><path fill="#333" d="M266 0h-40l-56-210L115 0H75L2-248h35L96-30l15-64 43-154h32l59 218 59-218h35" id="au"/><path fill="#333" d="M100-194c63 0 86 42 84 106H49c0 40 14 67 53 68 26 1 43-12 49-29l28 8c-11 28-37 45-77 45C44 4 14-33 15-96c1-61 26-98 85-98zm52 81c6-60-76-77-97-28-3 7-6 17-6 28h103" id="av"/><path fill="#333" d="M210-169c-67 3-38 105-44 169h-31v-121c0-29-5-50-35-48C34-165 62-65 56 0H25l-1-190h30c1 10-1 24 2 32 10-44 99-50 107 0 11-21 27-35 58-36 85-2 47 119 55 194h-31v-121c0-29-5-49-35-48" id="aw"/><path fill="#333" d="M100-194c62-1 85 37 85 99 1 63-27 99-86 99S16-35 15-95c0-66 28-99 85-99zM99-20c44 1 53-31 53-75 0-43-8-75-51-75s-53 32-53 75 10 74 51 75" id="ax"/><path fill="#333" d="M135-143c-3-34-86-38-87 0 15 53 115 12 119 90S17 21 10-45l28-5c4 36 97 45 98 0-10-56-113-15-118-90-4-57 82-63 122-42 12 7 21 19 24 35" id="ay"/><g id="a"><use transform="matrix(0.06172839506172839,0,0,0.06172839506172839,0,0)" xlink:href="#au"/><use transform="matrix(0.06172839506172839,0,0,0.06172839506172839,20.493827160493826,0)" xlink:href="#av"/><use transform="matrix(0.06172839506172839,0,0,0.06172839506172839,32.839506172839506,0)" xlink:href="#aw"/><use transform="matrix(0.06172839506172839,0,0,0.06172839506172839,51.29629629629629,0)" xlink:href="#ax"/><use transform="matrix(0.06172839506172839,0,0,0.06172839506172839,63.641975308641975,0)" xlink:href="#ay"/></g><path fill="#333" d="M30-248c118-7 216 8 213 122C240-48 200 0 122 0H30v-248zM63-27c89 8 146-16 146-99s-60-101-146-95v194" id="az"/><path fill="#333" d="M27 0v-27h64v-190l-56 39v-29l58-41h29v221h61V0H27" id="aA"/><g id="b"><use transform="matrix(0.06172839506172839,0,0,0.06172839506172839,0,0)" xlink:href="#az"/><use transform="matrix(0.06172839506172839,0,0,0.06172839506172839,15.987654320987653,0)" xlink:href="#aA"/></g><path fill="#333" d="M233-177c-1 41-23 64-60 70L243 0h-38l-65-103H63V0H30v-248c88 3 205-21 203 71zM63-129c60-2 137 13 137-47 0-61-80-42-137-45v92" id="aB"/><path fill="#333" d="M126-127c33 6 58 20 58 59 0 88-139 92-164 29-3-8-5-16-6-25l32-3c6 27 21 44 54 44 32 0 52-15 52-46 0-38-36-46-79-43v-28c39 1 72-4 72-42 0-27-17-43-46-43-28 0-47 15-49 41l-32-3c6-42 35-63 81-64 48-1 79 21 79 65 0 36-21 52-52 59" id="aC"/><path fill="#333" d="M101-251c82-7 93 87 43 132L82-64C71-53 59-42 53-27h129V0H18c2-99 128-94 128-182 0-28-16-43-45-43s-46 15-49 41l-32-3c6-41 34-60 81-64" id="aD"/><g id="c"><use transform="matrix(0.06172839506172839,0,0,0.06172839506172839,0,0)" xlink:href="#aB"/><use transform="matrix(0.06172839506172839,0,0,0.06172839506172839,15.987654320987653,0)" xlink:href="#aC"/><use transform="matrix(0.06172839506172839,0,0,0.06172839506172839,28.333333333333332,0)" xlink:href="#aD"/></g><path fill="#333" d="M185-189c-5-48-123-54-124 2 14 75 158 14 163 119 3 78-121 87-175 55-17-10-28-26-33-46l33-7c5 56 141 63 141-1 0-78-155-14-162-118-5-82 145-84 179-34 5 7 8 16 11 25" id="aE"/><path fill="#333" d="M212-179c-10-28-35-45-73-45-59 0-87 40-87 99 0 60 29 101 89 101 43 0 62-24 78-52l27 14C228-24 195 4 139 4 59 4 22-46 18-125c-6-104 99-153 187-111 19 9 31 26 39 46" id="aF"/><path fill="#333" d="M30 0v-248h33v221h125V0H30" id="aG"/><g id="d"><use transform="matrix(0.03703703703703702,0,0,0.03703703703703702,0,0)" xlink:href="#aE"/><use transform="matrix(0.03703703703703702,0,0,0.03703703703703702,8.888888888888886,0)" xlink:href="#aF"/><use transform="matrix(0.03703703703703702,0,0,0.03703703703703702,18.481481481481474,0)" xlink:href="#aG"/></g><path fill="#333" d="M205 0l-28-72H64L36 0H1l101-248h38L239 0h-34zm-38-99l-47-123c-12 45-31 82-46 123h93" id="aH"/><g id="e"><use transform="matrix(0.03703703703703702,0,0,0.03703703703703702,0,0)" xlink:href="#aE"/><use transform="matrix(0.03703703703703702,0,0,0.03703703703703702,8.888888888888886,0)" xlink:href="#az"/><use transform="matrix(0.03703703703703702,0,0,0.03703703703703702,18.481481481481474,0)" xlink:href="#aH"/></g><path fill="#333" d="M127-220V0H93v-220H8v-28h204v28h-85" id="aI"/><g id="f"><use transform="matrix(0.03703703703703702,0,0,0.03703703703703702,0,0)" xlink:href="#aB"/><use transform="matrix(0.03703703703703702,0,0,0.03703703703703702,9.592592592592588,0)" xlink:href="#aE"/><use transform="matrix(0.03703703703703702,0,0,0.03703703703703702,18.481481481481474,0)" xlink:href="#aI"/></g><path fill="#333" d="M143 4C61 4 22-44 18-125c-5-107 100-154 193-111 17 8 29 25 37 43l-32 9c-13-25-37-40-76-40-61 0-88 39-88 99 0 61 29 100 91 101 35 0 62-11 79-27v-45h-74v-28h105v86C228-13 192 4 143 4" id="aJ"/><path fill="#333" d="M190 0L58-211 59 0H30v-248h39L202-35l-2-213h31V0h-41" id="aK"/><g id="g"><use transform="matrix(0.03703703703703702,0,0,0.03703703703703702,0,0)" xlink:href="#aJ"/><use transform="matrix(0.03703703703703702,0,0,0.03703703703703702,10.370370370370367,0)" xlink:href="#aK"/><use transform="matrix(0.03703703703703702,0,0,0.03703703703703702,19.962962962962955,0)" xlink:href="#az"/></g><path fill="#333" d="M33 0v-248h34V0H33" id="aL"/><path fill="#333" d="M140-251c81 0 123 46 123 126C263-46 219 4 140 4 59 4 17-45 17-125s42-126 123-126zm0 227c63 0 89-41 89-101s-29-99-89-99c-61 0-89 39-89 99S79-25 140-24" id="aM"/><path fill="#333" d="M134-131c28 9 52 24 51 62-1 50-34 73-85 73S17-19 16-69c0-36 21-54 49-61-75-25-45-126 34-121 46 3 78 18 79 63 0 33-17 51-44 57zm-34-11c31 1 46-15 46-44 0-28-17-43-47-42-29 0-46 13-45 42 1 28 16 44 46 44zm1 122c35 0 51-18 51-52 0-30-18-46-53-46-33 0-51 17-51 47 0 34 19 51 53 51" id="aN"/><g id="h"><use transform="matrix(0.03703703703703702,0,0,0.03703703703703702,0,0)" xlink:href="#aL"/><use transform="matrix(0.03703703703703702,0,0,0.03703703703703702,3.703703703703702,0)" xlink:href="#aM"/><use transform="matrix(0.03703703703703702,0,0,0.03703703703703702,14.07407407407407,0)" xlink:href="#aA"/><use transform="matrix(0.03703703703703702,0,0,0.03703703703703702,21.481481481481474,0)" xlink:href="#aN"/></g><path fill="#333" d="M99-251c64 0 84 50 84 122C183-37 130 33 47-8c-14-7-20-23-25-40l30-5c6 39 69 39 84 7 9-19 16-44 16-74-10 22-31 35-62 35-49 0-73-33-73-83 0-54 28-83 82-83zm-1 141c31-1 51-18 51-49 0-36-14-67-51-67-34 0-49 23-49 58 0 34 15 58 49 58" id="aO"/><g id="i"><use transform="matrix(0.03703703703703702,0,0,0.03703703703703702,0,0)" xlink:href="#aL"/><use transform="matrix(0.03703703703703702,0,0,0.03703703703703702,3.703703703703702,0)" xlink:href="#aM"/><use transform="matrix(0.03703703703703702,0,0,0.03703703703703702,14.07407407407407,0)" xlink:href="#aA"/><use transform="matrix(0.03703703703703702,0,0,0.03703703703703702,21.481481481481474,0)" xlink:href="#aO"/></g><g id="j"><use transform="matrix(0.03703703703703702,0,0,0.03703703703703702,0,0)" xlink:href="#aL"/><use transform="matrix(0.03703703703703702,0,0,0.03703703703703702,3.703703703703702,0)" xlink:href="#aM"/><use transform="matrix(0.03703703703703702,0,0,0.03703703703703702,14.07407407407407,0)" xlink:href="#aD"/><use transform="matrix(0.03703703703703702,0,0,0.03703703703703702,21.481481481481474,0)" xlink:href="#aC"/></g><path fill="#333" d="M54-142c48-35 137-8 131 61C196 18 31 33 14-55l32-4c7 23 22 37 52 37 35-1 51-22 54-58 4-55-73-65-99-34H22l8-134h141v27H59" id="aP"/><g id="k"><use transform="matrix(0.03703703703703702,0,0,0.03703703703703702,0,0)" xlink:href="#aL"/><use transform="matrix(0.03703703703703702,0,0,0.03703703703703702,3.703703703703702,0)" xlink:href="#aM"/><use transform="matrix(0.03703703703703702,0,0,0.03703703703703702,14.07407407407407,0)" xlink:href="#aP"/></g><g id="l"><use transform="matrix(0.03703703703703702,0,0,0.03703703703703702,0,0)" xlink:href="#aL"/><use transform="matrix(0.03703703703703702,0,0,0.03703703703703702,3.703703703703702,0)" xlink:href="#aM"/><use transform="matrix(0.03703703703703702,0,0,0.03703703703703702,14.07407407407407,0)" xlink:href="#aA"/><use transform="matrix(0.03703703703703702,0,0,0.03703703703703702,21.481481481481474,0)" xlink:href="#aC"/></g><g id="m"><use transform="matrix(0.03703703703703702,0,0,0.03703703703703702,0,0)" xlink:href="#aL"/><use transform="matrix(0.03703703703703702,0,0,0.03703703703703702,3.703703703703702,0)" xlink:href="#aM"/><use transform="matrix(0.03703703703703702,0,0,0.03703703703703702,14.07407407407407,0)" xlink:href="#aA"/><use transform="matrix(0.03703703703703702,0,0,0.03703703703703702,21.481481481481474,0)" xlink:href="#aD"/></g><path fill="#333" d="M155-56V0h-30v-56H8v-25l114-167h33v167h35v25h-35zm-30-156c-27 46-58 90-88 131h88v-131" id="aQ"/><g id="n"><use transform="matrix(0.03703703703703702,0,0,0.03703703703703702,0,0)" xlink:href="#aL"/><use transform="matrix(0.03703703703703702,0,0,0.03703703703703702,3.703703703703702,0)" xlink:href="#aM"/><use transform="matrix(0.03703703703703702,0,0,0.03703703703703702,14.07407407407407,0)" xlink:href="#aA"/><use transform="matrix(0.03703703703703702,0,0,0.03703703703703702,21.481481481481474,0)" xlink:href="#aQ"/></g><path fill="#333" d="M64 0c3-98 48-159 88-221H18v-27h164v26C143-157 98-101 97 0H64" id="aR"/><g id="o"><use transform="matrix(0.03703703703703702,0,0,0.03703703703703702,0,0)" xlink:href="#aL"/><use transform="matrix(0.03703703703703702,0,0,0.03703703703703702,3.703703703703702,0)" xlink:href="#aM"/><use transform="matrix(0.03703703703703702,0,0,0.03703703703703702,14.07407407407407,0)" xlink:href="#aD"/><use transform="matrix(0.03703703703703702,0,0,0.03703703703703702,21.481481481481474,0)" xlink:href="#aR"/></g><path fill="#333" d="M110-160c48 1 74 30 74 79 0 53-28 85-80 85-65 0-83-55-86-122-5-90 50-162 133-122 14 7 22 21 27 39l-31 6c-5-40-67-38-82-6-9 19-15 44-15 74 11-20 30-34 60-33zm-7 138c34 0 49-23 49-58s-16-56-50-56c-29 0-50 16-49 49 1 36 15 65 50 65" id="aS"/><g id="p"><use transform="matrix(0.03703703703703702,0,0,0.03703703703703702,0,0)" xlink:href="#aL"/><use transform="matrix(0.03703703703703702,0,0,0.03703703703703702,3.703703703703702,0)" xlink:href="#aM"/><use transform="matrix(0.03703703703703702,0,0,0.03703703703703702,14.07407407407407,0)" xlink:href="#aA"/><use transform="matrix(0.03703703703703702,0,0,0.03703703703703702,21.481481481481474,0)" xlink:href="#aS"/></g><g id="q"><use transform="matrix(0.03703703703703702,0,0,0.03703703703703702,0,0)" xlink:href="#aL"/><use transform="matrix(0.03703703703703702,0,0,0.03703703703703702,3.703703703703702,0)" xlink:href="#aM"/><use transform="matrix(0.03703703703703702,0,0,0.03703703703703702,14.07407407407407,0)" xlink:href="#aA"/><use transform="matrix(0.03703703703703702,0,0,0.03703703703703702,21.481481481481474,0)" xlink:href="#aR"/></g><g id="r"><use transform="matrix(0.03703703703703702,0,0,0.03703703703703702,0,0)" xlink:href="#aL"/><use transform="matrix(0.03703703703703702,0,0,0.03703703703703702,3.703703703703702,0)" xlink:href="#aM"/><use transform="matrix(0.03703703703703702,0,0,0.03703703703703702,14.07407407407407,0)" xlink:href="#aD"/><use transform="matrix(0.03703703703703702,0,0,0.03703703703703702,21.481481481481474,0)" xlink:href="#aP"/></g><g id="s"><use transform="matrix(0.03703703703703702,0,0,0.03703703703703702,0,0)" xlink:href="#aL"/><use transform="matrix(0.03703703703703702,0,0,0.03703703703703702,3.703703703703702,0)" xlink:href="#aM"/><use transform="matrix(0.03703703703703702,0,0,0.03703703703703702,14.07407407407407,0)" xlink:href="#aD"/><use transform="matrix(0.03703703703703702,0,0,0.03703703703703702,21.481481481481474,0)" xlink:href="#aS"/></g><path fill="#333" d="M195 0l-74-108L45 0H8l94-129-87-119h37l69 98 67-98h37l-84 118L233 0h-38" id="aT"/><path fill="#333" d="M101-251c68 0 85 55 85 127S166 4 100 4C33 4 14-52 14-124c0-73 17-127 87-127zm-1 229c47 0 54-49 54-102s-4-102-53-102c-51 0-55 48-55 102 0 53 5 102 54 102" id="aU"/><g id="t"><use transform="matrix(0.03703703703703702,0,0,0.03703703703703702,0,0)" xlink:href="#aI"/><use transform="matrix(0.03703703703703702,0,0,0.03703703703703702,8.111111111111107,0)" xlink:href="#aT"/><use transform="matrix(0.03703703703703702,0,0,0.03703703703703702,16.999999999999993,0)" xlink:href="#aU"/></g><g id="u"><use transform="matrix(0.03703703703703702,0,0,0.03703703703703702,0,0)" xlink:href="#aB"/><use transform="matrix(0.03703703703703702,0,0,0.03703703703703702,9.592592592592588,0)" xlink:href="#aT"/><use transform="matrix(0.03703703703703702,0,0,0.03703703703703702,18.481481481481474,0)" xlink:href="#aU"/></g><g id="v"><use transform="matrix(0.03703703703703702,0,0,0.03703703703703702,0,0)" xlink:href="#aL"/><use transform="matrix(0.03703703703703702,0,0,0.03703703703703702,3.703703703703702,0)" xlink:href="#aM"/><use transform="matrix(0.03703703703703702,0,0,0.03703703703703702,14.07407407407407,0)" xlink:href="#aU"/></g><path fill="#333" d="M137 0h-34L2-248h35l83 218 83-218h36" id="aV"/><g id="w"><use transform="matrix(0.03703703703703702,0,0,0.03703703703703702,0,0)" xlink:href="#aP"/><use transform="matrix(0.03703703703703702,0,0,0.03703703703703702,7.407407407407404,0)" xlink:href="#aV"/></g><g id="x"><use transform="matrix(0.03703703703703702,0,0,0.03703703703703702,0,0)" xlink:href="#aC"/><use transform="matrix(0.03703703703703702,0,0,0.03703703703703702,7.407407407407404,0)" xlink:href="#aV"/><use transform="matrix(0.03703703703703702,0,0,0.03703703703703702,16.29629629629629,0)" xlink:href="#aC"/></g><g id="y"><use transform="matrix(0.03703703703703702,0,0,0.03703703703703702,0,0)" xlink:href="#aV"/><use transform="matrix(0.03703703703703702,0,0,0.03703703703703702,8.888888888888886,0)" xlink:href="#aK"/></g><g id="z"><use transform="matrix(0.03703703703703702,0,0,0.03703703703703702,0,0)" xlink:href="#aL"/><use transform="matrix(0.03703703703703702,0,0,0.03703703703703702,3.703703703703702,0)" xlink:href="#aM"/><use transform="matrix(0.03703703703703702,0,0,0.03703703703703702,14.07407407407407,0)" xlink:href="#aD"/></g><g id="A"><use transform="matrix(0.03703703703703702,0,0,0.03703703703703702,0,0)" xlink:href="#aL"/><use transform="matrix(0.03703703703703702,0,0,0.03703703703703702,3.703703703703702,0)" xlink:href="#aM"/><use transform="matrix(0.03703703703703702,0,0,0.03703703703703702,14.07407407407407,0)" xlink:href="#aQ"/></g><g id="B"><use transform="matrix(0.03703703703703702,0,0,0.03703703703703702,0,0)" xlink:href="#aL"/><use transform="matrix(0.03703703703703702,0,0,0.03703703703703702,3.703703703703702,0)" xlink:href="#aM"/><use transform="matrix(0.03703703703703702,0,0,0.03703703703703702,14.07407407407407,0)" xlink:href="#aC"/><use transform="matrix(0.03703703703703702,0,0,0.03703703703703702,21.481481481481474,0)" xlink:href="#aS"/></g><g id="C"><use transform="matrix(0.03703703703703702,0,0,0.03703703703703702,0,0)" xlink:href="#aL"/><use transform="matrix(0.03703703703703702,0,0,0.03703703703703702,3.703703703703702,0)" xlink:href="#aM"/><use transform="matrix(0.03703703703703702,0,0,0.03703703703703702,14.07407407407407,0)" xlink:href="#aC"/><use transform="matrix(0.03703703703703702,0,0,0.03703703703703702,21.481481481481474,0)" xlink:href="#aQ"/></g><g id="D"><use transform="matrix(0.03703703703703702,0,0,0.03703703703703702,0,0)" xlink:href="#aL"/><use transform="matrix(0.03703703703703702,0,0,0.03703703703703702,3.703703703703702,0)" xlink:href="#aM"/><use transform="matrix(0.03703703703703702,0,0,0.03703703703703702,14.07407407407407,0)" xlink:href="#aC"/><use transform="matrix(0.03703703703703702,0,0,0.03703703703703702,21.481481481481474,0)" xlink:href="#aN"/></g><g id="E"><use transform="matrix(0.03703703703703702,0,0,0.03703703703703702,0,0)" xlink:href="#aL"/><use transform="matrix(0.03703703703703702,0,0,0.03703703703703702,3.703703703703702,0)" xlink:href="#aM"/><use transform="matrix(0.03703703703703702,0,0,0.03703703703703702,14.07407407407407,0)" xlink:href="#aC"/><use transform="matrix(0.03703703703703702,0,0,0.03703703703703702,21.481481481481474,0)" xlink:href="#aO"/></g><path fill="#333" d="M240 0l2-218c-23 76-54 145-80 218h-23L58-218 59 0H30v-248h44l77 211c21-75 51-140 76-211h43V0h-30" id="aW"/><path fill="#333" d="M24-231v-30h32v30H24zM24 0v-190h32V0H24" id="aX"/><path fill="#333" d="M96-169c-40 0-48 33-48 73s9 75 48 75c24 0 41-14 43-38l32 2c-6 37-31 61-74 61-59 0-76-41-82-99-10-93 101-131 147-64 4 7 5 14 7 22l-32 3c-4-21-16-35-41-35" id="aY"/><path fill="#333" d="M114-163C36-179 61-72 57 0H25l-1-190h30c1 12-1 29 2 39 6-27 23-49 58-41v29" id="aZ"/><g id="F"><use transform="matrix(0.06172839506172839,0,0,0.06172839506172839,0,0)" xlink:href="#aW"/><use transform="matrix(0.06172839506172839,0,0,0.06172839506172839,18.456790123456788,0)" xlink:href="#aX"/><use transform="matrix(0.06172839506172839,0,0,0.06172839506172839,23.33333333333333,0)" xlink:href="#aY"/><use transform="matrix(0.06172839506172839,0,0,0.06172839506172839,34.44444444444444,0)" xlink:href="#aZ"/><use transform="matrix(0.06172839506172839,0,0,0.06172839506172839,41.79012345679012,0)" xlink:href="#ax"/></g><g id="G"><use transform="matrix(0.06172839506172839,0,0,0.06172839506172839,0,0)" xlink:href="#aE"/><use transform="matrix(0.06172839506172839,0,0,0.06172839506172839,14.814814814814813,0)" xlink:href="#az"/></g><path fill="#333" d="M141-36C126-15 110 5 73 4 37 3 15-17 15-53c-1-64 63-63 125-63 3-35-9-54-41-54-24 1-41 7-42 31l-33-3c5-37 33-52 76-52 45 0 72 20 72 64v82c-1 20 7 32 28 27v20c-31 9-61-2-59-35zM48-53c0 20 12 33 32 33 41-3 63-29 60-74-43 2-92-5-92 41" id="ba"/><path fill="#333" d="M85-194c31 0 48 13 60 33l-1-100h32l1 261h-30c-2-10 0-23-3-31C134-8 116 4 85 4 32 4 16-35 15-94c0-66 23-100 70-100zm9 24c-40 0-46 34-46 75 0 40 6 74 45 74 42 0 51-32 51-76 0-42-9-74-50-73" id="bb"/><g id="H"><use transform="matrix(0.06172839506172839,0,0,0.06172839506172839,0,0)" xlink:href="#aF"/><use transform="matrix(0.06172839506172839,0,0,0.06172839506172839,15.987654320987653,0)" xlink:href="#ba"/><use transform="matrix(0.06172839506172839,0,0,0.06172839506172839,28.333333333333332,0)" xlink:href="#aZ"/><use transform="matrix(0.06172839506172839,0,0,0.06172839506172839,35.67901234567901,0)" xlink:href="#bb"/></g><g id="I"><use transform="matrix(0.06172839506172839,0,0,0.06172839506172839,0,0)" xlink:href="#aB"/><use transform="matrix(0.06172839506172839,0,0,0.06172839506172839,15.987654320987653,0)" xlink:href="#av"/><use transform="matrix(0.06172839506172839,0,0,0.06172839506172839,28.333333333333332,0)" xlink:href="#ba"/><use transform="matrix(0.06172839506172839,0,0,0.06172839506172839,40.67901234567901,0)" xlink:href="#bb"/><use transform="matrix(0.06172839506172839,0,0,0.06172839506172839,53.02469135802469,0)" xlink:href="#av"/><use transform="matrix(0.06172839506172839,0,0,0.06172839506172839,65.37037037037037,0)" xlink:href="#aZ"/></g><path fill="#333" d="M24 0v-261h32V0H24" id="bc"/><path fill="#333" d="M179-190L93 31C79 59 56 82 12 73V49c39 6 53-20 64-50L1-190h34L92-34l54-156h33" id="bd"/><g id="J"><use transform="matrix(0.06172839506172839,0,0,0.06172839506172839,0,0)" xlink:href="#aB"/><use transform="matrix(0.06172839506172839,0,0,0.06172839506172839,15.987654320987653,0)" xlink:href="#av"/><use transform="matrix(0.06172839506172839,0,0,0.06172839506172839,28.333333333333332,0)" xlink:href="#bc"/><use transform="matrix(0.06172839506172839,0,0,0.06172839506172839,33.20987654320987,0)" xlink:href="#ba"/><use transform="matrix(0.06172839506172839,0,0,0.06172839506172839,45.55555555555555,0)" xlink:href="#bd"/><use transform="matrix(0.06172839506172839,0,0,0.06172839506172839,56.66666666666666,0)" xlink:href="#ay"/></g><path fill="#333" d="M160-131c35 5 61 23 61 61C221 17 115-2 30 0v-248c76 3 177-17 177 60 0 33-19 50-47 57zm-97-11c50-1 110 9 110-42 0-47-63-36-110-37v79zm0 115c55-2 124 14 124-45 0-56-70-42-124-44v89" id="be"/><g id="K"><use transform="matrix(0.06172839506172839,0,0,0.06172839506172839,0,0)" xlink:href="#be"/><use transform="matrix(0.06172839506172839,0,0,0.06172839506172839,14.814814814814813,0)" xlink:href="#ax"/><use transform="matrix(0.06172839506172839,0,0,0.06172839506172839,27.160493827160494,0)" xlink:href="#ba"/><use transform="matrix(0.06172839506172839,0,0,0.06172839506172839,39.50617283950617,0)" xlink:href="#aZ"/><use transform="matrix(0.06172839506172839,0,0,0.06172839506172839,46.85185185185185,0)" xlink:href="#bb"/></g><g id="L"><use transform="matrix(0.03703703703703702,0,0,0.03703703703703702,0,0)" xlink:href="#aL"/><use transform="matrix(0.03703703703703702,0,0,0.03703703703703702,3.703703703703702,0)" xlink:href="#aK"/><use transform="matrix(0.03703703703703702,0,0,0.03703703703703702,13.29629629629629,0)" xlink:href="#aA"/></g><g id="M"><use transform="matrix(0.03703703703703702,0,0,0.03703703703703702,0,0)" xlink:href="#aL"/><use transform="matrix(0.03703703703703702,0,0,0.03703703703703702,3.703703703703702,0)" xlink:href="#aK"/><use transform="matrix(0.03703703703703702,0,0,0.03703703703703702,13.29629629629629,0)" xlink:href="#aD"/></g><g id="N"><use transform="matrix(0.03703703703703702,0,0,0.03703703703703702,0,0)" xlink:href="#aV"/><use transform="matrix(0.03703703703703702,0,0,0.03703703703703702,8.888888888888886,0)" xlink:href="#aF"/><use transform="matrix(0.03703703703703702,0,0,0.03703703703703702,18.481481481481474,0)" xlink:href="#aF"/></g><g id="O"><use transform="matrix(0.06172839506172839,0,0,0.06172839506172839,0,0)" xlink:href="#aB"/><use transform="matrix(0.06172839506172839,0,0,0.06172839506172839,15.987654320987653,0)" xlink:href="#aA"/></g><g id="P"><use transform="matrix(0.06172839506172839,0,0,0.06172839506172839,0,0)" xlink:href="#aB"/><use transform="matrix(0.06172839506172839,0,0,0.06172839506172839,15.987654320987653,0)" xlink:href="#aD"/></g><g id="Q"><use transform="matrix(0.03703703703703702,0,0,0.03703703703703702,0,0)" xlink:href="#aW"/><use transform="matrix(0.03703703703703702,0,0,0.03703703703703702,11.074074074074069,0)" xlink:href="#aL"/><use transform="matrix(0.03703703703703702,0,0,0.03703703703703702,14.777777777777771,0)" xlink:href="#aE"/><use transform="matrix(0.03703703703703702,0,0,0.03703703703703702,23.666666666666657,0)" xlink:href="#aM"/></g><g id="R"><use transform="matrix(0.03703703703703702,0,0,0.03703703703703702,0,0)" xlink:href="#aW"/><use transform="matrix(0.03703703703703702,0,0,0.03703703703703702,11.074074074074069,0)" xlink:href="#aM"/><use transform="matrix(0.03703703703703702,0,0,0.03703703703703702,21.444444444444436,0)" xlink:href="#aE"/><use transform="matrix(0.03703703703703702,0,0,0.03703703703703702,30.33333333333332,0)" xlink:href="#aL"/></g><path fill="#333" d="M194 0L95-120 63-95V0H30v-248h33v124l119-124h40L117-140 236 0h-42" id="bf"/><g id="S"><use transform="matrix(0.03703703703703702,0,0,0.03703703703703702,0,0)" xlink:href="#aE"/><use transform="matrix(0.03703703703703702,0,0,0.03703703703703702,8.888888888888886,0)" xlink:href="#aF"/><use transform="matrix(0.03703703703703702,0,0,0.03703703703703702,18.481481481481474,0)" xlink:href="#bf"/></g><g id="T"><use transform="matrix(0.03703703703703702,0,0,0.03703703703703702,0,0)" xlink:href="#aF"/><use transform="matrix(0.03703703703703702,0,0,0.03703703703703702,9.592592592592588,0)" xlink:href="#aE"/></g><g id="U"><use transform="matrix(0.03703703703703699,0,0,0.03703703703703699,0,0)" xlink:href="#aO"/><use transform="matrix(0.03703703703703699,0,0,0.03703703703703699,7.407407407407399,0)" xlink:href="#aV"/></g><path fill="#333" d="M143 0L79-87 56-68V0H24v-261h32v163l83-92h37l-77 82L181 0h-38" id="bg"/><path fill="#333" d="M59-47c-2 24 18 29 38 22v24C64 9 27 4 27-40v-127H5v-23h24l9-43h21v43h35v23H59v120" id="bh"/><g id="V"><use transform="matrix(0.03703703703703699,0,0,0.03703703703703699,0,0)" xlink:href="#aE"/><use transform="matrix(0.03703703703703699,0,0,0.03703703703703699,8.888888888888879,0)" xlink:href="#ax"/><use transform="matrix(0.03703703703703699,0,0,0.03703703703703699,16.296296296296276,0)" xlink:href="#aY"/><use transform="matrix(0.03703703703703699,0,0,0.03703703703703699,22.96296296296293,0)" xlink:href="#bg"/><use transform="matrix(0.03703703703703699,0,0,0.03703703703703699,29.62962962962959,0)" xlink:href="#av"/><use transform="matrix(0.03703703703703699,0,0,0.03703703703703699,37.03703703703699,0)" xlink:href="#bh"/></g><path fill="#333" d="M175 0L67-191c6 58 2 128 3 191H24v-248h59L193-55c-6-58-2-129-3-193h46V0h-61" id="bi"/><path fill="#333" d="M185-48c-13 30-37 53-82 52C43 2 14-33 14-96s30-98 90-98c62 0 83 45 84 108H66c0 31 8 55 39 56 18 0 30-7 34-22zm-45-69c5-46-57-63-70-21-2 6-4 13-4 21h74" id="bj"/><path fill="#333" d="M85 4C-2 5 27-109 22-190h50c7 57-23 150 33 157 60-5 35-97 40-157h50l1 190h-47c-2-12 1-28-3-38-12 25-28 42-61 42" id="bk"/><path fill="#333" d="M115-3C79 11 28 4 28-45v-112H4v-33h27l15-45h31v45h36v33H77v99c-1 23 16 31 38 25v30" id="bl"/><path fill="#333" d="M135-150c-39-12-60 13-60 57V0H25l-1-190h47c2 13-1 29 3 40 6-28 27-53 61-41v41" id="bm"/><path fill="#333" d="M133-34C117-15 103 5 69 4 32 3 11-16 11-54c-1-60 55-63 116-61 1-26-3-47-28-47-18 1-26 9-28 27l-52-2c7-38 36-58 82-57s74 22 75 68l1 82c-1 14 12 18 25 15v27c-30 8-71 5-69-32zm-48 3c29 0 43-24 42-57-32 0-66-3-65 30 0 17 8 27 23 27" id="bn"/><path fill="#333" d="M25 0v-261h50V0H25" id="bo"/><g id="W"><use transform="matrix(0.04938271604938272,0,0,0.04938271604938272,0,0)" xlink:href="#bi"/><use transform="matrix(0.04938271604938272,0,0,0.04938271604938272,12.790123456790125,0)" xlink:href="#bj"/><use transform="matrix(0.04938271604938272,0,0,0.04938271604938272,22.66666666666667,0)" xlink:href="#bk"/><use transform="matrix(0.04938271604938272,0,0,0.04938271604938272,33.48148148148149,0)" xlink:href="#bl"/><use transform="matrix(0.04938271604938272,0,0,0.04938271604938272,39.35802469135803,0)" xlink:href="#bm"/><use transform="matrix(0.04938271604938272,0,0,0.04938271604938272,46.271604938271615,0)" xlink:href="#bn"/><use transform="matrix(0.04938271604938272,0,0,0.04938271604938272,56.14814814814817,0)" xlink:href="#bo"/></g><path fill="#333" d="M24 0v-248h195v40H76v63h132v40H76v65h150V0H24" id="bp"/><path fill="#333" d="M114-157C55-157 80-60 75 0H25v-261h50l-1 109c12-26 28-41 61-42 86-1 58 113 63 194h-50c-7-57 23-157-34-157" id="bq"/><g id="X"><use transform="matrix(0.04938271604938272,0,0,0.04938271604938272,0,0)" xlink:href="#bp"/><use transform="matrix(0.04938271604938272,0,0,0.04938271604938272,11.851851851851853,0)" xlink:href="#bn"/><use transform="matrix(0.04938271604938272,0,0,0.04938271604938272,21.7283950617284,0)" xlink:href="#bm"/><use transform="matrix(0.04938271604938272,0,0,0.04938271604938272,28.64197530864198,0)" xlink:href="#bl"/><use transform="matrix(0.04938271604938272,0,0,0.04938271604938272,34.518518518518526,0)" xlink:href="#bq"/></g><path fill="#333" d="M24 0v-248h52v208h133V0H24" id="br"/><path fill="#333" d="M25-224v-37h50v37H25zM25 0v-190h50V0H25" id="bs"/><path fill="#333" d="M128 0H69L1-190h53L99-40l48-150h52" id="bt"/><g id="Y"><use transform="matrix(0.04938271604938272,0,0,0.04938271604938272,0,0)" xlink:href="#br"/><use transform="matrix(0.04938271604938272,0,0,0.04938271604938272,10.814814814814815,0)" xlink:href="#bs"/><use transform="matrix(0.04938271604938272,0,0,0.04938271604938272,15.753086419753087,0)" xlink:href="#bt"/><use transform="matrix(0.04938271604938272,0,0,0.04938271604938272,25.629629629629633,0)" xlink:href="#bj"/></g><path fill="#333" d="M84 4C-5 8 30-112 23-190h32v120c0 31 7 50 39 49 72-2 45-101 50-169h31l1 190h-30c-1-10 1-25-2-33-11 22-28 36-60 37" id="bu"/><g id="Z"><use transform="matrix(0.04320987654320981,0,0,0.04320987654320981,0,0)" xlink:href="#aB"/><use transform="matrix(0.04320987654320981,0,0,0.04320987654320981,11.191358024691342,0)" xlink:href="#ax"/><use transform="matrix(0.04320987654320981,0,0,0.04320987654320981,19.833333333333304,0)" xlink:href="#bu"/><use transform="matrix(0.04320987654320981,0,0,0.04320987654320981,28.475308641975268,0)" xlink:href="#bh"/><use transform="matrix(0.04320987654320981,0,0,0.04320987654320981,32.79629629629625,0)" xlink:href="#av"/><use transform="matrix(0.04320987654320981,0,0,0.04320987654320981,41.43827160493821,0)" xlink:href="#aZ"/></g><path fill="#333" d="M30-248c87 1 191-15 191 75 0 78-77 80-158 76V0H30v-248zm33 125c57 0 124 11 124-50 0-59-68-47-124-48v98" id="bv"/><path fill="#333" d="M206 0h-36l-40-164L89 0H53L-1-190h32L70-26l43-164h34l41 164 42-164h31" id="bw"/><g id="aa"><use transform="matrix(0.04320987654320981,0,0,0.04320987654320981,0,0)" xlink:href="#bv"/><use transform="matrix(0.04320987654320981,0,0,0.04320987654320981,10.370370370370354,0)" xlink:href="#ax"/><use transform="matrix(0.04320987654320981,0,0,0.04320987654320981,19.012345679012316,0)" xlink:href="#bw"/><use transform="matrix(0.04320987654320981,0,0,0.04320987654320981,30.20370370370366,0)" xlink:href="#av"/><use transform="matrix(0.04320987654320981,0,0,0.04320987654320981,38.84567901234562,0)" xlink:href="#aZ"/></g><g id="ab"><use transform="matrix(0.04320987654320981,0,0,0.04320987654320981,0,0)" xlink:href="#aE"/><use transform="matrix(0.04320987654320981,0,0,0.04320987654320981,10.370370370370354,0)" xlink:href="#ax"/><use transform="matrix(0.04320987654320981,0,0,0.04320987654320981,19.012345679012316,0)" xlink:href="#aY"/><use transform="matrix(0.04320987654320981,0,0,0.04320987654320981,26.790123456790084,0)" xlink:href="#bg"/><use transform="matrix(0.04320987654320981,0,0,0.04320987654320981,34.56790123456785,0)" xlink:href="#av"/><use transform="matrix(0.04320987654320981,0,0,0.04320987654320981,43.20987654320981,0)" xlink:href="#bh"/></g><g id="ac"><use transform="matrix(0.04320987654320981,0,0,0.04320987654320981,0,0)" xlink:href="#aW"/><use transform="matrix(0.04320987654320981,0,0,0.04320987654320981,12.919753086419734,0)" xlink:href="#ax"/><use transform="matrix(0.04320987654320981,0,0,0.04320987654320981,21.561728395061696,0)" xlink:href="#bb"/><use transform="matrix(0.04320987654320981,0,0,0.04320987654320981,30.20370370370366,0)" xlink:href="#av"/><use transform="matrix(0.04320987654320981,0,0,0.04320987654320981,38.84567901234562,0)" xlink:href="#aw"/></g><g id="ad"><use transform="matrix(0.03703703703703702,0,0,0.03703703703703702,0,0)" xlink:href="#aB"/><use transform="matrix(0.03703703703703702,0,0,0.03703703703703702,9.592592592592588,0)" xlink:href="#ax"/><use transform="matrix(0.03703703703703702,0,0,0.03703703703703702,16.999999999999993,0)" xlink:href="#bu"/><use transform="matrix(0.03703703703703702,0,0,0.03703703703703702,24.407407407407398,0)" xlink:href="#bh"/><use transform="matrix(0.03703703703703702,0,0,0.03703703703703702,28.1111111111111,0)" xlink:href="#av"/><use transform="matrix(0.03703703703703702,0,0,0.03703703703703702,35.518518518518505,0)" xlink:href="#aZ"/></g><g id="ae"><use transform="matrix(0.03703703703703702,0,0,0.03703703703703702,0,0)" xlink:href="#bv"/><use transform="matrix(0.03703703703703702,0,0,0.03703703703703702,8.888888888888886,0)" xlink:href="#ax"/><use transform="matrix(0.03703703703703702,0,0,0.03703703703703702,16.29629629629629,0)" xlink:href="#bw"/><use transform="matrix(0.03703703703703702,0,0,0.03703703703703702,25.88888888888888,0)" xlink:href="#av"/><use transform="matrix(0.03703703703703702,0,0,0.03703703703703702,33.29629629629628,0)" xlink:href="#aZ"/></g><path fill="#333" d="M117-194c89-4 53 116 60 194h-32v-121c0-31-8-49-39-48C34-167 62-67 57 0H25l-1-190h30c1 10-1 24 2 32 11-22 29-35 61-36" id="bx"/><g id="af"><use transform="matrix(0.03703703703703702,0,0,0.03703703703703702,0,0)" xlink:href="#aL"/><use transform="matrix(0.03703703703703702,0,0,0.03703703703703702,3.703703703703702,0)" xlink:href="#bx"/><use transform="matrix(0.03703703703703702,0,0,0.03703703703703702,11.111111111111107,0)" xlink:href="#bb"/><use transform="matrix(0.03703703703703702,0,0,0.03703703703703702,18.51851851851851,0)" xlink:href="#aX"/><use transform="matrix(0.03703703703703702,0,0,0.03703703703703702,21.444444444444432,0)" xlink:href="#aY"/><use transform="matrix(0.03703703703703702,0,0,0.03703703703703702,28.111111111111097,0)" xlink:href="#ba"/><use transform="matrix(0.03703703703703702,0,0,0.03703703703703702,35.5185185185185,0)" xlink:href="#bh"/><use transform="matrix(0.03703703703703702,0,0,0.03703703703703702,39.2222222222222,0)" xlink:href="#ax"/><use transform="matrix(0.03703703703703702,0,0,0.03703703703703702,46.6296296296296,0)" xlink:href="#aZ"/></g><g id="ag"><use transform="matrix(0.03703703703703702,0,0,0.03703703703703702,0,0)" xlink:href="#aW"/><use transform="matrix(0.03703703703703702,0,0,0.03703703703703702,11.074074074074069,0)" xlink:href="#ax"/><use transform="matrix(0.03703703703703702,0,0,0.03703703703703702,18.481481481481474,0)" xlink:href="#bb"/><use transform="matrix(0.03703703703703702,0,0,0.03703703703703702,25.88888888888888,0)" xlink:href="#av"/><use transform="matrix(0.03703703703703702,0,0,0.03703703703703702,33.29629629629628,0)" xlink:href="#aw"/></g><g id="ah"><use transform="matrix(0.06172839506172839,0,0,0.06172839506172839,0,0)" xlink:href="#aG"/><use transform="matrix(0.06172839506172839,0,0,0.06172839506172839,12.345679012345679,0)" xlink:href="#bu"/><use transform="matrix(0.06172839506172839,0,0,0.06172839506172839,24.691358024691358,0)" xlink:href="#ay"/><use transform="matrix(0.06172839506172839,0,0,0.06172839506172839,35.80246913580247,0)" xlink:href="#bh"/><use transform="matrix(0.06172839506172839,0,0,0.06172839506172839,41.97530864197531,0)" xlink:href="#av"/><use transform="matrix(0.06172839506172839,0,0,0.06172839506172839,54.32098765432099,0)" xlink:href="#aZ"/></g><g id="ai"><use transform="matrix(0.06172839506172839,0,0,0.06172839506172839,0,0)" xlink:href="#aI"/><use transform="matrix(0.06172839506172839,0,0,0.06172839506172839,11.049382716049381,0)" xlink:href="#av"/><use transform="matrix(0.06172839506172839,0,0,0.06172839506172839,23.39506172839506,0)" xlink:href="#aZ"/><use transform="matrix(0.06172839506172839,0,0,0.06172839506172839,30.74074074074074,0)" xlink:href="#aw"/><use transform="matrix(0.06172839506172839,0,0,0.06172839506172839,49.19753086419753,0)" xlink:href="#aX"/><use transform="matrix(0.06172839506172839,0,0,0.06172839506172839,54.074074074074076,0)" xlink:href="#bx"/><use transform="matrix(0.06172839506172839,0,0,0.06172839506172839,66.41975308641976,0)" xlink:href="#ba"/><use transform="matrix(0.06172839506172839,0,0,0.06172839506172839,78.76543209876544,0)" xlink:href="#bc"/></g><g id="aj"><use transform="matrix(0.06172839506172839,0,0,0.06172839506172839,0,0)" xlink:href="#aW"/><use transform="matrix(0.06172839506172839,0,0,0.06172839506172839,18.456790123456788,0)" xlink:href="#ba"/><use transform="matrix(0.06172839506172839,0,0,0.06172839506172839,30.80246913580247,0)" xlink:href="#aX"/><use transform="matrix(0.06172839506172839,0,0,0.06172839506172839,35.67901234567901,0)" xlink:href="#bx"/><use transform="matrix(0.06172839506172839,0,0,0.06172839506172839,48.02469135802469,0)" xlink:href="#ay"/></g><g id="ak"><use transform="matrix(0.06172839506172839,0,0,0.06172839506172839,0,0)" xlink:href="#bv"/><use transform="matrix(0.06172839506172839,0,0,0.06172839506172839,14.814814814814813,0)" xlink:href="#ax"/><use transform="matrix(0.06172839506172839,0,0,0.06172839506172839,27.160493827160494,0)" xlink:href="#bw"/><use transform="matrix(0.06172839506172839,0,0,0.06172839506172839,43.148148148148145,0)" xlink:href="#av"/><use transform="matrix(0.06172839506172839,0,0,0.06172839506172839,55.49382716049382,0)" xlink:href="#aZ"/></g><path fill="#333" d="M177-190C167-65 218 103 67 71c-23-6-38-20-44-43l32-5c15 47 100 32 89-28v-30C133-14 115 1 83 1 29 1 15-40 15-95c0-56 16-97 71-98 29-1 48 16 59 35 1-10 0-23 2-32h30zM94-22c36 0 50-32 50-73 0-42-14-75-50-75-39 0-46 34-46 75s6 73 46 73" id="by"/><g id="al"><use transform="matrix(0.06172839506172839,0,0,0.06172839506172839,0,0)" xlink:href="#bv"/><use transform="matrix(0.06172839506172839,0,0,0.06172839506172839,14.814814814814813,0)" xlink:href="#bc"/><use transform="matrix(0.06172839506172839,0,0,0.06172839506172839,19.691358024691354,0)" xlink:href="#bu"/><use transform="matrix(0.06172839506172839,0,0,0.06172839506172839,32.03703703703703,0)" xlink:href="#by"/></g><path fill="#333" d="M16-82v-28h88v28H16" id="bz"/><path fill="#333" d="M18-27v-27l151-64-151-65v-27l175 74v36" id="bA"/><g id="am"><use transform="matrix(0.06172839506172839,0,0,0.06172839506172839,0,0)" xlink:href="#aD"/><use transform="matrix(0.06172839506172839,0,0,0.06172839506172839,12.345679012345679,0)" xlink:href="#aD"/><use transform="matrix(0.06172839506172839,0,0,0.06172839506172839,24.691358024691358,0)" xlink:href="#aU"/><use transform="matrix(0.06172839506172839,0,0,0.06172839506172839,37.03703703703704,0)" xlink:href="#aV"/><use transform="matrix(0.06172839506172839,0,0,0.06172839506172839,50.18518518518519,0)" xlink:href="#aH"/><use transform="matrix(0.06172839506172839,0,0,0.06172839506172839,65,0)" xlink:href="#aF"/><use transform="matrix(0.06172839506172839,0,0,0.06172839506172839,80.98765432098766,0)" xlink:href="#bz"/><use transform="matrix(0.06172839506172839,0,0,0.06172839506172839,88.33333333333334,0)" xlink:href="#bA"/></g><path fill="#333" d="M0 4l72-265h28L28 4H0" id="bB"/><g id="an"><use transform="matrix(0.06172839506172839,0,0,0.06172839506172839,0,0)" xlink:href="#aO"/><use transform="matrix(0.06172839506172839,0,0,0.06172839506172839,12.345679012345679,0)" xlink:href="#aV"/><use transform="matrix(0.06172839506172839,0,0,0.06172839506172839,27.160493827160494,0)" xlink:href="#az"/><use transform="matrix(0.06172839506172839,0,0,0.06172839506172839,43.148148148148145,0)" xlink:href="#aF"/><use transform="matrix(0.06172839506172839,0,0,0.06172839506172839,59.1358024691358,0)" xlink:href="#bB"/><use transform="matrix(0.06172839506172839,0,0,0.06172839506172839,65.30864197530863,0)" xlink:href="#aS"/><use transform="matrix(0.06172839506172839,0,0,0.06172839506172839,77.65432098765432,0)" xlink:href="#aU"/><use transform="matrix(0.06172839506172839,0,0,0.06172839506172839,90,0)" xlink:href="#aU"/><use transform="matrix(0.06172839506172839,0,0,0.06172839506172839,102.34567901234568,0)" xlink:href="#aw"/><use transform="matrix(0.06172839506172839,0,0,0.06172839506172839,120.80246913580247,0)" xlink:href="#aH"/></g><g id="ao"><use transform="matrix(0.06172839506172839,0,0,0.06172839506172839,0,0)" xlink:href="#bv"/><use transform="matrix(0.06172839506172839,0,0,0.06172839506172839,14.814814814814813,0)" xlink:href="#ax"/><use transform="matrix(0.06172839506172839,0,0,0.06172839506172839,27.160493827160494,0)" xlink:href="#bw"/><use transform="matrix(0.06172839506172839,0,0,0.06172839506172839,43.148148148148145,0)" xlink:href="#av"/><use transform="matrix(0.06172839506172839,0,0,0.06172839506172839,55.49382716049382,0)" xlink:href="#aZ"/></g><path fill="#333" d="M115-194c55 1 70 41 70 98S169 2 115 4C84 4 66-9 55-30l1 105H24l-1-265h31l2 30c10-21 28-34 59-34zm-8 174c40 0 45-34 45-75s-6-73-45-74c-42 0-51 32-51 76 0 43 10 73 51 73" id="bC"/><g id="ap"><use transform="matrix(0.06172839506172839,0,0,0.06172839506172839,0,0)" xlink:href="#aE"/><use transform="matrix(0.06172839506172839,0,0,0.06172839506172839,14.814814814814813,0)" xlink:href="#bu"/><use transform="matrix(0.06172839506172839,0,0,0.06172839506172839,27.160493827160494,0)" xlink:href="#bC"/><use transform="matrix(0.06172839506172839,0,0,0.06172839506172839,39.50617283950617,0)" xlink:href="#bC"/><use transform="matrix(0.06172839506172839,0,0,0.06172839506172839,51.85185185185185,0)" xlink:href="#bc"/><use transform="matrix(0.06172839506172839,0,0,0.06172839506172839,56.72839506172839,0)" xlink:href="#bd"/></g><use transform="matrix(0.06172839506172839,0,0,0.06172839506172839,0,0)" xlink:href="#aG" id="aq"/><use transform="matrix(0.06172839506172839,0,0,0.06172839506172839,0,0)" xlink:href="#aK" id="ar"/><use transform="matrix(0.11111111111111108,0,0,0.11111111111111108,0,0)" xlink:href="#bz" id="as"/><path fill="#333" d="M118-107v75H92v-75H18v-26h74v-75h26v75h74v26h-74" id="bD"/><use transform="matrix(0.06172839506172839,0,0,0.06172839506172839,0,0)" xlink:href="#bD" id="at"/></defs></g></svg>